<svg aria-hidden="true" style="position: absolute; width: 0; height: 0; overflow: hidden;" version="1.1" xmlns="http://www.w3.org/2000/svg" xmlns:xlink="http://www.w3.org/1999/xlink">
  <defs>
<symbol id="icon-pof_logo" viewBox="0 0 25 32">
<path fill="#fefff0" style="fill: var(--color1, #fefff0)" d="M21.31 9.079c0.029 0 0.043 0.003 0.055 0 0.245-0.071 0.487-0.141 0.718-0.255 0.296-0.147 0.6-0.275 0.905-0.404 0.178-0.076 0.349-0.162 0.51-0.271 0.051-0.034 0.107-0.064 0.165-0.083 0.091-0.029 0.178-0.011 0.248 0.059s0.083 0.157 0.055 0.248c-0.015 0.045-0.034 0.090-0.060 0.131-0.114 0.18-0.242 0.35-0.399 0.497-0.29 0.274-0.582 0.547-0.858 0.835-0.284 0.297-0.502 0.638-0.581 1.052-0.006 0.027-0.009 0.054-0.011 0.081 0 0.006 0.007 0.011 0.017 0.026 0.028-0.014 0.059-0.027 0.086-0.044 0.248-0.151 0.514-0.264 0.786-0.363 0.292-0.107 0.598-0.132 0.905-0.135 0.061 0 0.13 0.025 0.183 0.058 0.131 0.083 0.153 0.246 0.058 0.369-0.025 0.033-0.056 0.060-0.086 0.089-0.16 0.156-0.327 0.306-0.479 0.469-0.129 0.138-0.253 0.283-0.358 0.44-0.167 0.248-0.317 0.508-0.475 0.761-0.087 0.14-0.177 0.279-0.265 0.418-0.016 0.025-0.030 0.051-0.045 0.076 0.005 0.007 0.009 0.012 0.014 0.019 0.035-0.016 0.073-0.027 0.106-0.047 0.136-0.087 0.277-0.168 0.405-0.266 0.333-0.255 0.699-0.437 1.1-0.555 0.185-0.054 0.367-0.12 0.552-0.173 0.105-0.030 0.214-0.050 0.323-0.067 0.072-0.011 0.144 0.002 0.209 0.042 0.135 0.083 0.167 0.249 0.069 0.374-0.019 0.025-0.042 0.046-0.064 0.067-0.272 0.249-0.495 0.535-0.658 0.866-0.133 0.272-0.268 0.543-0.407 0.812-0.097 0.186-0.204 0.368-0.343 0.527-0.010 0.012-0.017 0.028-0.028 0.046 0.037 0.032 0.076 0.017 0.111 0.017 0.255-0.001 0.509-0.005 0.764-0.005 0.198 0 0.374 0.085 0.553 0.157 0.1 0.042 0.15 0.131 0.144 0.241s-0.064 0.198-0.17 0.223c-0.255 0.060-0.461 0.21-0.68 0.338-0.118 0.070-0.233 0.147-0.353 0.213-0.197 0.109-0.372 0.249-0.523 0.416-0.136 0.15-0.266 0.307-0.398 0.461-0.015 0.017-0.024 0.039-0.047 0.079 0.063-0.005 0.109-0.005 0.153-0.012 0.325-0.059 0.651-0.054 0.977-0.008 0.212 0.030 0.415 0.099 0.611 0.184 0.177 0.076 0.317 0.208 0.456 0.334 0.102 0.091 0.091 0.241-0.003 0.344-0.053 0.058-0.122 0.088-0.196 0.108-0.268 0.074-0.539 0.143-0.805 0.226-0.624 0.194-1.2 0.48-1.701 0.907-0.111 0.094-0.22 0.187-0.329 0.282-0.018 0.016-0.033 0.034-0.059 0.060 0.027 0.017 0.047 0.034 0.070 0.043 0.543 0.238 0.993 0.588 1.303 1.101 0.018 0.029 0.035 0.060 0.046 0.091 0.054 0.156-0.045 0.307-0.209 0.319-0.041 0.003-0.082-0.002-0.123-0.009-0.519-0.097-1.042-0.152-1.569-0.165-0.174-0.005-0.349 0.029-0.522 0.047-0.063 0.007-0.126 0.019-0.211 0.033 0.036 0.043 0.055 0.070 0.079 0.093 0.138 0.13 0.277 0.257 0.414 0.389 0.108 0.105 0.217 0.212 0.318 0.324 0.098 0.108 0.152 0.235 0.139 0.386-0.018 0.2-0.191 0.337-0.389 0.301-0.058-0.010-0.114-0.027-0.168-0.047-0.29-0.107-0.593-0.151-0.898-0.182-0.284-0.027-0.57-0.037-0.855-0.056-0.157-0.010-0.308 0.009-0.459 0.051-0.245 0.068-0.492 0.127-0.738 0.194-0.038 0.010-0.077 0.030-0.109 0.054-0.183 0.132-0.328 0.302-0.474 0.473-0.14 0.166-0.277 0.334-0.421 0.495-0.279 0.314-0.559 0.626-0.843 0.935-0.112 0.122-0.233 0.233-0.35 0.351-0.021 0.021-0.041 0.043-0.070 0.073 0.035 0.012 0.055 0.021 0.077 0.027 0.053 0.015 0.108 0.024 0.16 0.041 0.25 0.083 0.509 0.121 0.77 0.139 0.213 0.015 0.426 0.028 0.638 0.041 0.323 0.018 0.634 0.086 0.925 0.23 0.052 0.026 0.107 0.047 0.16 0.071 0.327 0.141 0.59 0.36 0.803 0.645 0.232 0.311 0.455 0.63 0.673 0.952 0.112 0.165 0.255 0.306 0.377 0.464 0.116 0.151 0.255 0.279 0.399 0.402 0.231 0.197 0.479 0.367 0.774 0.464 0.353 0.116 0.7 0.249 1.050 0.374 0.171 0.061 0.237 0.197 0.174 0.369-0.017 0.045-0.042 0.087-0.067 0.127-0.354 0.57-0.709 1.139-1.066 1.708-0.088 0.14-0.187 0.272-0.276 0.411-0.069 0.107-0.129 0.219-0.195 0.327-0.094 0.152-0.187 0.306-0.286 0.453-0.071 0.106-0.177 0.135-0.3 0.105-0.277-0.068-0.555-0.134-0.832-0.201-0.186-0.044-0.36-0.117-0.52-0.221-0.196-0.127-0.391-0.257-0.585-0.388-0.126-0.085-0.237-0.187-0.341-0.299-0.099-0.108-0.218-0.202-0.312-0.314-0.335-0.396-0.606-0.835-0.836-1.298-0.085-0.171-0.186-0.329-0.316-0.469-0.141-0.152-0.307-0.264-0.512-0.311-0.349-0.079-0.697-0.16-1.046-0.242-0.298-0.071-0.598-0.136-0.891-0.222-0.17-0.050-0.334-0.129-0.493-0.209-0.085-0.042-0.158-0.109-0.233-0.169-0.18-0.142-0.362-0.285-0.54-0.432q-0.083-0.069-0.173 0c-0.155 0.12-0.311 0.238-0.47 0.352-0.151 0.108-0.301 0.219-0.462 0.31-0.182 0.104-0.369 0.201-0.564 0.277-0.57 0.224-1.145 0.436-1.717 0.654-0.183 0.070-0.369 0.109-0.565 0.097-0.413-0.026-0.546-0.342-0.523-0.61 0.005-0.051 0.012-0.103 0.023-0.153 0.010-0.050-0.003-0.086-0.042-0.118-0.413-0.356-0.614-0.828-0.725-1.347-0.044-0.205-0.091-0.411-0.087-0.623 0.001-0.065 0.001-0.131 0.010-0.195 0.012-0.099 0.063-0.175 0.161-0.209 0.097-0.034 0.186-0.009 0.256 0.063 0.054 0.056 0.105 0.12 0.147 0.186 0.245 0.389 0.562 0.712 0.908 1.008 0.015 0.012 0.034 0.020 0.062 0.037 0.010-0.030 0.023-0.054 0.026-0.079 0.007-0.054 0.006-0.111 0.015-0.165 0.009-0.058 0.018-0.117 0.042-0.169 0.064-0.145 0.208-0.202 0.351-0.133 0.099 0.047 0.191 0.111 0.285 0.166 0.035 0.020 0.070 0.039 0.118 0.067 0.009-0.037 0.018-0.062 0.020-0.087 0.005-0.069 0.002-0.138 0.008-0.206 0.003-0.047 0.010-0.096 0.023-0.142 0.049-0.175 0.192-0.246 0.361-0.179 0.141 0.056 0.28 0.116 0.42 0.175 0.032 0.012 0.063 0.024 0.113 0.042-0.002-0.054 0.002-0.094-0.006-0.13-0.052-0.244-0.146-0.473-0.257-0.695-0.071-0.141-0.133-0.286-0.195-0.432-0.034-0.078-0.038-0.16-0.016-0.244 0.037-0.142 0.152-0.219 0.297-0.192 0.071 0.014 0.139 0.039 0.209 0.059 0.035 0.010 0.071 0.016 0.107 0.024 0.005-0.006 0.010-0.011 0.015-0.017-0.016-0.028-0.028-0.059-0.047-0.083-0.086-0.114-0.141-0.244-0.191-0.376-0.036-0.097-0.081-0.189-0.121-0.284-0.038-0.096-0.077-0.191-0.111-0.289-0.016-0.046-0.028-0.094-0.074-0.12-0.249-0.142-0.47-0.323-0.695-0.5-0.024-0.019-0.063-0.033-0.091-0.028-0.063 0.012-0.088 0.065-0.058 0.126 0.1 0.208 0.14 0.431 0.191 0.652 0.047 0.21 0.059 0.422 0.049 0.636-0.015 0.327-0.054 0.651-0.124 0.971-0.034 0.152-0.082 0.298-0.162 0.433-0.063 0.106-0.149 0.173-0.279 0.157-0.126-0.016-0.205-0.091-0.242-0.21-0.021-0.069-0.039-0.139-0.054-0.21-0.041-0.187-0.109-0.361-0.211-0.523-0.116-0.187-0.221-0.381-0.342-0.565-0.113-0.173-0.241-0.335-0.363-0.501-0.011-0.016-0.030-0.024-0.056-0.043-0.021 0.037-0.042 0.068-0.059 0.1-0.115 0.215-0.229 0.431-0.346 0.646-0.032 0.058-0.067 0.113-0.106 0.165-0.132 0.169-0.346 0.178-0.492 0.023-0.117-0.126-0.224-0.261-0.306-0.414-0.117-0.222-0.237-0.443-0.355-0.664-0.010-0.018-0.021-0.037-0.025-0.056-0.020-0.107-0.1-0.167-0.179-0.233-0.038 0.033-0.020 0.072-0.018 0.107 0.010 0.182 0.024 0.364 0.033 0.546 0.010 0.201-0.015 0.398-0.055 0.594-0.005 0.020-0.009 0.041-0.016 0.060-0.068 0.21-0.295 0.28-0.462 0.136-0.112-0.096-0.212-0.206-0.317-0.31-0.036-0.036-0.070-0.077-0.106-0.113-0.018-0.018-0.042-0.030-0.080-0.059 0.003 0.054 0.001 0.089 0.009 0.121 0.030 0.127 0.065 0.253 0.095 0.38 0.045 0.197 0.089 0.396 0.132 0.594 0.024 0.111 0.043 0.222 0.071 0.333 0.030 0.121 0.011 0.227-0.085 0.31-0.083 0.072-0.182 0.088-0.279 0.039-0.067-0.033-0.133-0.076-0.186-0.127-0.098-0.096-0.192-0.197-0.276-0.306-0.21-0.265-0.397-0.545-0.552-0.846-0.027-0.052-0.056-0.103-0.090-0.151-0.126-0.183-0.208-0.386-0.283-0.594-0.124-0.341-0.124-0.68-0.039-1.025 0.018-0.072 0.015-0.135-0.020-0.198-0.028-0.051-0.055-0.103-0.086-0.153-0.155-0.256-0.271-0.527-0.325-0.821-0.051-0.274-0.096-0.548-0.142-0.823-0.008-0.047-0.009-0.096-0.006-0.144 0.006-0.072-0.027-0.114-0.088-0.148-0.194-0.113-0.397-0.125-0.608-0.063-0.082 0.025-0.162 0.058-0.243 0.088-0.162 0.062-0.329 0.080-0.496 0.035-0.156-0.042-0.308-0.098-0.459-0.152-0.044-0.016-0.085-0.046-0.122-0.077-0.199-0.165-0.397-0.329-0.591-0.5-0.16-0.141-0.298-0.188-0.547-0.058-0.054 0.028-0.105 0.067-0.158 0.098-0.064 0.039-0.134 0.053-0.208 0.033-0.145-0.041-0.214-0.206-0.139-0.341 0.017-0.029 0.038-0.058 0.064-0.080 0.237-0.197 0.508-0.301 0.82-0.273 0.171 0.016 0.311 0.106 0.441 0.211 0.189 0.155 0.373 0.315 0.561 0.473 0.151 0.127 0.332 0.178 0.523 0.194 0.053 0.005 0.108-0.015 0.16-0.030 0.072-0.023 0.142-0.053 0.213-0.078 0.288-0.096 0.574-0.099 0.859 0.009 0.019 0.008 0.038 0.014 0.059 0.019 0.006 0.002 0.014 0 0.036-0.002 0.012-0.042 0.029-0.089 0.041-0.138 0.010-0.044-0.020-0.068-0.053-0.091-0.056-0.039-0.113-0.079-0.166-0.123-0.115-0.097-0.204-0.213-0.266-0.351-0.035-0.079-0.070-0.157-0.108-0.235-0.067-0.134-0.175-0.212-0.326-0.217-0.127-0.005-0.254 0.002-0.381 0-0.2-0.003-0.399 0-0.597-0.020-0.111-0.011-0.224-0.047-0.324-0.097-0.168-0.085-0.329-0.186-0.488-0.289-0.141-0.091-0.241-0.222-0.321-0.37-0.139-0.254-0.231-0.521-0.266-0.809-0.003-0.027-0.008-0.055-0.007-0.082 0.002-0.121 0.079-0.214 0.192-0.236 0.108-0.021 0.215 0.032 0.261 0.139 0.024 0.056 0.042 0.117 0.048 0.178 0.025 0.202 0.1 0.385 0.194 0.563 0.051 0.097 0.115 0.18 0.208 0.238 0.125 0.078 0.252 0.157 0.382 0.224 0.069 0.035 0.15 0.058 0.227 0.063 0.165 0.011 0.329 0.007 0.494 0.009 0.155 0.002 0.31-0.006 0.464 0.008 0.275 0.024 0.487 0.162 0.629 0.397 0.061 0.099 0.105 0.209 0.155 0.315 0.046 0.099 0.114 0.18 0.202 0.244 0.067 0.047 0.089 0.045 0.135-0.020 0.048-0.067 0.118-0.131 0.132-0.205 0.012-0.069-0.038-0.148-0.058-0.223-0.051-0.196-0.099-0.394-0.149-0.59-0.021-0.083-0.039-0.167-0.062-0.25-0.028-0.105-0.097-0.173-0.199-0.208-0.045-0.015-0.092-0.029-0.14-0.034-0.15-0.016-0.301-0.028-0.452-0.042s-0.302-0.025-0.452-0.042c-0.174-0.019-0.333-0.083-0.484-0.168-0.311-0.174-0.47-0.453-0.55-0.788-0.043-0.176-0.045-0.354-0.017-0.533 0.004-0.030 0.011-0.061 0.023-0.090 0.042-0.108 0.142-0.169 0.252-0.156s0.194 0.097 0.205 0.213c0.006 0.054 0 0.109-0.006 0.165-0.011 0.118 0.002 0.232 0.033 0.347 0.082 0.31 0.296 0.47 0.599 0.523 0.129 0.023 0.259 0.028 0.39 0.041 0.175 0.016 0.35 0.027 0.524 0.045 0.071 0.008 0.142 0.025 0.211 0.047 0.279 0.091 0.466 0.274 0.538 0.562 0.052 0.206 0.099 0.415 0.15 0.623 0.009 0.038 0.024 0.077 0.042 0.13 0.039-0.028 0.067-0.045 0.091-0.067 0.221-0.191 0.442-0.382 0.663-0.573 0.062-0.054 0.129-0.104 0.194-0.153 0.035-0.026 0.056-0.056 0.059-0.103 0.012-0.196 0.026-0.391 0.041-0.587 0.012-0.159 0.003-0.317-0.030-0.473-0.052-0.239-0.122-0.473-0.236-0.691-0.133-0.253-0.336-0.423-0.598-0.528-0.266-0.106-0.515-0.245-0.76-0.393-0.258-0.156-0.446-0.374-0.587-0.637-0.039-0.072-0.085-0.142-0.125-0.213-0.020-0.036-0.042-0.072-0.053-0.111-0.027-0.098-0.001-0.185 0.074-0.253 0.072-0.065 0.158-0.080 0.25-0.049 0.029 0.010 0.055 0.027 0.082 0.042 0.124 0.067 0.246 0.139 0.372 0.198 0.158 0.076 0.32 0.143 0.482 0.212 0.062 0.027 0.127 0.047 0.204 0.055-0.010-0.018-0.018-0.038-0.030-0.054-0.077-0.097-0.155-0.194-0.231-0.29-0.026-0.032-0.051-0.067-0.080-0.094-0.174-0.164-0.309-0.359-0.452-0.548-0.157-0.208-0.283-0.429-0.403-0.658-0.122-0.233-0.218-0.474-0.302-0.722-0.142-0.413-0.293-0.823-0.441-1.234-0.015-0.042-0.030-0.085-0.035-0.129-0.011-0.105 0.029-0.189 0.121-0.244s0.186-0.049 0.272 0.011c0.036 0.025 0.068 0.060 0.094 0.095 0.124 0.168 0.275 0.307 0.439 0.434 0.261 0.204 0.513 0.417 0.727 0.67 0.12 0.142 0.232 0.291 0.332 0.447 0.068 0.106 0.106 0.231 0.159 0.346 0.014 0.029 0.030 0.056 0.046 0.085 0.009-0.002 0.018-0.005 0.027-0.007 0-0.035 0.003-0.071 0-0.106-0.009-0.092-0.018-0.185-0.030-0.277-0.039-0.298-0.032-0.597-0.039-0.896-0.005-0.187-0.037-0.377-0.082-0.559-0.050-0.2-0.126-0.393-0.194-0.588-0.072-0.209-0.148-0.415-0.219-0.624-0.052-0.151 0.008-0.291 0.142-0.343 0.112-0.043 0.226-0.005 0.31 0.101 0.095 0.117 0.186 0.239 0.289 0.35 0.17 0.184 0.347 0.362 0.523 0.541 0.174 0.176 0.35 0.351 0.526 0.524 0.028 0.028 0.061 0.052 0.108 0.094 0.006-0.051 0.011-0.079 0.010-0.107-0.010-0.275-0.021-0.55-0.033-0.824-0.002-0.049-0.006-0.096-0.005-0.144 0.006-0.125 0.070-0.212 0.174-0.241s0.208 0.010 0.276 0.113c0.069 0.103 0.127 0.212 0.196 0.315 0.138 0.205 0.28 0.409 0.421 0.612 0.015 0.021 0.037 0.038 0.068 0.070 0.009-0.041 0.017-0.065 0.018-0.090 0.006-0.096 0.010-0.193 0.015-0.289 0.007-0.151 0.047-0.291 0.122-0.423 0.143-0.255 0.283-0.511 0.46-0.747 0.194-0.258 0.292-0.559 0.343-0.875 0.015-0.094 0.006-0.192 0.001-0.288-0.006-0.134-0.021-0.267-0.024-0.402-0.003-0.146-0.020-0.289-0.071-0.425-0.068-0.184-0.111-0.377-0.213-0.547-0.017-0.028-0.027-0.064-0.033-0.097-0.017-0.096 0.010-0.178 0.089-0.238s0.168-0.068 0.253-0.019c0.061 0.035 0.116 0.085 0.166 0.136 0.090 0.095 0.171 0.197 0.261 0.293 0.039 0.042 0.086 0.080 0.134 0.111 0.067 0.039 0.089 0.027 0.109-0.047 0.052-0.193 0.103-0.386 0.157-0.577 0.085-0.301 0.16-0.606 0.257-0.903 0.133-0.406 0.312-0.794 0.539-1.158 0.162-0.261 0.338-0.511 0.528-0.751 0.065-0.083 0.124-0.174 0.171-0.268 0.122-0.244 0.261-0.477 0.415-0.702 0.101-0.148 0.196-0.299 0.296-0.449 0.106-0.16 0.209-0.325 0.323-0.479 0.158-0.215 0.268-0.457 0.402-0.686 0.138-0.238 0.272-0.478 0.408-0.717 0.018-0.033 0.042-0.064 0.069-0.089 0.142-0.132 0.365-0.063 0.4 0.129 0.011 0.064 0.001 0.139-0.018 0.202-0.064 0.21-0.135 0.418-0.209 0.626-0.059 0.167-0.096 0.337-0.113 0.513-0.020 0.205-0.039 0.412-0.053 0.617-0.016 0.257 0.012 0.506 0.122 0.746 0.167 0.363 0.305 0.738 0.422 1.119 0.043 0.138 0.079 0.277 0.12 0.416 0.007 0.021 0.017 0.042 0.034 0.082 0.027-0.047 0.044-0.079 0.062-0.111 0.065-0.113 0.164-0.162 0.273-0.14s0.184 0.111 0.193 0.238c0.006 0.079-0.008 0.158-0.005 0.237 0.026 0.573-0.049 1.141-0.070 1.711-0.006 0.15 0.012 0.302 0.021 0.453 0 0.019 0.011 0.038 0.024 0.074 0.033-0.030 0.059-0.048 0.078-0.073 0.159-0.2 0.316-0.399 0.474-0.599 0.062-0.078 0.124-0.156 0.189-0.231 0.277-0.319 0.556-0.638 0.835-0.956 0.047-0.054 0.095-0.109 0.149-0.157 0.105-0.090 0.228-0.097 0.323-0.027 0.094 0.069 0.125 0.192 0.069 0.317-0.073 0.164-0.155 0.323-0.231 0.484-0.139 0.293-0.247 0.598-0.319 0.915-0.059 0.254-0.083 0.51-0.015 0.767 0.007 0.027 0.015 0.053 0.023 0.079 0.003 0.009 0.010 0.017 0.025 0.042 0.024-0.046 0.042-0.078 0.055-0.112 0.255-0.605 0.624-1.122 1.157-1.515 0.296-0.218 0.521-0.497 0.707-0.812 0.028-0.047 0.054-0.097 0.088-0.14 0.067-0.082 0.155-0.115 0.258-0.083 0.103 0.032 0.167 0.107 0.167 0.212 0 0.12-0.006 0.242-0.035 0.358-0.061 0.247-0.13 0.493-0.212 0.733-0.105 0.306-0.167 0.617-0.175 0.94-0.003 0.124 0.012 0.245 0.050 0.389 0.032-0.044 0.051-0.065 0.064-0.091 0.168-0.321 0.395-0.605 0.599-0.902 0.115-0.168 0.262-0.31 0.423-0.435 0.1-0.078 0.203-0.153 0.306-0.228 0.16-0.116 0.335-0.205 0.528-0.253 0.391-0.098 0.768-0.242 1.139-0.398 0.13-0.054 0.256-0.12 0.376-0.192 0.315-0.191 0.628-0.383 0.936-0.585 0.105-0.069 0.198-0.158 0.286-0.25 0.38-0.398 0.753-0.803 1.134-1.201 0.121-0.126 0.219-0.264 0.292-0.422 0.012-0.028 0.026-0.056 0.042-0.083 0.069-0.115 0.192-0.162 0.31-0.121 0.116 0.041 0.183 0.155 0.164 0.289-0.007 0.047-0.018 0.096-0.035 0.14-0.097 0.248-0.145 0.506-0.184 0.77-0.036 0.247-0.109 0.49-0.17 0.733-0.056 0.227-0.127 0.451-0.177 0.679-0.106 0.483-0.293 0.929-0.563 1.344-0.159 0.245-0.302 0.5-0.45 0.751-0.044 0.074-0.085 0.151-0.116 0.23-0.087 0.217-0.219 0.404-0.355 0.59-0.25 0.341-0.484 0.695-0.677 1.073-0.019 0.037-0.030 0.079-0.050 0.129zM4.526 19.867c0.007 0.009 0.012 0.017 0.019 0.026 0.032-0.009 0.064-0.017 0.095-0.027 0.184-0.058 0.371-0.1 0.564-0.118 0.592-0.054 1.182-0.049 1.772 0.018 0.424 0.049 0.848 0.097 1.255 0.236 0.197 0.068 0.382 0.155 0.544 0.289 0.095 0.079 0.17 0.176 0.187 0.3 0.029 0.212 0.012 0.418-0.095 0.611-0.088 0.157-0.191 0.303-0.319 0.43-0.223 0.221-0.459 0.427-0.732 0.585-0.276 0.16-0.503 0.383-0.755 0.575-0.042 0.032-0.051 0.065-0.027 0.116 0.090 0.193 0.233 0.308 0.449 0.335 0.367 0.046 0.729 0.032 1.085-0.067 0.219-0.061 0.435-0.131 0.651-0.198 0.045-0.015 0.090-0.035 0.131-0.060 0.151-0.088 0.3-0.183 0.452-0.268 0.275-0.156 0.521-0.345 0.732-0.582 0.038-0.044 0.083-0.082 0.125-0.123 0.183-0.176 0.348-0.368 0.546-0.528 0.008-0.007 0.014-0.015 0.020-0.023 0.162-0.183 0.326-0.364 0.486-0.549 0.338-0.39 0.698-0.76 1.075-1.113 0.165-0.153 0.311-0.32 0.444-0.501 0.083-0.114 0.17-0.224 0.259-0.334 0.22-0.268 0.45-0.53 0.663-0.804 0.292-0.374 0.571-0.759 0.859-1.136 0.074-0.098 0.15-0.202 0.247-0.275 0.166-0.127 0.346-0.237 0.524-0.346 0.168-0.103 0.359-0.136 0.552-0.159 0.297-0.035 0.593-0.029 0.879 0.065 0.275 0.091 0.506 0.247 0.637 0.521 0.169 0.355 0.281 0.725 0.264 1.125-0.008 0.186-0.014 0.372-0.035 0.556-0.042 0.351-0.126 0.688-0.299 1.003-0.131 0.238-0.242 0.486-0.364 0.73-0.035 0.071-0.072 0.141-0.109 0.21-0.060 0.112-0.123 0.222-0.18 0.336-0.118 0.238-0.209 0.486-0.284 0.741-0.052 0.175-0.113 0.347-0.173 0.519-0.087 0.247-0.182 0.491-0.264 0.739-0.153 0.465-0.323 0.923-0.523 1.368-0.014 0.030-0.025 0.061-0.045 0.114 0.038-0.021 0.058-0.027 0.071-0.039 0.051-0.046 0.103-0.091 0.149-0.142 0.397-0.439 0.793-0.879 1.189-1.318 0.044-0.049 0.080-0.104 0.124-0.152 0.198-0.219 0.387-0.45 0.602-0.651 0.273-0.256 0.57-0.487 0.856-0.73 0.076-0.064 0.15-0.131 0.227-0.195 0.034-0.028 0.069-0.058 0.108-0.078 0.194-0.097 0.389-0.192 0.583-0.286 0.328-0.161 0.674-0.256 1.038-0.289 0.148-0.014 0.293-0.039 0.441-0.053 0.16-0.015 0.323-0.037 0.483-0.030 0.306 0.012 0.611 0.042 0.916 0.063 0.033 0.002 0.065 0.005 0.098 0.006 0.003-0.008 0.007-0.016 0.011-0.024-0.023-0.023-0.043-0.049-0.068-0.068-0.27-0.2-0.546-0.386-0.882-0.456-0.068-0.014-0.135-0.026-0.202-0.041-0.208-0.046-0.279-0.259-0.142-0.422 0.019-0.024 0.043-0.044 0.067-0.064 0.257-0.213 0.514-0.425 0.771-0.638 0.319-0.265 0.669-0.483 1.046-0.659 0.335-0.157 0.677-0.291 1.037-0.376 0.041-0.010 0.080-0.027 0.121-0.041 0-0.009 0-0.017 0-0.026-0.036-0.015-0.072-0.033-0.109-0.045-0.262-0.088-0.535-0.111-0.805-0.087-0.315 0.028-0.627 0.082-0.941 0.124-0.064 0.009-0.13 0.020-0.194 0.018-0.107-0.003-0.194-0.050-0.238-0.153s-0.012-0.195 0.059-0.276c0.047-0.054 0.099-0.105 0.147-0.16 0.192-0.226 0.381-0.452 0.573-0.678 0.242-0.285 0.513-0.537 0.846-0.716 0.099-0.054 0.195-0.117 0.291-0.177 0.020-0.012 0.036-0.033 0.054-0.050-0.046-0.018-0.082-0.020-0.12-0.018-0.255 0.012-0.509 0.027-0.764 0.036-0.113 0.005-0.228 0.006-0.34-0.009-0.214-0.027-0.296-0.235-0.166-0.407 0.018-0.025 0.038-0.049 0.062-0.069 0.096-0.083 0.189-0.169 0.291-0.246 0.131-0.099 0.246-0.211 0.327-0.354 0.099-0.174 0.195-0.348 0.289-0.524 0.158-0.298 0.314-0.597 0.468-0.896 0.009-0.017 0.011-0.036 0.020-0.070-0.046 0.011-0.079 0.018-0.109 0.027-0.33 0.097-0.629 0.253-0.907 0.458-0.177 0.131-0.361 0.256-0.557 0.353-0.483 0.241-0.976 0.465-1.446 0.731-0.056 0.032-0.12 0.056-0.182 0.070-0.127 0.028-0.247-0.043-0.286-0.162-0.036-0.108-0.009-0.205 0.073-0.283 0.043-0.039 0.091-0.073 0.139-0.107 0.608-0.437 1.094-0.976 1.445-1.643 0.203-0.386 0.451-0.749 0.759-1.065 0.018-0.019 0.032-0.042 0.047-0.063-0.046-0.009-0.086-0.003-0.122 0.011-0.261 0.099-0.514 0.212-0.752 0.362-0.219 0.138-0.442 0.266-0.643 0.431-0.010 0.009-0.023 0.016-0.035 0.023-0.112 0.064-0.236 0.053-0.325-0.029-0.086-0.080-0.108-0.198-0.053-0.312 0.030-0.062 0.068-0.12 0.105-0.177 0.085-0.132 0.144-0.273 0.177-0.426 0.019-0.091 0.042-0.182 0.064-0.272 0.050-0.198 0.123-0.387 0.229-0.562 0.165-0.272 0.352-0.527 0.59-0.741 0.056-0.051 0.109-0.105 0.164-0.158 0.023-0.023 0.042-0.050 0.063-0.074-0.039-0.008-0.069-0.002-0.095 0.010-0.081 0.037-0.164 0.072-0.242 0.115-0.208 0.111-0.426 0.191-0.652 0.255-0.115 0.033-0.224 0.086-0.335 0.132-0.076 0.032-0.148 0.076-0.226 0.101-0.238 0.079-0.396-0.043-0.385-0.293 0-0.007 0-0.014 0.001-0.020 0.010-0.275 0.099-0.526 0.229-0.765 0.202-0.373 0.431-0.729 0.683-1.069 0.12-0.161 0.229-0.325 0.309-0.511 0.055-0.13 0.125-0.253 0.197-0.374 0.166-0.281 0.338-0.559 0.506-0.839 0.165-0.273 0.277-0.568 0.358-0.876 0.076-0.293 0.152-0.587 0.228-0.88 0.034-0.13 0.065-0.261 0.096-0.391 0.005-0.020 0-0.043 0-0.087-0.045 0.044-0.074 0.071-0.102 0.1-0.249 0.266-0.494 0.537-0.748 0.799-0.105 0.108-0.221 0.205-0.34 0.299-0.083 0.065-0.178 0.117-0.268 0.174-0.279 0.171-0.549 0.355-0.838 0.51-0.377 0.202-0.775 0.361-1.188 0.468-0.361 0.094-0.688 0.236-0.968 0.484-0.002 0.002-0.006 0.005-0.008 0.007-0.155 0.123-0.286 0.267-0.397 0.431-0.079 0.116-0.161 0.231-0.241 0.347-0.2 0.286-0.371 0.587-0.477 0.923-0.030 0.098-0.072 0.193-0.109 0.29-0.047 0.125-0.095 0.252-0.142 0.377-0.061 0.158-0.121 0.315-0.183 0.471-0.015 0.037-0.038 0.074-0.064 0.105-0.068 0.077-0.171 0.099-0.264 0.062s-0.151-0.125-0.145-0.228c0.002-0.044 0.015-0.088 0.029-0.13 0.021-0.062 0.047-0.122 0.074-0.182 0.132-0.288 0.15-0.591 0.114-0.9-0.017-0.14-0.037-0.28-0.065-0.418-0.091-0.434-0.052-0.863 0.056-1.288 0.008-0.032 0.014-0.063 0.024-0.112-0.035 0.015-0.052 0.018-0.064 0.027-0.231 0.169-0.447 0.353-0.623 0.583-0.263 0.343-0.451 0.723-0.598 1.126-0.058 0.158-0.1 0.321-0.152 0.482-0.014 0.042-0.030 0.086-0.058 0.12-0.105 0.139-0.314 0.124-0.399-0.027-0.020-0.035-0.036-0.077-0.039-0.116-0.018-0.18-0.081-0.347-0.14-0.517-0.125-0.359-0.196-0.724-0.133-1.105 0.016-0.091 0.034-0.183 0.050-0.274 0.003-0.021 0-0.043 0-0.065-0.007-0.003-0.014-0.007-0.020-0.010-0.036 0.043-0.074 0.086-0.109 0.13-0.147 0.187-0.292 0.374-0.439 0.562-0.133 0.17-0.273 0.337-0.398 0.513-0.087 0.123-0.16 0.256-0.232 0.389-0.073 0.136-0.136 0.279-0.206 0.416-0.021 0.043-0.049 0.085-0.080 0.12-0.082 0.088-0.21 0.105-0.312 0.047-0.099-0.056-0.149-0.169-0.12-0.283 0.012-0.046 0.033-0.090 0.054-0.133 0.062-0.127 0.121-0.255 0.189-0.379 0.095-0.173 0.117-0.358 0.103-0.549-0.005-0.055-0.011-0.109-0.018-0.165-0.042-0.311-0.055-0.624-0.025-0.937 0.019-0.205 0.027-0.412 0.039-0.618 0.002-0.035-0.002-0.071-0.003-0.106-0.008-0.002-0.015-0.005-0.023-0.007-0.027 0.025-0.054 0.050-0.081 0.074-0.264 0.241-0.522 0.489-0.793 0.723-0.189 0.164-0.348 0.352-0.487 0.557-0.060 0.089-0.099 0.196-0.134 0.299-0.046 0.136-0.074 0.28-0.118 0.417-0.067 0.206-0.306 0.256-0.452 0.097-0.025-0.027-0.045-0.061-0.064-0.093-0.058-0.094-0.114-0.188-0.173-0.282-0.014-0.021-0.033-0.038-0.064-0.073-0.007 0.055-0.012 0.088-0.015 0.121-0.012 0.165-0.023 0.329-0.036 0.494-0.026 0.307-0.117 0.592-0.275 0.857-0.050 0.082-0.094 0.169-0.13 0.257-0.030 0.076-0.046 0.158-0.069 0.237-0.033 0.117-0.123 0.193-0.236 0.198s-0.21-0.062-0.254-0.175c-0.009-0.023-0.015-0.046-0.020-0.069-0.151-0.629-0.506-1.138-0.949-1.595-0.017-0.017-0.035-0.034-0.056-0.045-0.018-0.010-0.041-0.015-0.079-0.028 0.012 0.214 0.018 0.413 0.038 0.61 0.017 0.162 0.014 0.323-0.010 0.483-0.027 0.189-0.103 0.363-0.162 0.543-0.059 0.176-0.143 0.336-0.256 0.48-0.164 0.21-0.289 0.444-0.42 0.674-0.048 0.086-0.076 0.176-0.080 0.275-0.011 0.262-0.025 0.522 0.005 0.784 0.010 0.089 0.011 0.178 0.012 0.268 0.001 0.074-0.019 0.143-0.065 0.203-0.094 0.123-0.259 0.136-0.371 0.029-0.020-0.019-0.039-0.039-0.053-0.063-0.167-0.288-0.4-0.526-0.588-0.796-0.012-0.017-0.032-0.029-0.063-0.056 0.002 0.068 0 0.116 0.005 0.162 0.011 0.126 0.038 0.254 0.033 0.38-0.007 0.126 0.045 0.206 0.138 0.279 0.187 0.147 0.36 0.31 0.517 0.489 0.083 0.096 0.162 0.197 0.254 0.285 0.109 0.105 0.219 0.208 0.277 0.353 0.010 0.025 0.032 0.045 0.047 0.067 0.184 0.256 0.327 0.533 0.42 0.836 0.026 0.086 0.043 0.174 0.070 0.259 0.052 0.167 0.070 0.336 0.059 0.51-0.012 0.206-0.023 0.413-0.038 0.618-0.003 0.054-0.019 0.108-0.032 0.161-0.045 0.187-0.092 0.374-0.138 0.561-0.026 0.107-0.045 0.215-0.078 0.32-0.061 0.197-0.132 0.391-0.195 0.588-0.019 0.059-0.029 0.121-0.033 0.183-0.018 0.285-0.033 0.571-0.049 0.856-0.002 0.036 0.002 0.071 0.005 0.107 0.030-0.016 0.045-0.034 0.054-0.054 0.177-0.424 0.416-0.815 0.66-1.202 0.143-0.227 0.299-0.445 0.478-0.646 0.147-0.165 0.289-0.332 0.433-0.499 0.074-0.086 0.141-0.18 0.224-0.255 0.286-0.257 0.58-0.508 0.871-0.76 0.016-0.014 0.033-0.025 0.050-0.037 0.244-0.167 0.488-0.334 0.732-0.502 0.249-0.173 0.492-0.353 0.674-0.601 0.283-0.386 0.541-0.788 0.774-1.207 0.046-0.083 0.085-0.173 0.12-0.263 0.095-0.244 0.183-0.489 0.279-0.733 0.108-0.279 0.167-0.567 0.189-0.864 0.012-0.171 0.026-0.342 0.002-0.515-0.018-0.129 0.060-0.236 0.175-0.272 0.118-0.036 0.24 0.017 0.305 0.133 0.007 0.012 0.014 0.025 0.018 0.037 0.050 0.153 0.106 0.306 0.146 0.462 0.070 0.273 0.141 0.546 0.248 0.809 0.060 0.149 0.103 0.307 0.136 0.465 0.045 0.212 0.072 0.427 0.108 0.642 0.006 0.032 0.014 0.063 0.025 0.115 0.035-0.036 0.056-0.055 0.077-0.078 0.079-0.087 0.156-0.175 0.235-0.261 0.167-0.183 0.339-0.361 0.501-0.548 0.206-0.238 0.344-0.513 0.4-0.826 0.010-0.058 0.027-0.115 0.051-0.167 0.047-0.103 0.148-0.157 0.252-0.143s0.188 0.089 0.21 0.2c0.010 0.053 0.011 0.109 0.006 0.164-0.008 0.082-0.025 0.164-0.036 0.245-0.064 0.47-0.129 0.941-0.193 1.411-0.002 0.020-0.008 0.041-0.008 0.061 0 0.021 0.005 0.043 0.009 0.077 0.033-0.024 0.055-0.038 0.076-0.055 0.254-0.21 0.535-0.378 0.839-0.501 0.149-0.060 0.308-0.104 0.466-0.13 0.22-0.036 0.444-0.064 0.667-0.069 0.388-0.007 0.777 0.009 1.166 0.012 0.096 0 0.192-0.011 0.288-0.017 0.069-0.005 0.138-0.017 0.205-0.011 0.111 0.008 0.191 0.080 0.214 0.179 0.025 0.099-0.012 0.197-0.105 0.259-0.045 0.030-0.096 0.055-0.145 0.078-0.292 0.13-0.582 0.265-0.862 0.422-0.48 0.27-0.849 0.65-1.135 1.115-0.082 0.135-0.153 0.276-0.229 0.416-0.010 0.019-0.012 0.042-0.020 0.071 0.028-0.005 0.045-0.006 0.061-0.011 0.239-0.078 0.473-0.169 0.687-0.305 0.072-0.046 0.147-0.090 0.224-0.127 0.118-0.056 0.241-0.036 0.325 0.047 0.085 0.085 0.102 0.2 0.036 0.324-0.046 0.088-0.103 0.17-0.158 0.254-0.265 0.402-0.504 0.814-0.571 1.303-0.003 0.024-0.009 0.047-0.016 0.071-0.008 0.026-0.016 0.053-0.028 0.078-0.050 0.099-0.152 0.149-0.257 0.129-0.104-0.020-0.183-0.106-0.189-0.215-0.003-0.044 0.001-0.090 0.009-0.133 0.060-0.323 0.134-0.641 0.306-0.926 0.017-0.027 0.027-0.059 0.047-0.107-0.047 0.008-0.073 0.009-0.097 0.017-0.078 0.027-0.155 0.059-0.233 0.083-0.262 0.085-0.523 0.168-0.786 0.252-0.016 0.006-0.034 0.008-0.051 0.010-0.142 0.020-0.257-0.030-0.307-0.136-0.052-0.109-0.021-0.219 0.096-0.319 0.195-0.168 0.354-0.365 0.486-0.584 0.053-0.088 0.102-0.179 0.15-0.271 0.308-0.581 0.739-1.049 1.299-1.395 0.025-0.015 0.046-0.034 0.069-0.052-0.002-0.008-0.003-0.016-0.006-0.024-0.053-0.003-0.107-0.012-0.159-0.009-0.271 0.018-0.543 0.038-0.813 0.060-0.241 0.019-0.462 0.1-0.672 0.218-0.072 0.041-0.142 0.083-0.214 0.125-0.194 0.111-0.36 0.255-0.492 0.434-0.123 0.165-0.274 0.308-0.358 0.503-0.042 0.096-0.153 0.134-0.255 0.116-0.104-0.019-0.186-0.1-0.203-0.208-0.006-0.037-0.006-0.076 0-0.113 0.039-0.262 0.080-0.523 0.121-0.785 0.024-0.157 0.046-0.314 0.069-0.47 0.005-0.032 0.002-0.064 0.003-0.117-0.036 0.028-0.055 0.039-0.071 0.056-0.115 0.118-0.233 0.233-0.344 0.356-0.097 0.107-0.187 0.22-0.275 0.334-0.080 0.103-0.153 0.212-0.232 0.316-0.061 0.080-0.113 0.164-0.141 0.262-0.008 0.026-0.017 0.052-0.029 0.077-0.058 0.122-0.174 0.18-0.296 0.151-0.117-0.029-0.194-0.132-0.192-0.261 0-0.030 0.007-0.062 0.009-0.092 0.009-0.086 0.018-0.171 0.025-0.257 0.036-0.459-0.047-0.906-0.139-1.351-0.019-0.097-0.062-0.189-0.096-0.283-0.008-0.020-0.026-0.036-0.043-0.060-0.014 0.019-0.023 0.029-0.027 0.042-0.113 0.299-0.222 0.6-0.339 0.898-0.063 0.16-0.129 0.319-0.212 0.469-0.229 0.413-0.484 0.81-0.766 1.188-0.122 0.162-0.248 0.324-0.414 0.443-0.332 0.24-0.669 0.473-1.002 0.711-0.109 0.078-0.215 0.16-0.318 0.246-0.153 0.129-0.302 0.261-0.451 0.394-0.1 0.089-0.202 0.177-0.292 0.276-0.142 0.155-0.275 0.316-0.411 0.477-0.108 0.129-0.22 0.256-0.321 0.39-0.239 0.317-0.442 0.656-0.632 1.004-0.212 0.388-0.379 0.794-0.497 1.219-0.003 0.014-0.008 0.026-0.014 0.039-0.071 0.174-0.284 0.218-0.416 0.083-0.030-0.032-0.054-0.071-0.076-0.109-0.178-0.311-0.242-0.649-0.229-1.003 0.005-0.124 0.015-0.247 0.021-0.371 0.001-0.029-0.003-0.058-0.006-0.111-0.043 0.037-0.070 0.058-0.093 0.081-0.249 0.273-0.532 0.509-0.814 0.744-0.166 0.139-0.347 0.261-0.548 0.347-0.202 0.087-0.377 0.211-0.535 0.363-0.058 0.055-0.114 0.111-0.177 0.158-0.299 0.224-0.565 0.483-0.805 0.767-0.039 0.046-0.074 0.096-0.112 0.144zM22.507 28.878c-0.033-0.017-0.055-0.032-0.080-0.042-0.252-0.094-0.501-0.192-0.755-0.279-0.177-0.061-0.342-0.144-0.497-0.247-0.511-0.335-0.925-0.769-1.263-1.273-0.214-0.32-0.434-0.637-0.669-0.943-0.097-0.126-0.202-0.247-0.341-0.327-0.354-0.205-0.721-0.374-1.139-0.392-0.22-0.009-0.44-0.026-0.66-0.042-0.299-0.021-0.594-0.064-0.882-0.158-0.062-0.020-0.127-0.026-0.192-0.037-0.3-0.053-0.593-0.126-0.854-0.291-0.213-0.135-0.398-0.303-0.564-0.495-0.239-0.276-0.457-0.568-0.663-0.87-0.065-0.096-0.122-0.201-0.168-0.307-0.227-0.518-0.437-1.041-0.582-1.588-0.021-0.080-0.047-0.158-0.074-0.237-0.007-0.020-0.023-0.037-0.045-0.071-0.017 0.049-0.029 0.079-0.039 0.111-0.035 0.108-0.065 0.218-0.103 0.325-0.077 0.223-0.286 0.306-0.497 0.195-0.052-0.027-0.103-0.055-0.152-0.087-0.151-0.096-0.305-0.187-0.476-0.245-0.033-0.011-0.062-0.034-0.095-0.003-0.035 0.032-0.039 0.069-0.024 0.113 0.067 0.188 0.074 0.383 0.067 0.581-0.012 0.308-0.076 0.608-0.127 0.909-0.029 0.17-0.003 0.326 0.077 0.479 0.050 0.094 0.092 0.193 0.127 0.293 0.045 0.127 0.104 0.247 0.186 0.354 0.219 0.288 0.408 0.596 0.588 0.909s0.365 0.624 0.573 0.92c0.31 0.444 0.673 0.835 1.127 1.137 0.252 0.168 0.518 0.298 0.815 0.361 0.266 0.056 0.532 0.112 0.796 0.174 0.298 0.070 0.594 0.147 0.892 0.219 0.209 0.051 0.391 0.151 0.554 0.289 0.202 0.17 0.37 0.372 0.488 0.608 0.167 0.333 0.352 0.654 0.561 0.963 0.125 0.187 0.262 0.361 0.43 0.512 0.054 0.049 0.099 0.106 0.152 0.155 0.088 0.081 0.174 0.168 0.271 0.237 0.174 0.124 0.352 0.241 0.533 0.354 0.093 0.058 0.192 0.114 0.296 0.143 0.242 0.067 0.488 0.115 0.733 0.171 0.054 0.012 0.095-0.008 0.122-0.054 0.042-0.071 0.083-0.142 0.124-0.214 0.044-0.078 0.083-0.159 0.131-0.233 0.164-0.255 0.332-0.506 0.494-0.762 0.254-0.402 0.503-0.805 0.755-1.208 0.019-0.030 0.033-0.065 0.053-0.105zM3.624 11.822c0.007 0.046 0.007 0.067 0.012 0.085 0.050 0.153 0.098 0.308 0.152 0.46 0.105 0.293 0.259 0.563 0.42 0.827 0.232 0.385 0.561 0.695 0.832 1.049 0.025 0.033 0.055 0.061 0.085 0.090 0.203 0.202 0.42 0.387 0.662 0.541 0.041 0.026 0.080 0.055 0.112 0.091 0.067 0.076 0.082 0.166 0.045 0.261s-0.109 0.149-0.211 0.159c-0.044 0.005-0.090 0.002-0.133-0.006-0.283-0.055-0.566-0.114-0.849-0.17-0.021-0.005-0.043-0.006-0.063-0.009 0.033 0.037 0.069 0.062 0.108 0.080 0.081 0.038 0.164 0.073 0.246 0.108 0.326 0.14 0.582 0.358 0.765 0.667 0.112 0.189 0.18 0.394 0.246 0.6 0.093 0.291 0.136 0.589 0.112 0.896-0.007 0.079-0.011 0.158-0.014 0.237 0 0.021 0.008 0.043 0.016 0.078 0.043-0.026 0.077-0.042 0.105-0.064 0.118-0.094 0.239-0.186 0.353-0.285 0.158-0.139 0.312-0.281 0.464-0.425 0.155-0.147 0.297-0.308 0.459-0.444 0.151-0.127 0.236-0.282 0.279-0.468 0.023-0.099 0.020-0.1-0.070-0.151-0.21-0.118-0.425-0.232-0.596-0.406-0.176-0.179-0.34-0.371-0.455-0.598-0.052-0.101-0.105-0.202-0.159-0.301-0.213-0.39-0.302-0.818-0.38-1.249-0.003-0.020-0.005-0.041-0.006-0.062-0.005-0.205 0.14-0.324 0.337-0.268 0.123 0.034 0.242 0.077 0.362 0.121 0.342 0.125 0.683 0.254 1.025 0.38 0.024 0.009 0.051 0.008 0.091 0.015-0.014-0.044-0.020-0.073-0.033-0.1-0.035-0.071-0.070-0.142-0.111-0.21-0.158-0.259-0.343-0.497-0.547-0.723-0.18-0.198-0.36-0.398-0.57-0.567-0.080-0.064-0.153-0.138-0.228-0.209-0.194-0.186-0.386-0.372-0.579-0.559-0.054-0.053-0.107-0.107-0.161-0.16-0.127-0.121-0.255-0.241-0.383-0.361-0.014-0.012-0.032-0.019-0.068-0.041 0.014 0.056 0.024 0.091 0.029 0.127 0.032 0.208 0.072 0.414 0.088 0.621 0.020 0.271 0.015 0.543 0.029 0.813 0.012 0.23 0.038 0.459 0.060 0.689 0.006 0.065 0.015 0.13 0.027 0.194 0.039 0.203 0.083 0.403 0.182 0.589 0.077 0.147-0.003 0.315-0.153 0.356-0.112 0.030-0.201-0.009-0.28-0.088-0.235-0.239-0.456-0.488-0.617-0.785-0.083-0.155-0.171-0.306-0.247-0.464-0.164-0.341-0.396-0.627-0.678-0.875-0.029-0.026-0.063-0.046-0.114-0.085zM12.163 1.881c-0.009-0.003-0.018-0.007-0.027-0.010-0.056 0.045-0.092 0.108-0.131 0.167-0.16 0.245-0.316 0.492-0.479 0.735-0.139 0.206-0.264 0.418-0.377 0.639-0.062 0.122-0.136 0.239-0.221 0.346-0.267 0.335-0.504 0.689-0.698 1.070-0.13 0.254-0.24 0.518-0.318 0.794-0.103 0.361-0.209 0.721-0.311 1.080-0.050 0.176-0.086 0.354-0.094 0.538-0.003 0.069 0.011 0.129 0.062 0.178 0.252 0.252 0.432 0.552 0.585 0.868 0.011 0.024 0.029 0.044 0.054 0.080 0.027-0.042 0.051-0.070 0.067-0.101 0.068-0.133 0.117-0.273 0.132-0.421 0.021-0.215 0.038-0.432 0.052-0.647 0.010-0.167-0.021-0.329-0.086-0.484-0.032-0.076-0.070-0.15-0.101-0.226-0.043-0.105-0.030-0.203 0.049-0.288 0.077-0.082 0.197-0.109 0.303-0.065 0.044 0.018 0.086 0.045 0.124 0.072 0.215 0.153 0.398 0.338 0.552 0.553 0.020 0.028 0.046 0.053 0.069 0.079 0.018-0.012 0.025-0.015 0.028-0.020 0.008-0.011 0.014-0.024 0.019-0.036 0.167-0.359 0.417-0.652 0.713-0.91 0.226-0.197 0.444-0.4 0.667-0.601 0.041-0.036 0.065-0.080 0.063-0.135-0.008-0.178-0.003-0.359-0.028-0.535-0.021-0.152-0.074-0.3-0.12-0.448-0.112-0.373-0.257-0.733-0.413-1.090-0.098-0.224-0.148-0.458-0.151-0.702-0.002-0.124 0.007-0.247 0.011-0.371 0.001-0.036 0.005-0.073 0.007-0.109zM14.157 22.8c0.008-0.002 0.016-0.003 0.024-0.006 0.005-0.023 0.010-0.045 0.012-0.068 0.008-0.109 0.009-0.22 0.023-0.329 0.034-0.265 0.252-0.376 0.489-0.258 0.139 0.068 0.283 0.124 0.426 0.182 0.079 0.032 0.127-0.011 0.114-0.095-0.005-0.026-0.019-0.051-0.028-0.077-0.019-0.055-0.043-0.108-0.058-0.165-0.027-0.106-0.051-0.214-0.073-0.321-0.020-0.097-0.045-0.195-0.055-0.293-0.018-0.182-0.041-0.363-0.005-0.545 0.030-0.153 0.112-0.231 0.267-0.238 0.103-0.005 0.205 0.010 0.308 0.017 0.076 0.005 0.151 0.015 0.226 0.011 0.077-0.003 0.089-0.025 0.077-0.099-0.005-0.027-0.014-0.053-0.018-0.080-0.025-0.149-0.053-0.298-0.071-0.448-0.017-0.14-0.023-0.281-0.035-0.422-0.010-0.106-0.026-0.212-0.034-0.318-0.011-0.152 0.054-0.265 0.194-0.317 0.065-0.024 0.141-0.030 0.212-0.029 0.131 0.002 0.261 0.005 0.39-0.025 0.239-0.053 0.261-0.068 0.289-0.314 0.051-0.442 0.044-0.885-0.001-1.329-0.009-0.083-0.043-0.166-0.072-0.246-0.032-0.087-0.073-0.17-0.105-0.257-0.015-0.041-0.033-0.062-0.078-0.065-0.258-0.017-0.501 0.026-0.709 0.191-0.056 0.045-0.126 0.080-0.166 0.135-0.090 0.125-0.17 0.259-0.169 0.424 0 0.049-0.005 0.096-0.009 0.144-0.021 0.215-0.041 0.431-0.068 0.646-0.030 0.244-0.13 0.462-0.257 0.669-0.033 0.052-0.076 0.098-0.118 0.142-0.089 0.090-0.196 0.105-0.315 0.062-0.083-0.030-0.152-0.079-0.204-0.151-0.034-0.047-0.067-0.097-0.104-0.141-0.026-0.032-0.058-0.061-0.091-0.082-0.043-0.028-0.082-0.007-0.089 0.043-0.002 0.017 0 0.034 0.002 0.051 0.021 0.157 0.045 0.314 0.062 0.47 0.010 0.099 0.016 0.198 0.011 0.298-0.011 0.272-0.126 0.513-0.241 0.751-0.060 0.124-0.21 0.173-0.347 0.126-0.047-0.016-0.091-0.047-0.135-0.073-0.097-0.058-0.194-0.118-0.292-0.175-0.020-0.011-0.047-0.012-0.081-0.020 0.007 0.039 0.008 0.064 0.015 0.086 0.079 0.241 0.161 0.483 0.24 0.724 0.072 0.222 0.139 0.447 0.215 0.668 0.123 0.351 0.253 0.698 0.381 1.047 0.012 0.034 0.034 0.065 0.051 0.098zM6.718 20.225c-0.492-0.051-0.984-0.029-1.474 0.010-0.254 0.020-0.492 0.095-0.718 0.211-0.109 0.056-0.185 0.14-0.239 0.247-0.117 0.232-0.094 0.452 0.065 0.633 0.052 0.059 0.063 0.062 0.132 0.028 0.059-0.028 0.117-0.059 0.175-0.089 0.161-0.087 0.333-0.117 0.51-0.076 0.15 0.035 0.301 0.076 0.442 0.136 0.382 0.165 0.564 0.474 0.599 0.88 0.007 0.081 0.009 0.095 0.089 0.116 0.113 0.029 0.228 0.053 0.342 0.074 0.168 0.032 0.27-0.061 0.261-0.233-0.003-0.052-0.012-0.103-0.016-0.153-0.007-0.093-0.014-0.185-0.015-0.277-0.002-0.149 0.055-0.276 0.156-0.382 0.069-0.072 0.146-0.138 0.226-0.196 0.34-0.25 0.708-0.359 1.126-0.223 0.060 0.019 0.079 0.007 0.097-0.055 0.038-0.133 0.012-0.208-0.106-0.28-0.055-0.034-0.113-0.070-0.175-0.089-0.191-0.059-0.38-0.125-0.575-0.16-0.298-0.053-0.599-0.082-0.899-0.122zM17.255 16.804c-0.006 0.005-0.012 0.008-0.018 0.012 0.005 0.025 0.009 0.051 0.015 0.076 0.025 0.124 0.061 0.248 0.072 0.373 0.038 0.425 0.043 0.852 0.001 1.278-0.015 0.155-0.039 0.309-0.108 0.449-0.122 0.246-0.247 0.491-0.381 0.731-0.129 0.232-0.264 0.46-0.317 0.724-0.008 0.036-0.024 0.072-0.038 0.106-0.28 0.628-0.549 1.261-0.782 1.908-0.009 0.026-0.019 0.052-0.030 0.077-0.211 0.459-0.409 0.926-0.732 1.323-0.034 0.042-0.034 0.080 0.001 0.12 0.073 0.081 0.147 0.164 0.223 0.244 0.017 0.018 0.044 0.028 0.069 0.045 0.017-0.021 0.034-0.036 0.042-0.053 0.114-0.242 0.239-0.482 0.337-0.73 0.141-0.359 0.264-0.724 0.39-1.087 0.161-0.461 0.317-0.924 0.477-1.385 0.032-0.091 0.068-0.18 0.107-0.268 0.134-0.298 0.273-0.592 0.434-0.878 0.143-0.255 0.268-0.519 0.399-0.78 0.032-0.064 0.054-0.134 0.077-0.202 0.121-0.376 0.141-0.764 0.133-1.153-0.006-0.273-0.097-0.526-0.22-0.767-0.019-0.036-0.044-0.070-0.072-0.1-0.021-0.024-0.051-0.039-0.077-0.059zM9.576 28.433c0.096-0.023 0.195-0.039 0.289-0.071 0.13-0.044 0.256-0.102 0.385-0.15 0.46-0.174 0.923-0.342 1.381-0.519 0.147-0.056 0.292-0.125 0.426-0.206 0.214-0.131 0.421-0.275 0.626-0.418 0.107-0.074 0.206-0.16 0.306-0.245 0.051-0.043 0.051-0.061 0.012-0.114-0.063-0.086-0.127-0.171-0.194-0.255-0.041-0.052-0.056-0.052-0.112-0.015-0.017 0.011-0.034 0.025-0.049 0.038-0.202 0.184-0.432 0.328-0.654 0.485-0.314 0.22-0.652 0.397-0.985 0.583-0.056 0.032-0.118 0.058-0.18 0.076-0.233 0.071-0.467 0.143-0.703 0.205-0.183 0.047-0.344 0.138-0.503 0.233-0.091 0.055-0.139 0.141-0.148 0.248-0.006 0.077 0.021 0.106 0.103 0.125zM4.364 21.98c0.005 0.036 0.003 0.063 0.011 0.086 0.035 0.090 0.068 0.18 0.111 0.266 0.093 0.184 0.192 0.365 0.288 0.548 0.061 0.115 0.146 0.205 0.255 0.279 0.173 0.117 0.365 0.157 0.566 0.167 0.321 0.016 0.572-0.118 0.764-0.372 0.017-0.023 0.025-0.052 0.041-0.088-0.046-0.014-0.078-0.024-0.111-0.034-0.148-0.047-0.295-0.091-0.441-0.144-0.217-0.078-0.432-0.159-0.645-0.246-0.117-0.047-0.232-0.104-0.342-0.167-0.149-0.086-0.291-0.183-0.436-0.274-0.014-0.009-0.032-0.011-0.061-0.021zM9.906 24.847c0.010-0.002 0.021-0.005 0.032-0.008 0.007-0.036 0.017-0.071 0.019-0.107 0.011-0.13 0.018-0.261 0.029-0.39 0.028-0.336-0.056-0.654-0.148-0.971-0.003-0.014-0.009-0.026-0.016-0.038-0.035-0.074-0.056-0.087-0.126-0.045-0.167 0.1-0.345 0.167-0.531 0.218-0.034 0.009-0.063 0.032-0.108 0.054 0.086 0.113 0.165 0.212 0.238 0.315 0.073 0.104 0.143 0.209 0.211 0.317 0.070 0.111 0.133 0.224 0.201 0.336 0.065 0.107 0.129 0.217 0.197 0.32zM21.079 21.665c0.002-0.008 0.006-0.016 0.008-0.024-0.007-0.011-0.012-0.024-0.021-0.032-0.227-0.21-0.457-0.417-0.654-0.656-0.035-0.042-0.081-0.051-0.131-0.033-0.074 0.027-0.15 0.052-0.221 0.083-0.271 0.121-0.529 0.264-0.773 0.432-0.032 0.021-0.059 0.051-0.102 0.088 0.651-0.002 1.276 0.033 1.895 0.141zM8.041 14.243c-0.085-0.058-0.174-0.097-0.28-0.035-0.208 0.122-0.344 0.292-0.369 0.538-0.007 0.065-0.008 0.131-0.012 0.195-0.009 0.116 0.032 0.217 0.096 0.309 0.058 0.082 0.379 0.289 0.492 0.318 0.010-0.019 0.021-0.038 0.030-0.060 0.043-0.101 0.032-0.177-0.065-0.257-0.237-0.196-0.271-0.515-0.095-0.77 0.058-0.083 0.131-0.157 0.202-0.238zM11.659 25.194c0.045 0.107 0.085 0.196 0.121 0.288 0.036 0.093 0.073 0.186 0.103 0.281s0.049 0.193 0.073 0.29c0.025 0.094 0.011 0.195 0.046 0.296 0.033-0.017 0.056-0.025 0.074-0.038 0.121-0.096 0.241-0.194 0.362-0.291 0.043-0.034 0.032-0.070 0.008-0.109-0.078-0.133-0.153-0.27-0.235-0.4-0.026-0.042-0.064-0.085-0.107-0.108-0.12-0.067-0.245-0.125-0.369-0.186-0.017-0.008-0.037-0.010-0.078-0.020zM4.72 23.55c-0.039 0.068-0.027 0.126-0.015 0.183 0.051 0.226 0.117 0.445 0.24 0.644 0.083 0.134 0.16 0.273 0.24 0.409 0.048 0.083 0.098 0.166 0.149 0.248 0.011 0.018 0.029 0.030 0.062 0.063-0.009-0.051-0.010-0.077-0.018-0.103-0.101-0.324-0.148-0.656-0.166-0.995-0.002-0.052-0.014-0.103-0.017-0.153-0.005-0.063-0.041-0.093-0.098-0.116-0.101-0.041-0.199-0.093-0.298-0.141-0.024-0.011-0.047-0.024-0.079-0.039zM11.159 22.916c0.012-0.023 0.023-0.034 0.025-0.046 0.053-0.242 0.083-0.488 0.086-0.736 0-0.017-0.012-0.035-0.019-0.053-0.143 0.087-0.46 0.406-0.511 0.517 0.127 0.114 0.249 0.239 0.42 0.319zM8.777 26.795c0.006 0.034 0.006 0.061 0.016 0.082 0.087 0.179 0.169 0.361 0.266 0.533 0.044 0.079 0.118 0.141 0.184 0.206 0.019 0.019 0.060 0.041 0.080 0.034 0.079-0.027 0.156-0.063 0.215-0.124-0.058-0.078-0.69-0.688-0.761-0.732zM12.506 21.38c0.080-0.117 0.123-0.33 0.139-0.661 0.002-0.042 0.019-0.088-0.033-0.134-0.060 0.064-0.117 0.125-0.175 0.187-0.055 0.061-0.112 0.121-0.164 0.185-0.053 0.064-0.129 0.112-0.158 0.203 0.132 0.074 0.259 0.145 0.39 0.219zM6.724 13.748c0.019 0.135 0.048 0.242 0.085 0.348 0.036 0.107 0.063 0.22 0.138 0.312 0.106-0.158 0.204-0.303 0.31-0.461-0.174-0.065-0.342-0.129-0.532-0.201zM8.123 23.759c-0.195 0.002-0.367-0.014-0.548-0.007 0.009 0.081 0.052 0.132 0.080 0.189 0.027 0.055 0.056 0.111 0.089 0.162 0.033 0.053 0.046 0.122 0.124 0.153 0.097-0.151 0.18-0.307 0.254-0.499zM8.082 21.4c-0.003-0.010-0.008-0.021-0.011-0.032-0.043 0-0.087-0.008-0.129 0-0.211 0.035-0.385 0.141-0.532 0.289-0.067 0.065-0.069 0.15-0.029 0.249 0.265-0.135 0.493-0.308 0.703-0.505zM5.661 22.068c-0.009-0.095-0.062-0.186-0.148-0.24-0.143-0.093-0.303-0.142-0.473-0.16-0.039-0.005-0.082-0.007-0.113 0.037 0.205 0.205 0.456 0.306 0.733 0.364zM13.485 19.716c0.079 0.045 0.142 0.085 0.209 0.12s0.087 0.026 0.115-0.046c0.050-0.13 0.071-0.265 0.054-0.404-0.003-0.025-0.016-0.047-0.028-0.086-0.149 0.116-0.241 0.259-0.35 0.416zM14.992 17.791c-0.049 0.067-0.083 0.115-0.12 0.165-0.065 0.088-0.131 0.177-0.196 0.265-0.018 0.025-0.042 0.055-0.014 0.083 0.058 0.058 0.12 0.109 0.179 0.165 0.101-0.115 0.188-0.492 0.15-0.677zM14.988 22.799c-0.087-0.047-0.179-0.085-0.277-0.106-0.051 0.114-0.041 0.515 0.011 0.605 0.058-0.052 0.241-0.392 0.265-0.5zM5.917 23.798c0.112 0.157 0.231 0.273 0.369 0.377 0.012-0.167 0.015-0.327-0.019-0.5-0.118 0.042-0.223 0.079-0.348 0.123zM11.029 26.946c0.147-0.030 0.307-0.125 0.346-0.198-0.101-0.073-0.248-0.132-0.33-0.129-0.016 0.105-0.026 0.211-0.016 0.327zM10.207 27.027c-0.038 0.096-0.064 0.178-0.063 0.285 0.115-0.030 0.22-0.042 0.327-0.106-0.083-0.079-0.16-0.136-0.264-0.179zM15.707 21.119c-0.054-0.012-0.083-0.021-0.113-0.025-0.072-0.009-0.088 0.003-0.086 0.074s0.010 0.142 0.019 0.213c0.002 0.020 0.018 0.038 0.038 0.079 0.051-0.123 0.092-0.226 0.141-0.343zM16.442 19.405c-0.049-0.003-0.088-0.010-0.126-0.006-0.018 0.002-0.046 0.026-0.047 0.041-0.002 0.068-0.008 0.138 0.037 0.209 0.058-0.079 0.107-0.149 0.136-0.244z"></path>
<path fill="#fefff0" style="fill: var(--color1, #fefff0)" d="M11.678 16.667c-0.108-0.007-0.232-0.009-0.355-0.024-0.217-0.026-0.31-0.147-0.271-0.363 0.018-0.099 0.060-0.197 0.106-0.288 0.087-0.175 0.188-0.344 0.277-0.519 0.161-0.316 0.387-0.573 0.667-0.79 0.362-0.28 0.766-0.469 1.211-0.576 0.362-0.087 0.727-0.136 1.101-0.159 0.379-0.023 0.756-0.007 1.133-0.012 0.041 0 0.083 0.007 0.121 0.020 0.091 0.035 0.144 0.105 0.155 0.202 0.010 0.106-0.033 0.191-0.125 0.241-0.053 0.029-0.115 0.045-0.175 0.059-0.178 0.042-0.32 0.129-0.426 0.283-0.153 0.224-0.315 0.443-0.476 0.662-0.426 0.577-0.993 0.952-1.683 1.144-0.408 0.114-0.822 0.166-1.261 0.117zM12.367 15.124c-0.175 0.082-0.21 0.166-0.144 0.326 0.047 0.116 0.115 0.224 0.214 0.299 0.184 0.136 0.39 0.21 0.619 0.127 0.135-0.049 0.266-0.111 0.394-0.179 0.099-0.054 0.192-0.126 0.25-0.226 0.2-0.336 0.152-0.565-0.052-0.85-0.018-0.026-0.053-0.055-0.081-0.056-0.080-0.001-0.161 0.011-0.237 0.067 0.025 0.028 0.044 0.052 0.064 0.073 0.061 0.061 0.091 0.134 0.108 0.218 0.027 0.136-0.019 0.252-0.096 0.358-0.157 0.217-0.368 0.321-0.635 0.272-0.191-0.035-0.334-0.14-0.381-0.344-0.006-0.026-0.016-0.052-0.026-0.085zM14.318 14.957c0.088-0.058 0.35-0.429 0.369-0.517-0.073-0.015-0.47 0.009-0.538 0.036 0.024 0.052 0.047 0.104 0.069 0.157 0.020 0.051 0.041 0.103 0.056 0.155 0.017 0.054 0.028 0.111 0.043 0.169zM11.622 16.173c0.2 0.019 0.374 0.038 0.562 0.010-0.123-0.132-0.236-0.253-0.359-0.385-0.072 0.116-0.13 0.235-0.204 0.373z"></path>
<path fill="#fefff0" style="fill: var(--color1, #fefff0)" d="M20.011 17.771c-0.088-0.006-0.169-0.012-0.25-0.015-0.134-0.005-0.268-0.001-0.402-0.010-0.060-0.005-0.124-0.019-0.177-0.046-0.166-0.086-0.18-0.298-0.032-0.409 0.043-0.033 0.094-0.060 0.144-0.078 0.334-0.118 0.616-0.32 0.882-0.545 0.111-0.094 0.214-0.193 0.32-0.292 0.026-0.025 0.049-0.054 0.072-0.081-0.003-0.007-0.007-0.015-0.011-0.021-0.032 0.003-0.064 0.005-0.095 0.012-0.165 0.041-0.33 0.062-0.501 0.059-0.059-0.001-0.117 0.002-0.175 0.015-0.224 0.047-0.451 0.042-0.679 0.033-0.034-0.001-0.069-0.005-0.103-0.012-0.103-0.026-0.173-0.112-0.178-0.215-0.006-0.103 0.053-0.198 0.155-0.232 0.051-0.017 0.108-0.027 0.161-0.025 0.221 0.009 0.44-0.005 0.658-0.043 0.003 0 0.007 0 0.010 0 0.421 0.005 0.822-0.113 1.229-0.197 0.067-0.014 0.13-0.045 0.197-0.061 0.060-0.014 0.124-0.028 0.182-0.019 0.195 0.032 0.274 0.248 0.153 0.405-0.012 0.016-0.027 0.032-0.042 0.045-0.186 0.184-0.369 0.371-0.558 0.55-0.205 0.194-0.416 0.38-0.625 0.57-0.020 0.018-0.041 0.037-0.060 0.056-0.003 0.003-0.001 0.012-0.002 0.030 0.034-0.002 0.067-0.003 0.099-0.007 0.093-0.010 0.184-0.024 0.276-0.032 0.047-0.005 0.097-0.006 0.143 0.003 0.174 0.033 0.254 0.22 0.153 0.367-0.036 0.053-0.087 0.098-0.138 0.139-0.193 0.151-0.364 0.325-0.532 0.503-0.011 0.012-0.025 0.025-0.035 0.037-0.302 0.368-0.576 0.755-0.79 1.181-0.042 0.082-0.065 0.174-0.097 0.261-0.011 0.033-0.019 0.067-0.034 0.097-0.051 0.105-0.155 0.158-0.263 0.135-0.112-0.023-0.188-0.117-0.188-0.238 0-0.034 0.003-0.070 0.012-0.102 0.026-0.089 0.051-0.179 0.087-0.264 0.041-0.098 0.083-0.197 0.139-0.288 0.25-0.412 0.504-0.821 0.836-1.175 0.016-0.018 0.032-0.036 0.046-0.055 0.003-0.005 0.003-0.012 0.008-0.034z"></path>
<path fill="#fefff0" style="fill: var(--color1, #fefff0)" d="M19.846 7.754c-0.024 0.016-0.052 0.029-0.071 0.050-0.082 0.082-0.169 0.162-0.241 0.254-0.134 0.17-0.262 0.345-0.386 0.522-0.139 0.196-0.273 0.397-0.406 0.597-0.055 0.082-0.105 0.169-0.157 0.255-0.007 0.011-0.014 0.024-0.021 0.035-0.074 0.108-0.196 0.148-0.306 0.097-0.111-0.050-0.164-0.169-0.125-0.294 0.019-0.062 0.045-0.124 0.081-0.177 0.316-0.464 0.61-0.941 0.965-1.376 0.144-0.177 0.318-0.323 0.495-0.466 0.131-0.106 0.264-0.209 0.398-0.311 0.054-0.042 0.112-0.083 0.173-0.112 0.171-0.078 0.343 0.030 0.351 0.218 0.002 0.041-0.001 0.083-0.014 0.123-0.054 0.182-0.1 0.365-0.169 0.541-0.135 0.343-0.209 0.698-0.24 1.062-0.035 0.411-0.064 0.823-0.083 1.235-0.010 0.215-0.087 0.409-0.166 0.603-0.052 0.126-0.177 0.177-0.297 0.138-0.114-0.038-0.178-0.149-0.153-0.281 0.014-0.070 0.037-0.14 0.064-0.206 0.039-0.1 0.061-0.203 0.068-0.311 0.023-0.364 0.049-0.727 0.071-1.092 0.020-0.335 0.083-0.661 0.166-0.986 0.009-0.035 0.016-0.071 0.024-0.106-0.006-0.003-0.011-0.008-0.017-0.011z"></path>
<path fill="#fefff0" style="fill: var(--color1, #fefff0)" d="M9.984 12.147c0.024-0.024 0.047-0.049 0.071-0.071 0.16-0.151 0.319-0.303 0.482-0.451 0.191-0.174 0.39-0.338 0.575-0.518 0.201-0.195 0.348-0.434 0.493-0.672 0.024-0.038 0.044-0.078 0.073-0.112 0.071-0.085 0.179-0.104 0.27-0.054s0.132 0.152 0.098 0.257c-0.015 0.045-0.036 0.089-0.061 0.131-0.204 0.341-0.425 0.667-0.733 0.926-0.166 0.14-0.326 0.286-0.489 0.427-0.291 0.25-0.549 0.53-0.766 0.848-0.021 0.032-0.044 0.063-0.071 0.088-0.071 0.067-0.157 0.086-0.249 0.054-0.094-0.032-0.148-0.101-0.157-0.198-0.008-0.089-0.007-0.178-0.005-0.268 0.011-0.456-0.063-0.897-0.203-1.329-0.019-0.059-0.036-0.118-0.045-0.179-0.020-0.138 0.049-0.244 0.167-0.267 0.115-0.024 0.213 0.043 0.257 0.17 0.117 0.333 0.192 0.674 0.235 1.024 0.008 0.063 0.020 0.126 0.030 0.189 0.009 0.002 0.019 0.005 0.028 0.007z"></path>
<path fill="#fefff0" style="fill: var(--color1, #fefff0)" d="M20.345 30.933c-0.008-0.002-0.018-0.003-0.027-0.008-0.096-0.036-0.193-0.071-0.288-0.111-0.133-0.055-0.153-0.131-0.072-0.248 0.114-0.164 0.159-0.2 0.341-0.085 0.055 0.035 0.117 0.056 0.176 0.086 0.087 0.044 0.105 0.098 0.060 0.185-0.024 0.045-0.053 0.088-0.081 0.131-0.025 0.037-0.060 0.054-0.108 0.051z"></path>
<path fill="#fefff0" style="fill: var(--color1, #fefff0)" d="M17.896 25.999c0.012-0.059 0.021-0.113 0.035-0.166 0.019-0.077 0.070-0.113 0.144-0.089 0.126 0.041 0.253 0.087 0.374 0.14 0.073 0.032 0.093 0.104 0.054 0.173-0.029 0.054-0.063 0.106-0.1 0.155-0.041 0.053-0.081 0.059-0.145 0.034-0.082-0.033-0.166-0.063-0.249-0.094-0.093-0.034-0.122-0.074-0.114-0.151z"></path>
<path fill="#fefff0" style="fill: var(--color1, #fefff0)" d="M16.993 25.606c0.052 0.003 0.104 0.003 0.155 0.010 0.1 0.015 0.142 0.071 0.133 0.173-0.001 0.017-0.005 0.034-0.008 0.051-0.024 0.127-0.059 0.158-0.187 0.151-0.089-0.005-0.178-0.015-0.266-0.027-0.085-0.011-0.131-0.061-0.13-0.145 0.003-0.178-0.006-0.263 0.244-0.224 0.020 0.003 0.041 0.006 0.061 0.008 0 0.001 0 0.002 0 0.003z"></path>
<path fill="#fefff0" style="fill: var(--color1, #fefff0)" d="M21.859 29.083c-0.041 0.067-0.076 0.138-0.125 0.195-0.020 0.024-0.080 0.032-0.113 0.020-0.106-0.037-0.209-0.087-0.31-0.133-0.017-0.008-0.033-0.026-0.042-0.044-0.052-0.107 0.025-0.183 0.072-0.263 0.035-0.060 0.102-0.060 0.157-0.038 0.098 0.039 0.194 0.087 0.288 0.134 0.046 0.024 0.067 0.068 0.074 0.127z"></path>
<path fill="#fefff0" style="fill: var(--color1, #fefff0)" d="M16.976 27.193c0.056 0.016 0.15 0.038 0.241 0.069 0.067 0.021 0.103 0.078 0.093 0.144-0.010 0.063-0.029 0.127-0.056 0.186-0.029 0.064-0.081 0.081-0.145 0.063-0.079-0.023-0.159-0.045-0.238-0.068-0.089-0.026-0.117-0.064-0.113-0.158 0.002-0.044 0.011-0.089 0.023-0.132 0.024-0.089 0.065-0.116 0.196-0.105z"></path>
<path fill="#fefff0" style="fill: var(--color1, #fefff0)" d="M15.719 25.374c0.008 0.002 0.025 0.006 0.042 0.010 0.085 0.026 0.17 0.051 0.255 0.079 0.107 0.035 0.131 0.082 0.093 0.186-0.005 0.012-0.010 0.026-0.015 0.038-0.062 0.152-0.097 0.169-0.258 0.12-0.072-0.023-0.146-0.042-0.214-0.072-0.098-0.043-0.122-0.108-0.083-0.21 0.039-0.104 0.097-0.155 0.182-0.15z"></path>
<path fill="#fefff0" style="fill: var(--color1, #fefff0)" d="M19.35 26.932c-0.018 0.106-0.080 0.156-0.153 0.188-0.067 0.029-0.126 0.003-0.174-0.052-0.067-0.079-0.135-0.156-0.202-0.233-0.064-0.076-0.056-0.141 0.024-0.201 0.011-0.008 0.023-0.015 0.035-0.023 0.121-0.078 0.156-0.074 0.256 0.032 0.054 0.058 0.108 0.116 0.156 0.178 0.028 0.036 0.044 0.082 0.059 0.112z"></path>
<path fill="#fefff0" style="fill: var(--color1, #fefff0)" d="M20.716 28.84c-0.037-0.015-0.071-0.024-0.1-0.041-0.087-0.049-0.174-0.097-0.257-0.149-0.055-0.034-0.069-0.085-0.039-0.142 0.020-0.039 0.049-0.074 0.074-0.111 0.039-0.053 0.094-0.067 0.156-0.051 0.123 0.030 0.224 0.1 0.323 0.175 0.042 0.032 0.054 0.083 0.028 0.13-0.032 0.056-0.071 0.108-0.113 0.158-0.016 0.018-0.047 0.021-0.071 0.032z"></path>
<path fill="#fefff0" style="fill: var(--color1, #fefff0)" d="M18.619 29.347c-0.012-0.008-0.044-0.019-0.062-0.041-0.060-0.070-0.121-0.141-0.17-0.219-0.055-0.087-0.039-0.14 0.041-0.203 0.019-0.015 0.038-0.028 0.059-0.043 0.102-0.072 0.161-0.064 0.236 0.033 0.052 0.068 0.108 0.133 0.155 0.205 0.018 0.028 0.026 0.072 0.018 0.104-0.018 0.069-0.187 0.171-0.275 0.162z"></path>
<path fill="#fefff0" style="fill: var(--color1, #fefff0)" d="M15.056 25.219c-0.011 0.148-0.159 0.227-0.28 0.142-0.089-0.063-0.173-0.135-0.255-0.206-0.019-0.016-0.035-0.047-0.035-0.071 0.001-0.093 0.068-0.147 0.134-0.194 0.055-0.039 0.113-0.021 0.161 0.017 0.070 0.054 0.14 0.111 0.205 0.17 0.041 0.037 0.073 0.082 0.069 0.143z"></path>
<path fill="#fefff0" style="fill: var(--color1, #fefff0)" d="M15.759 26.967c0.089 0.025 0.18 0.044 0.267 0.076 0.078 0.028 0.097 0.073 0.087 0.155 0 0.007-0.002 0.014-0.003 0.020-0.030 0.174-0.085 0.211-0.256 0.167-0.073-0.018-0.147-0.037-0.218-0.063-0.087-0.033-0.108-0.080-0.086-0.171 0.005-0.020 0.012-0.039 0.019-0.059 0.042-0.108 0.072-0.126 0.188-0.124z"></path>
<path fill="#fefff0" style="fill: var(--color1, #fefff0)" d="M18.040 28.36c-0.037-0.029-0.081-0.055-0.115-0.091-0.053-0.058-0.1-0.121-0.148-0.184-0.015-0.018-0.028-0.041-0.033-0.062-0.017-0.071 0.026-0.135 0.124-0.193 0.072-0.043 0.131-0.049 0.178 0.007 0.080 0.094 0.151 0.195 0.22 0.297 0.014 0.020 0.012 0.067-0.002 0.087-0.051 0.073-0.13 0.107-0.224 0.14z"></path>
<path fill="#fefff0" style="fill: var(--color1, #fefff0)" d="M12.055 23.637c-0.021-0.014-0.058-0.024-0.078-0.049-0.052-0.063-0.101-0.13-0.142-0.201-0.052-0.094-0.028-0.169 0.061-0.23 0.023-0.016 0.046-0.029 0.071-0.041 0.071-0.032 0.126-0.020 0.175 0.038 0.059 0.071 0.114 0.144 0.169 0.218 0.030 0.041 0.035 0.093-0.002 0.122-0.062 0.052-0.134 0.090-0.204 0.133-0.010 0.007-0.027 0.003-0.051 0.007z"></path>
<path fill="#fefff0" style="fill: var(--color1, #fefff0)" d="M19.801 28.063c-0.015-0.010-0.055-0.027-0.079-0.055-0.062-0.073-0.12-0.151-0.175-0.23-0.047-0.068-0.030-0.131 0.039-0.175 0.171-0.109 0.192-0.105 0.318 0.050 0.038 0.047 0.086 0.089 0.127 0.134 0.061 0.068 0.058 0.133-0.015 0.184-0.058 0.041-0.112 0.095-0.215 0.093z"></path>
<path fill="#fefff0" style="fill: var(--color1, #fefff0)" d="M13.097 25.409c-0.025-0.019-0.065-0.041-0.090-0.073-0.052-0.068-0.096-0.142-0.141-0.214-0.049-0.078-0.034-0.132 0.045-0.182 0.166-0.105 0.213-0.095 0.329 0.068 0.029 0.042 0.062 0.082 0.091 0.124 0.043 0.062 0.041 0.115-0.010 0.168-0.055 0.058-0.122 0.099-0.223 0.109z"></path>
<path fill="#fefff0" style="fill: var(--color1, #fefff0)" d="M19.349 30.332c-0.032-0.018-0.065-0.029-0.088-0.052-0.070-0.065-0.138-0.134-0.202-0.205-0.054-0.060-0.052-0.116 0.010-0.169 0.14-0.12 0.183-0.176 0.336-0.003 0.034 0.038 0.074 0.070 0.108 0.109 0.077 0.087 0.073 0.141-0.009 0.22-0.023 0.021-0.044 0.044-0.069 0.061-0.025 0.016-0.054 0.025-0.087 0.039z"></path>
<path fill="#fefff0" style="fill: var(--color1, #fefff0)" d="M14.971 26.872c-0.023 0.069-0.053 0.148-0.126 0.194-0.028 0.017-0.077 0.021-0.108 0.010-0.099-0.038-0.197-0.080-0.289-0.133-0.076-0.043-0.079-0.107-0.024-0.173 0.027-0.032 0.054-0.062 0.081-0.094 0.041-0.047 0.090-0.063 0.148-0.039 0.082 0.034 0.165 0.070 0.245 0.108 0.046 0.023 0.074 0.060 0.073 0.125z"></path>
<path fill="#fefff0" style="fill: var(--color1, #fefff0)" d="M13.979 24.113c0.038 0.026 0.076 0.041 0.097 0.069 0.060 0.079 0.117 0.16 0.168 0.245 0.035 0.058 0.018 0.112-0.035 0.155-0.029 0.024-0.060 0.045-0.091 0.067-0.065 0.046-0.122 0.043-0.17-0.020-0.063-0.085-0.124-0.173-0.179-0.263-0.041-0.067-0.024-0.124 0.045-0.166 0.051-0.032 0.107-0.056 0.164-0.086z"></path>
<path fill="#fefff0" style="fill: var(--color1, #fefff0)" d="M13.775 26.358c-0.023-0.017-0.062-0.037-0.091-0.067-0.049-0.049-0.090-0.103-0.135-0.155-0.062-0.073-0.059-0.13 0.014-0.195 0.122-0.111 0.192-0.112 0.309 0 0.050 0.047 0.095 0.099 0.141 0.15 0.030 0.034 0.043 0.077 0.016 0.113-0.050 0.067-0.111 0.121-0.191 0.149-0.012 0.005-0.027 0.003-0.061 0.006z"></path>
<path fill="#fefff0" style="fill: var(--color1, #fefff0)" d="M13.731 23.647c-0.009 0.017-0.018 0.050-0.039 0.067-0.037 0.029-0.080 0.054-0.124 0.071-0.055 0.020-0.112 0.009-0.147-0.043-0.055-0.078-0.109-0.158-0.157-0.24-0.052-0.091-0.030-0.147 0.063-0.191 0.028-0.014 0.056-0.025 0.086-0.035 0.053-0.019 0.106-0.012 0.143 0.027 0.080 0.086 0.148 0.18 0.17 0.3 0.002 0.010 0.002 0.020 0.006 0.044z"></path>
<path fill="#fefff0" style="fill: var(--color1, #fefff0)" d="M13.019 22.768c-0.061-0.018-0.107-0.041-0.132-0.090-0.035-0.070-0.067-0.143-0.098-0.214-0.005-0.009-0.007-0.019-0.008-0.029-0.009-0.070 0.028-0.115 0.124-0.152 0.114-0.044 0.162-0.042 0.203 0.020 0.044 0.069 0.087 0.14 0.123 0.213 0.039 0.080 0.025 0.129-0.050 0.174-0.052 0.032-0.108 0.053-0.162 0.079z"></path>
<path fill="#fefff0" style="fill: var(--color1, #fefff0)" d="M12.501 24.443c-0.032-0.024-0.071-0.045-0.098-0.077-0.046-0.054-0.087-0.115-0.125-0.175-0.041-0.064-0.032-0.111 0.026-0.164 0.018-0.016 0.037-0.030 0.056-0.044 0.103-0.072 0.142-0.069 0.223 0.030 0.050 0.061 0.098 0.123 0.141 0.188 0.041 0.062 0.028 0.108-0.030 0.149-0.036 0.025-0.074 0.049-0.114 0.069-0.020 0.010-0.045 0.014-0.079 0.023z"></path>
</symbol>
  </defs>
</svg>
