<svg aria-hidden="true" style="position: absolute; width: 0; height: 0; overflow: hidden;" version="1.1" xmlns="http://www.w3.org/2000/svg" xmlns:xlink="http://www.w3.org/1999/xlink">
<defs>
<symbol id="icon-Figma-logo" viewBox="0 0 21 32">
<path fill="#0acf83" style="fill: var(--color1, #0acf83)" d="M5.335 32c2.944 0 5.333-2.389 5.333-5.333v-5.333h-5.333c-2.944 0-5.333 2.389-5.333 5.333s2.389 5.333 5.333 5.333z"></path>
<path fill="#a259ff" style="fill: var(--color2, #a259ff)" d="M0.002 16c0-2.944 2.389-5.333 5.333-5.333h5.333v10.667h-5.333c-2.944 0-5.333-2.389-5.333-5.333z"></path>
<path fill="#f24e1e" style="fill: var(--color3, #f24e1e)" d="M0.002 5.333c0-2.944 2.389-5.333 5.333-5.333h5.333v10.667h-5.333c-2.944 0-5.333-2.389-5.333-5.333z"></path>
<path fill="#ff7262" style="fill: var(--color4, #ff7262)" d="M10.669 0h5.333c2.944 0 5.333 2.389 5.333 5.333s-2.389 5.333-5.333 5.333h-5.333v-10.667z"></path>
<path fill="#1abcfe" style="fill: var(--color5, #1abcfe)" d="M21.335 16c0 2.944-2.389 5.333-5.333 5.333s-5.333-2.389-5.333-5.333 2.389-5.333 5.333-5.333 5.333 2.389 5.333 5.333z"></path>
</symbol>
<symbol id="icon-sass" viewBox="0 0 43 32">
<path fill="#cf649a" style="fill: var(--color6, #cf649a)" d="M36.717 18.383c-1.492 0.008-2.783 0.367-3.867 0.9-0.4-0.792-0.8-1.483-0.867-2-0.075-0.6-0.167-0.967-0.075-1.683s0.508-1.733 0.508-1.817c-0.008-0.075-0.092-0.442-0.95-0.45s-1.6 0.167-1.683 0.392-0.25 0.742-0.358 1.275c-0.15 0.783-1.717 3.558-2.608 5.017-0.292-0.567-0.542-1.067-0.592-1.467-0.075-0.6-0.167-0.967-0.075-1.683s0.508-1.733 0.508-1.817c-0.008-0.075-0.092-0.442-0.95-0.45s-1.6 0.167-1.683 0.392-0.175 0.758-0.358 1.275c-0.175 0.517-2.258 5.15-2.8 6.358-0.275 0.617-0.517 1.108-0.692 1.442s-0.008 0.025-0.025 0.058c-0.15 0.283-0.233 0.442-0.233 0.442v0.008c-0.117 0.208-0.242 0.408-0.3 0.408-0.042 0-0.125-0.558 0.017-1.325 0.308-1.608 1.058-4.117 1.050-4.208 0-0.042 0.142-0.483-0.483-0.708-0.608-0.225-0.825 0.15-0.875 0.15s-0.092 0.133-0.092 0.133 0.675-2.825-1.292-2.825c-1.233 0-2.933 1.342-3.775 2.567-0.533 0.292-1.667 0.908-2.867 1.567-0.458 0.25-0.933 0.517-1.383 0.758l-0.092-0.1c-2.383-2.542-6.792-4.342-6.608-7.758 0.067-1.242 0.5-4.517 8.467-8.483 6.525-3.25 11.75-2.358 12.658-0.375 1.292 2.833-2.792 8.1-9.575 8.858-2.583 0.292-3.942-0.708-4.283-1.083-0.358-0.392-0.408-0.408-0.542-0.333-0.217 0.117-0.083 0.467 0 0.675 0.2 0.525 1.033 1.458 2.45 1.925 1.242 0.408 4.275 0.633 7.942-0.783 4.108-1.592 7.317-6.008 6.375-9.7-0.958-3.758-7.192-4.992-13.083-2.9-3.508 1.25-7.308 3.2-10.042 5.758-3.25 3.033-3.767 5.683-3.55 6.783 0.758 3.925 6.167 6.483 8.333 8.375-0.108 0.058-0.208 0.117-0.3 0.167-1.083 0.533-5.208 2.692-6.242 4.975-1.167 2.583 0.183 4.442 1.083 4.692 2.783 0.775 5.633-0.617 7.175-2.908 1.533-2.292 1.35-5.267 0.642-6.625l-0.025-0.050 0.85-0.5c0.55-0.325 1.092-0.625 1.567-0.883-0.267 0.725-0.458 1.583-0.558 2.833-0.117 1.467 0.483 3.367 1.275 4.117 0.35 0.325 0.767 0.333 1.025 0.333 0.917 0 1.333-0.758 1.792-1.667 0.567-1.108 1.067-2.392 1.067-2.392s-0.625 3.475 1.083 3.475c0.625 0 1.25-0.808 1.533-1.225v0.008s0.017-0.025 0.050-0.083c0.028-0.040 0.061-0.092 0.092-0.145l0.008-0.014v-0.017c0.25-0.433 0.808-1.425 1.642-3.067 1.075-2.117 2.108-4.767 2.108-4.767s0.1 0.65 0.408 1.717c0.183 0.633 0.583 1.325 0.892 2-0.25 0.35-0.4 0.55-0.4 0.55l0.008 0.008c-0.2 0.267-0.425 0.55-0.658 0.833-0.85 1.017-1.867 2.175-2 2.508-0.158 0.392-0.125 0.683 0.183 0.917 0.225 0.167 0.625 0.2 1.050 0.167 0.767-0.050 1.3-0.242 1.567-0.358 0.417-0.15 0.892-0.375 1.35-0.708 0.833-0.617 1.342-1.492 1.292-2.658-0.025-0.642-0.233-1.275-0.492-1.875 0.075-0.108 0.15-0.217 0.225-0.333 1.317-1.925 2.333-4.042 2.333-4.042s0.1 0.65 0.408 1.717c0.158 0.542 0.475 1.133 0.758 1.717-1.233 1.008-2.008 2.175-2.275 2.942-0.492 1.417-0.108 2.058 0.617 2.208 0.325 0.067 0.792-0.083 1.142-0.233 0.433-0.142 0.958-0.383 1.442-0.742 0.833-0.617 1.633-1.475 1.592-2.633-0.025-0.533-0.167-1.058-0.358-1.558 1.050-0.433 2.408-0.683 4.133-0.475 3.708 0.433 4.442 2.75 4.3 3.717s-0.917 1.5-1.175 1.667c-0.258 0.158-0.342 0.217-0.317 0.333 0.033 0.175 0.15 0.167 0.375 0.133 0.308-0.050 1.95-0.792 2.017-2.575 0.1-2.292-2.075-4.792-5.933-4.767zM8.117 28.025c-1.225 1.342-2.95 1.85-3.683 1.417-0.792-0.458-0.483-2.433 1.025-3.858 0.917-0.867 2.108-1.667 2.892-2.158 0.175-0.108 0.442-0.267 0.758-0.458 0.050-0.033 0.083-0.050 0.083-0.050 0.058-0.033 0.125-0.075 0.192-0.117 0.558 2.033 0.025 3.817-1.267 5.225zM17.075 21.933c-0.425 1.042-1.325 3.717-1.867 3.567-0.467-0.125-0.75-2.15-0.092-4.15 0.333-1.008 1.042-2.208 1.458-2.675 0.675-0.75 1.408-1 1.592-0.692 0.217 0.4-0.825 3.3-1.092 3.95zM24.467 25.467c-0.183 0.092-0.35 0.158-0.425 0.108-0.058-0.033 0.075-0.158 0.075-0.158s0.925-0.992 1.292-1.45c0.208-0.267 0.458-0.575 0.725-0.925v0.1c0 1.2-1.15 2-1.667 2.325zM30.167 24.167c-0.133-0.1-0.117-0.408 0.333-1.375 0.175-0.383 0.575-1.025 1.267-1.633 0.083 0.25 0.133 0.492 0.125 0.717-0.008 1.5-1.075 2.058-1.725 2.292z"></path>
</symbol>
<symbol id="icon-woocommerce" viewBox="0 0 32 32">
<path fill="#7f54b3" style="fill: var(--color7, #7f54b3)" d="M9.829 12.75h-8.823c-0.558 0-1.010 0.456-1.006 1.010v3.368c0 0.558 0.452 1.010 1.010 1.010h4.179l1.91 1.064-0.434-1.064h3.164c0.558 0 1.010-0.452 1.010-1.010v-3.368c0-0.558-0.452-1.010-1.010-1.010zM0.82 13.53c-0.124 0.009-0.217 0.053-0.279 0.137-0.062 0.080-0.084 0.182-0.071 0.297 0.261 1.662 0.505 2.783 0.731 3.364 0.089 0.213 0.191 0.315 0.31 0.306 0.186-0.013 0.408-0.27 0.669-0.771 0.137-0.284 0.35-0.709 0.638-1.276 0.239 0.838 0.567 1.467 0.979 1.888 0.115 0.12 0.235 0.173 0.35 0.164 0.102-0.009 0.182-0.062 0.235-0.16 0.044-0.084 0.062-0.182 0.053-0.292-0.027-0.403 0.013-0.966 0.124-1.688 0.115-0.745 0.257-1.281 0.43-1.6 0.035-0.066 0.049-0.133 0.044-0.213-0.009-0.102-0.053-0.186-0.137-0.253s-0.177-0.098-0.279-0.089c-0.128 0.009-0.226 0.071-0.292 0.195-0.275 0.501-0.47 1.312-0.585 2.437-0.168-0.425-0.31-0.926-0.421-1.516-0.049-0.261-0.168-0.386-0.363-0.372-0.133 0.009-0.244 0.098-0.332 0.266l-0.97 1.848c-0.16-0.643-0.31-1.427-0.448-2.353-0.031-0.23-0.16-0.337-0.386-0.319zM9.359 13.849c0.315 0.066 0.55 0.235 0.709 0.514 0.142 0.239 0.213 0.527 0.213 0.873 0 0.456-0.115 0.873-0.346 1.254-0.266 0.443-0.612 0.665-1.041 0.665-0.075 0-0.155-0.009-0.239-0.027-0.315-0.066-0.55-0.235-0.709-0.514-0.142-0.244-0.213-0.536-0.213-0.877 0-0.456 0.115-0.873 0.346-1.25 0.27-0.443 0.616-0.665 1.041-0.665 0.075 0 0.155 0.009 0.239 0.027zM9.173 16.246c0.164-0.146 0.275-0.363 0.337-0.656 0.018-0.102 0.031-0.213 0.031-0.328 0-0.129-0.027-0.266-0.080-0.403-0.066-0.173-0.155-0.266-0.261-0.288-0.16-0.031-0.315 0.058-0.461 0.275-0.12 0.168-0.195 0.346-0.235 0.527-0.022 0.102-0.031 0.213-0.031 0.323 0 0.129 0.027 0.266 0.080 0.403 0.066 0.173 0.155 0.266 0.261 0.288 0.111 0.022 0.23-0.027 0.359-0.142zM7.29 14.363c-0.16-0.279-0.399-0.448-0.709-0.514-0.084-0.018-0.164-0.027-0.239-0.027-0.425 0-0.771 0.222-1.041 0.665-0.23 0.377-0.346 0.793-0.346 1.25 0 0.341 0.071 0.634 0.213 0.877 0.16 0.279 0.394 0.448 0.709 0.514 0.084 0.018 0.164 0.027 0.239 0.027 0.43 0 0.776-0.222 1.041-0.665 0.23-0.381 0.346-0.798 0.346-1.254 0-0.346-0.071-0.634-0.213-0.873zM6.732 15.591c-0.062 0.292-0.173 0.51-0.337 0.656-0.128 0.115-0.248 0.164-0.359 0.142-0.106-0.022-0.195-0.115-0.261-0.288-0.053-0.137-0.080-0.275-0.080-0.403 0-0.111 0.009-0.222 0.031-0.323 0.040-0.182 0.115-0.359 0.235-0.527 0.146-0.217 0.301-0.306 0.461-0.275 0.106 0.022 0.195 0.115 0.261 0.288 0.053 0.137 0.080 0.275 0.080 0.403 0 0.115-0.009 0.226-0.031 0.328z"></path>
<path fill="#000" style="fill: var(--color8, #000)" d="M11.961 14.323c-0.297 0.292-0.443 0.665-0.443 1.117 0 0.483 0.146 0.877 0.439 1.174s0.674 0.448 1.148 0.448c0.137 0 0.292-0.022 0.461-0.071v-0.718c-0.155 0.044-0.288 0.067-0.403 0.067-0.235 0-0.421-0.080-0.563-0.235-0.142-0.16-0.213-0.372-0.213-0.643 0-0.253 0.071-0.461 0.208-0.62 0.142-0.164 0.315-0.244 0.527-0.244 0.137 0 0.284 0.022 0.443 0.066v-0.718c-0.146-0.040-0.31-0.058-0.483-0.058-0.452-0.004-0.824 0.142-1.121 0.434zM15.036 13.884c-0.408 0-0.727 0.137-0.957 0.408s-0.341 0.651-0.341 1.139c0 0.527 0.115 0.931 0.341 1.21s0.558 0.421 0.993 0.421c0.421 0 0.744-0.142 0.97-0.421s0.341-0.674 0.341-1.179c0-0.505-0.115-0.895-0.346-1.17-0.235-0.27-0.567-0.408-1.002-0.408zM15.386 16.189c-0.080 0.124-0.199 0.186-0.35 0.186-0.142 0-0.248-0.062-0.323-0.186s-0.111-0.372-0.111-0.749c0-0.581 0.146-0.869 0.443-0.869 0.31 0 0.47 0.292 0.47 0.882-0.004 0.363-0.049 0.612-0.129 0.736zM18.573 13.969l-0.16 0.678c-0.040 0.173-0.080 0.35-0.115 0.532l-0.089 0.47c-0.084-0.47-0.199-1.028-0.346-1.68h-1.028l-0.386 3.018h0.771l0.208-2.078 0.527 2.078h0.55l0.505-2.074 0.217 2.074h0.807l-0.408-3.018h-1.055zM22.264 13.969l-0.16 0.678c-0.040 0.173-0.080 0.35-0.115 0.532l-0.089 0.47c-0.084-0.47-0.199-1.028-0.346-1.68h-1.028l-0.386 3.018h0.771l0.208-2.078 0.527 2.078h0.55l0.501-2.074 0.217 2.074h0.807l-0.408-3.018h-1.050zM24.772 15.794h0.722v-0.625h-0.722v-0.554h0.833v-0.643h-1.648v3.018h1.653v-0.643h-0.838v-0.554zM27.905 15.316c0.084-0.137 0.128-0.279 0.128-0.425 0-0.284-0.111-0.51-0.332-0.674s-0.527-0.248-0.908-0.248h-0.948v3.018h0.815v-1.374h0.013l0.66 1.374h0.86l-0.651-1.36c0.155-0.071 0.279-0.173 0.363-0.31zM26.656 15.267v-0.718c0.195 0.004 0.332 0.035 0.417 0.098s0.124 0.16 0.124 0.301c0 0.208-0.182 0.315-0.541 0.319zM28.512 14.323c-0.297 0.292-0.443 0.665-0.443 1.117 0 0.483 0.146 0.877 0.439 1.174s0.673 0.448 1.148 0.448c0.137 0 0.293-0.022 0.461-0.071v-0.718c-0.155 0.044-0.288 0.067-0.403 0.067-0.235 0-0.421-0.080-0.563-0.235-0.142-0.16-0.213-0.372-0.213-0.643 0-0.253 0.071-0.461 0.208-0.62 0.142-0.164 0.315-0.244 0.527-0.244 0.137 0 0.284 0.022 0.443 0.066v-0.718c-0.146-0.040-0.31-0.058-0.483-0.058-0.448-0.004-0.824 0.142-1.121 0.434zM31.158 16.34v-0.55h0.722v-0.625h-0.722v-0.554h0.837v-0.643h-1.648v3.018h1.653v-0.643h-0.842v-0.004z"></path>
</symbol>
<symbol id="icon-adobe" viewBox="0 0 32 32">
<path fill="#f00" style="fill: var(--color9, #f00)" d="M20.133 2.667h11.867v26.667zM11.867 2.667h-11.867v26.667zM16 12.533l7.467 16.8h-5.067l-2.133-5.333h-5.467z"></path>
</symbol>
<symbol id="icon-arduino" viewBox="0 0 32 32">
<path fill="#00979d" style="fill: var(--color10, #00979d)" d="M31.76 16c-0.082-4.193-3.5-7.561-7.705-7.561-0.047 0-0.095 0-0.142 0.001l0.007-0c-0.387 0-0.8 0.027-1.2 0.067-3.36 0.493-5.6 2.907-6.84 4.76-1.267-1.853-3.52-4.267-6.853-4.76-0.4-0.040-0.8-0.067-1.2-0.067-0.036-0.001-0.079-0.001-0.121-0.001-4.205 0-7.623 3.368-7.705 7.553l-0 0.008c0.082 4.193 3.5 7.561 7.705 7.561 0.043 0 0.085-0 0.128-0.001l-0.006 0c0.4 0 0.8-0.027 1.227-0.080 3.36-0.48 5.6-2.893 6.853-4.747 1.267 1.853 3.507 4.267 6.853 4.76 0.413 0.040 0.8 0.067 1.213 0.067 0.024 0 0.053 0 0.081 0 4.205 0 7.623-3.368 7.705-7.553l0-0.008zM8.64 20.8c-0.267 0.053-0.573 0.053-0.84 0.053-0.032 0.001-0.071 0.001-0.109 0.001-2.725 0-4.944-2.168-5.024-4.874l-0-0.007c0.088-2.714 2.31-4.881 5.037-4.881 0.038 0 0.077 0 0.115 0.001l-0.006-0c0.267 0 0.56 0.027 0.84 0.053 3.16 0.467 5.093 3.56 5.747 4.827-0.667 1.267-2.6 4.4-5.76 4.827zM17.333 16c0.653-1.24 2.587-4.36 5.747-4.827 0.267-0.053 0.56-0.053 0.827-0.053 0.044-0.001 0.096-0.002 0.148-0.002 2.723 0 4.938 2.17 5.011 4.875l0 0.007c-0.088 2.714-2.31 4.881-5.038 4.881-0.038 0-0.077-0-0.115-0.001l0.006 0c-0.267 0-0.56-0.027-0.827-0.053-3.147-0.467-5.093-3.587-5.76-4.827zM5.613 16.787h4.72v-1.547h-4.707zM24.453 16.787h1.587v-1.547h-1.6v-1.587h-1.507v1.6h-1.6v1.533h1.6v1.573h1.533zM32 9.413c0 0.4-0.293 0.68-0.707 0.68-0.008 0-0.017 0.001-0.027 0.001-0.371 0-0.673-0.297-0.68-0.667v-0.001c0-0.373 0.32-0.693 0.707-0.693 0.413 0 0.707 0.293 0.707 0.68zM30.787 9.413c0 0.293 0.213 0.533 0.533 0.533 0.293 0 0.507-0.24 0.507-0.533s-0.213-0.533-0.507-0.533c-0.32-0.027-0.533 0.213-0.533 0.533zM31.187 9.76h-0.133v-0.693l0.267-0.013c0.12 0 0.187 0.013 0.24 0.040s0.080 0.080 0.080 0.147c0 0.080-0.053 0.133-0.147 0.147 0.067 0.027 0.093 0.080 0.12 0.173l0.040 0.173h-0.16c-0.027-0.027-0.027-0.093-0.053-0.173-0.027-0.067-0.053-0.093-0.147-0.093h-0.067zM31.213 9.36h0.080c0.093 0 0.133-0.013 0.133-0.093 0-0.067-0.040-0.093-0.133-0.093h-0.093v0.187z"></path>
</symbol>
<symbol id="icon-bootstrap" viewBox="0 0 32 32">
<path fill="#563d7c" style="fill: var(--color11, #563d7c)" d="M26.667 0h-21.333c-2.943 0.008-5.325 2.391-5.333 5.333v21.333c0 2.933 2.4 5.333 5.333 5.333h21.333c2.933 0 5.333-2.4 5.333-5.333v-21.333c0-2.933-2.4-5.333-5.333-5.333zM23.751 22.473c-0.267 0.643-0.689 1.209-1.231 1.645-0.56 0.453-1.269 0.827-2.143 1.093-0.872 0.271-1.909 0.407-3.111 0.407h-8.576v-18.667h9.069c1.677 0 3.021 0.377 4.027 1.147 1.013 0.773 1.517 1.925 1.517 3.48 0 0.94-0.229 1.747-0.691 2.413-0.459 0.663-1.12 1.181-1.973 1.541v0.061c1.139 0.24 2.020 0.78 2.6 1.62s0.877 1.901 0.877 3.183c0 0.717-0.139 1.4-0.4 2.037zM20.049 17.873c-0.547-0.5-1.315-0.744-2.307-0.744h-5.763v5.824h5.779c0.987 0 1.76-0.256 2.307-0.773 0.547-0.513 0.827-1.245 0.827-2.187-0.009-0.92-0.28-1.632-0.827-2.12zM19.249 14.109c0.528-0.448 0.787-1.089 0.787-1.925 0-0.939-0.233-1.605-0.707-1.987-0.469-0.38-1.147-0.577-2.037-0.577h-5.333v5.151h5.333c0.777 0 1.44-0.227 1.957-0.661z"></path>
</symbol>
<symbol id="icon-css3" viewBox="0 0 32 32">
<path fill="#1572b6" style="fill: var(--color12, #1572b6)" d="M2 0h28l-2.547 28.751-11.484 3.249-11.42-3.251zM24.787 5.884l-17.573-0.004 0.284 3.496 13.5 0.003-0.34 3.621h-8.853l0.32 3.431h8.243l-0.488 4.697-3.88 1.072-3.941-1.080-0.251-2.813h-3.48l0.387 5.14 7.287 2.271 7.164-2.040z"></path>
</symbol>
<symbol id="icon-docker" viewBox="0 0 32 32">
<path fill="#1488c6" style="fill: var(--color13, #1488c6)" d="M6.427 23.033c-0.912 0-1.739-0.747-1.739-1.653s0.747-1.657 1.74-1.657c0.997 0 1.747 0.747 1.747 1.656s-0.829 1.653-1.748 1.655zM27.776 14.016c-0.18-1.323-1-2.4-2.080-3.227l-0.42-0.333-0.339 0.413c-0.659 0.747-0.92 2.071-0.84 3.060 0.080 0.749 0.32 1.493 0.739 2.072-0.339 0.173-0.757 0.333-1.080 0.503-0.76 0.249-1.499 0.333-2.24 0.333h-21.387l-0.080 0.493c-0.16 1.576 0.080 3.227 0.749 4.72l0.325 0.58v0.080c2 3.311 5.56 4.8 9.437 4.8 7.459 0 13.576-3.227 16.476-10.177 1.9 0.083 3.819-0.413 4.72-2.235l0.24-0.413-0.4-0.249c-1.080-0.659-2.56-0.747-3.8-0.413zM17.099 12.693h-3.237v3.227h3.24v-3.229zM17.099 8.636h-3.237v3.227h3.24v-3.223zM17.099 4.497h-3.237v3.227h3.24v-3.227zM21.059 12.693h-3.219v3.227h3.227v-3.229zM9.061 12.693h-3.217v3.227h3.229v-3.229zM13.101 12.693h-3.2v3.227h3.219v-3.229zM5.061 12.693h-3.195v3.227h3.237v-3.229zM13.101 8.636h-3.2v3.227h3.219v-3.223zM9.041 8.636h-3.192v3.227h3.217v-3.223z"></path>
</symbol>
<symbol id="icon-filezilla" viewBox="0 0 32 32">
<path fill="#bf0000" style="fill: var(--color14, #bf0000)" d="M32.003 2.48v-1.412c-0.283 0-0.559-0.116-0.757-0.315-0.197-0.197-0.312-0.475-0.312-0.756h-1.415c-0.028 0.592-0.533 1.048-1.125 1.020-0.551-0.028-0.991-0.469-1.019-1.020h-1.415c-0.036 0.592-0.544 1.043-1.137 1.007-0.54-0.033-0.972-0.467-1.007-1.007h-1.412c-0.031 0.592-0.533 1.048-1.127 1.020-0.551-0.028-0.991-0.469-1.020-1.020h-1.413c-0.029 0.592-0.532 1.048-1.125 1.020-0.551-0.028-0.991-0.469-1.020-1.020h-1.412c-0.036 0.592-0.544 1.043-1.137 1.007-0.54-0.033-0.972-0.467-1.007-1.007h-1.413c-0.015 0.592-0.511 1.055-1.101 1.032-0.563-0.019-1.015-0.471-1.035-1.032h-1.413c-0.028 0.592-0.533 1.048-1.125 1.020-0.551-0.029-0.992-0.469-1.019-1.020h-1.413c-0.021 0.592-0.519 1.055-1.109 1.032-0.563-0.019-1.013-0.471-1.033-1.032h-1.413c0 0.281-0.115 0.559-0.313 0.756-0.199 0.199-0.475 0.315-0.757 0.315v1.412c0.592 0.023 1.053 0.519 1.032 1.109-0.017 0.563-0.469 1.015-1.032 1.033v1.415c0.592 0.021 1.053 0.517 1.032 1.109-0.017 0.563-0.469 1.013-1.032 1.033v1.412c0.592 0 1.072 0.481 1.072 1.073s-0.48 1.072-1.072 1.072v1.412c0.592 0 1.072 0.479 1.072 1.072s-0.479 1.072-1.072 1.072v1.413c0.592 0.021 1.053 0.519 1.032 1.109-0.019 0.563-0.471 1.013-1.032 1.033v1.415c0.592 0 1.072 0.479 1.072 1.071 0 0.593-0.479 1.073-1.072 1.073v1.415c0.592 0.021 1.053 0.516 1.032 1.107-0.019 0.563-0.471 1.016-1.032 1.033v1.415c0.592 0 1.072 0.479 1.072 1.073 0 0.591-0.479 1.071-1.072 1.071v1.415c0.589 0.003 1.069 0.479 1.071 1.071h1.413c0.036-0.591 0.547-1.041 1.139-1.005 0.541 0.033 0.972 0.464 1.005 1.005h1.415c0.028-0.591 0.533-1.047 1.125-1.019 0.551 0.028 0.991 0.469 1.019 1.019h1.412c0.031-0.591 0.533-1.047 1.127-1.019 0.551 0.028 0.991 0.469 1.019 1.019h1.413c0.023-0.591 0.519-1.055 1.109-1.033 0.563 0.021 1.015 0.472 1.033 1.033h1.415c0.028-0.591 0.533-1.047 1.125-1.019 0.551 0.028 0.991 0.469 1.019 1.019h1.412c0.031-0.591 0.533-1.047 1.127-1.019 0.551 0.028 0.991 0.469 1.020 1.019h1.412c0.031-0.591 0.533-1.047 1.127-1.019 0.551 0.028 0.991 0.469 1.020 1.019h1.413c0.021-0.591 0.517-1.055 1.108-1.033 0.563 0.021 1.015 0.472 1.033 1.033h1.407c0-0.281 0.115-0.557 0.313-0.757 0.197-0.197 0.473-0.312 0.756-0.312v-1.415c-0.592-0.036-1.041-0.544-1.007-1.136 0.033-0.541 0.467-0.973 1.007-1.005v-1.415c-0.592-0.031-1.048-0.533-1.019-1.125 0.028-0.552 0.468-0.992 1.019-1.019v-1.415c-0.592-0.036-1.041-0.547-1.007-1.139 0.033-0.541 0.467-0.972 1.007-1.005v-1.415c-0.592-0.028-1.048-0.533-1.019-1.125 0.028-0.549 0.468-0.989 1.019-1.019v-1.411c-0.592-0.036-1.041-0.547-1.007-1.139 0.033-0.541 0.467-0.972 1.007-1.005v-1.413c-0.592-0.028-1.048-0.533-1.019-1.125 0.028-0.551 0.468-0.991 1.019-1.019v-1.413c-0.592-0.036-1.041-0.544-1.007-1.137 0.033-0.54 0.467-0.972 1.007-1.005v-1.413c-0.592-0.029-1.048-0.533-1.020-1.125 0.028-0.551 0.468-0.991 1.020-1.019zM26.579 15.597l-8.539 8.301c0.773 0.12 1.52 0.3 2.323 0.3 1.953 0 4.197-0.593 5.716-1.221l-0.779 3.661c-2.235 1.073-3.601 1.161-4.937 1.161-1.46 0-2.859-0.476-4.287-0.476-0.804 0-1.965 0.060-2.679 0.533l-1.548-2.737 8.809-8.721h-10.137l-1.935 9.077h-4.227l4.407-20.773h13.987l-0.893 4.195h-9.732l-0.833 3.9h15.969l-0.685 2.8z"></path>
</symbol>
<symbol id="icon-git" viewBox="0 0 32 32">
<path fill="#f05032" style="fill: var(--color15, #f05032)" d="M31.395 14.573l-13.972-13.971c-0.805-0.804-2.109-0.804-2.917 0l-2.895 2.9 3.68 3.68c0.86-0.287 1.839-0.093 2.519 0.588 0.688 0.687 0.877 1.677 0.584 2.533l3.544 3.547c0.86-0.297 1.849-0.104 2.533 0.58 0.961 0.96 0.961 2.512 0 3.472-0.959 0.959-2.508 0.959-3.467 0-0.719-0.721-0.899-1.783-0.539-2.661l-3.319-3.301v8.7c0.235 0.115 0.456 0.271 0.651 0.464 0.951 0.961 0.951 2.511 0 3.467-0.959 0.961-2.519 0.961-3.479 0-0.959-0.959-0.959-2.505 0-3.464 0.243-0.24 0.516-0.421 0.807-0.541v-8.785c-0.289-0.121-0.565-0.296-0.8-0.535-0.727-0.727-0.901-1.789-0.528-2.679l-3.616-3.633-9.581 9.575c-0.8 0.807-0.8 2.112 0 2.919l13.973 13.969c0.805 0.805 2.109 0.805 2.915 0l13.907-13.907c0.807-0.804 0.807-2.109 0-2.916z"></path>
</symbol>
<symbol id="icon-github" viewBox="0 0 32 32">
<path d="M16 0.396c-8.84 0-16 7.164-16 16 0 7.071 4.584 13.067 10.94 15.18 0.8 0.151 1.093-0.344 1.093-0.769 0-0.38-0.013-1.387-0.020-2.72-4.451 0.965-5.389-2.147-5.389-2.147-0.728-1.847-1.78-2.34-1.78-2.34-1.449-0.992 0.112-0.972 0.112-0.972 1.607 0.112 2.451 1.648 2.451 1.648 1.427 2.447 3.745 1.74 4.66 1.331 0.144-1.035 0.556-1.74 1.013-2.14-3.553-0.4-7.288-1.776-7.288-7.907 0-1.747 0.62-3.173 1.647-4.293-0.18-0.404-0.72-2.031 0.14-4.235 0 0 1.34-0.429 4.4 1.64 1.28-0.356 2.64-0.532 4-0.54 1.36 0.008 2.72 0.184 4 0.54 3.040-2.069 4.38-1.64 4.38-1.64 0.86 2.204 0.32 3.831 0.16 4.235 1.020 1.12 1.64 2.547 1.64 4.293 0 6.147-3.74 7.5-7.3 7.893 0.56 0.48 1.080 1.461 1.080 2.96 0 2.141-0.020 3.861-0.020 4.381 0 0.42 0.28 0.92 1.1 0.76 6.401-2.099 10.981-8.099 10.981-15.159 0-8.836-7.164-16-16-16z"></path>
</symbol>
<symbol id="icon-gulp" viewBox="0 0 32 32">
<path fill="#da4648" style="fill: var(--color16, #da4648)" d="M20.208 25.909l0.848-1.445c0 0-1.925 0.788-5.147 0.788-3.224 0-5.12-0.757-5.12-0.757l0.948 1.577 0.336 4.972c0 0.537 1.752 0.957 3.915 0.957 2.164 0 3.917-0.419 3.917-0.957l0.305-5.113zM21.028 16.515c-1.025 0.061-1.537 1.204-2.052 2.407-0.191 0.44-0.84 2.316-1.264 2.084-0.424-0.231 0.551-1.772 0.825-2.689-0.316 0.232-1.473 1.132-1.772 0.287-0.477 0.419-1.505 0.64-1.389-0.439-0.255 0.46-0.828 1.097-1.519 0.819-0.897-0.34 0.527-3.215 0.88-3.076 0.355 0.161-0.071 0.8-0.181 1.059-0.248 0.559-0.531 1.277-0.34 1.417 0.32 0.259 1.205-0.937 1.225-0.959 0.165-0.22 0.639-1.639 1.017-1.476 0.38 0.179-0.948 2.055-0.453 2.435 0.101 0.080 0.511-0.040 0.759-0.319 0.16-0.16 0.104-0.56 0.639-1.837 0.539-1.279 1.019-2.875 1.385-2.755s0.065 0.937-0.068 1.257c-0.619 1.437-1.691 3.792-1.187 3.613 0.499-0.18 0.759-0.18 1.257-0.759s0.46-1.536 0.799-1.516c0.32 0.019 0.28 0.339 0.2 0.557 0.32-0.36 1.536-1.157 1.817-0.379 0.339 0.917-1.739 2.256-1.219 2.176 0.5-0.060 1.317-0.579 1.677-1.057l0.959-8.667c0 0-0.979 0.8-7.148 0.8s-7.045-0.779-7.045-0.779l0.817 7.907c0.44-1.237 1.477-3.752 3.096-3.653 0.739 0.040 1.737 1.479 0.877 1.519-0.36 0.020-0.4-0.719-0.819-0.819-0.319-0.061-0.739 0.18-1.017 0.46-0.539 0.539-1.739 2.675-1.579 3.735 0.2 1.357 1.876-0.461 2.156-1 0.199-0.377 0.339-1.517 0.757-1.397 0.44 0.12-0.039 1.299-0.36 2.316-0.36 1.159-0.539 2.375-0.976 2.235-0.44-0.139 0.279-1.636 0.237-1.896-0.417 0.399-1.177 1.36-2.175 0.879l0.499 4.932c0 0 1.359 1.057 5.431 1.057s5.491-1.057 5.491-1.057l0.639-5.711c-0.519 0.52-2.156 1.417-2.256 0.4-0.079-0.819 1.777-1.997 1.299-2.019zM23.128 0.892l-3.545 3.733-0.648 2.535c2.508 0.16 4.252 0.515 4.252 0.925 0 0.559-3.219 1.009-7.188 1.009s-7.187-0.457-7.187-1.017c0-0.559 3.219-1.019 7.188-1.019 0.564 0 1.125 0 1.685 0.021l0.748-3.035 3.767-3.993c0.091-0.12 0.373-0.020 0.632 0.2 0.259 0.199 0.399 0.459 0.319 0.579v0.040zM18.016 8.619c0 0-0.697 0-0.813-0.107-0.029-0.033-0.048-0.077-0.048-0.12 0-0.077 0.052-0.121 0.12-0.147l0.059 0.1c-0.028 0.008-0.039 0.020-0.044 0.031 0 0.055 0.419 0.092 0.74 0.088 0.319-0.004 0.708-0.031 0.711-0.085 0-0.016-0.031-0.031-0.081-0.044l0.060-0.096c0.084 0.027 0.156 0.077 0.156 0.161 0 0.147-0.188 0.171-0.307 0.188-0.143 0.020-0.549 0.031-0.549 0.031z"></path>
</symbol>
<symbol id="icon-gutenberg" viewBox="0 0 32 32">
<path d="M19.252 15.144c-0.112-0.076-0.265-0.045-0.341 0.068-0.445 0.671-1.391 0.707-1.44 0.707-0.009 0-0.013 0-0.023 0-1.165 0-1.611 0.995-1.628 1.035-0.053 0.125 0.004 0.269 0.125 0.324 0.032 0.013 0.068 0.023 0.099 0.023 0.095 0 0.184-0.053 0.225-0.148 0.004-0.009 0.311-0.693 1.097-0.737v1.273c-0.032 0.275-0.161 0.491-0.392 0.652-0.239 0.167-0.557 0.252-0.949 0.252-0.468 0-0.851-0.161-1.133-0.481-0.288-0.32-0.432-0.773-0.432-1.359l0.004-1.404c0.023-0.517 0.161-0.927 0.428-1.219 0.288-0.32 0.665-0.481 1.133-0.481 0.392 0 0.711 0.085 0.949 0.252s0.373 0.396 0.396 0.693v0c0 0.009 0 0.023 0 0.032 0 0.171 0.14 0.311 0.311 0.311s0.311-0.14 0.311-0.311c0-0.009 0-0.023 0-0.032v0c-0.045-0.445-0.248-0.796-0.612-1.061-0.364-0.268-0.817-0.399-1.367-0.399-0.652 0-1.179 0.216-1.579 0.643-0.377 0.4-0.576 0.927-0.599 1.575v0 0c0 0.045-0.004 0.089-0.004 0.135l0.004 1.264h-0.004c0 0.715 0.203 1.287 0.603 1.713s0.927 0.643 1.579 0.643c0.549 0 1.003-0.131 1.368-0.396 0.333-0.243 0.531-0.563 0.599-0.959l0.013-1.412c0.409-0.099 0.967-0.324 1.319-0.855 0.088-0.111 0.057-0.264-0.060-0.34zM23.584 0.681h3.451c0.153 0 0.279-0.125 0.279-0.279s-0.125-0.279-0.279-0.279h-3.451c-0.153 0-0.279 0.125-0.279 0.279s0.125 0.279 0.279 0.279zM5.1 0.681h3.451c0.153 0 0.279-0.125 0.279-0.279s-0.127-0.279-0.279-0.279h-3.451c-0.153 0-0.279 0.125-0.279 0.279s0.121 0.279 0.279 0.279zM27.211 2.921c0.155 0 0.279 0.125 0.279 0.279 0 0.155-0.125 0.279-0.279 0.279-0.155 0-0.279-0.125-0.279-0.279-0.001-0.153 0.124-0.279 0.279-0.279zM15.987 2.044c0.155 0 0.279 0.125 0.279 0.279s-0.125 0.279-0.279 0.279-0.279-0.125-0.279-0.279 0.124-0.279 0.279-0.279zM10.813 3.205c0.004 0 0.009 0 0.013 0 1.048 0 1.516-0.657 1.872-1.268 0.117-0.203 0.549-0.877 1.16-1.052 0.756-0.22 1.561 0.131 1.876 0.819 0.045 0.099 0.144 0.157 0.243 0.161 0.004 0 0.009 0 0.013 0s0.009 0 0.017 0c0.099-0.004 0.197-0.063 0.243-0.161 0.315-0.688 1.12-1.039 1.876-0.819 0.612 0.18 1.044 0.851 1.16 1.052 0.356 0.616 0.823 1.268 1.885 1.268v0c0.639 0 1.395-0.477 1.605-1.391 0.176-0.756-0.148-1.44-0.855-1.785-0.14-0.068-0.305-0.013-0.373 0.125-0.068 0.14-0.013 0.305 0.125 0.373 0.671 0.333 0.612 0.923 0.557 1.16-0.108 0.468-0.521 0.963-1.067 0.963-0.697 0-1.031-0.351-1.404-0.995-0.184-0.315-0.697-1.080-1.484-1.309-0.859-0.252-1.768 0.049-2.289 0.711-0.521-0.661-1.431-0.963-2.289-0.711-0.787 0.229-1.3 0.995-1.484 1.309-0.373 0.643-0.707 0.995-1.391 0.995-0.004 0-0.009 0-0.009 0-0.593-0.004-0.972-0.419-1.080-0.828-0.053-0.193-0.167-0.855 0.589-1.304 0.131-0.076 0.176-0.248 0.095-0.383-0.079-0.129-0.244-0.175-0.38-0.093-0.868 0.517-1.003 1.336-0.841 1.929 0.199 0.733 0.851 1.228 1.616 1.233zM15.995 29.467h0.005zM4.664 2.921c0.155 0 0.279 0.125 0.279 0.279 0 0.155-0.125 0.279-0.279 0.279s-0.28-0.124-0.28-0.279c0-0.153 0.125-0.279 0.28-0.279zM3.881 0.128c0.155 0 0.279 0.125 0.279 0.279s-0.125 0.279-0.279 0.279-0.28-0.124-0.28-0.279 0.125-0.279 0.28-0.279zM28.2 0.128c0.155 0 0.279 0.125 0.279 0.279s-0.125 0.279-0.279 0.279-0.279-0.125-0.279-0.279 0.124-0.279 0.279-0.279zM29.693 18c0.155 0 0.279 0.125 0.279 0.279 0 0.155-0.125 0.279-0.279 0.279-0.155 0-0.279-0.125-0.279-0.279s0.124-0.279 0.279-0.279zM28.573 24.38c0.155 0 0.279 0.125 0.279 0.279 0 0.155-0.125 0.279-0.279 0.279s-0.279-0.125-0.279-0.279c0-0.155 0.124-0.279 0.279-0.279zM26.783 25.176c0.155 0 0.279 0.125 0.279 0.279 0 0.155-0.125 0.279-0.279 0.279-0.155 0-0.279-0.125-0.279-0.279 0-0.155 0.125-0.279 0.279-0.279zM10.232 1.451c0 0.413 0.337 0.751 0.751 0.751s0.751-0.337 0.751-0.751-0.336-0.752-0.749-0.752c-0.413-0.004-0.752 0.333-0.752 0.752zM10.984 1.252c0.108 0 0.197 0.089 0.197 0.197s-0.089 0.197-0.197 0.197-0.197-0.089-0.197-0.197c-0.001-0.107 0.089-0.197 0.197-0.197zM21.105 2.201c0.413 0 0.751-0.337 0.751-0.751s-0.337-0.751-0.751-0.751-0.751 0.337-0.751 0.751 0.337 0.751 0.751 0.751zM21.105 1.252c0.108 0 0.197 0.089 0.197 0.197s-0.089 0.197-0.197 0.197-0.197-0.089-0.197-0.197c0-0.107 0.089-0.197 0.197-0.197zM16.747 1.919c-0.144 0.053-0.216 0.212-0.161 0.356 0.053 0.144 0.212 0.216 0.356 0.167 0.045-0.017 1.124-0.377 1.952 0.909 0.053 0.081 0.144 0.125 0.233 0.125 0.049 0 0.104-0.013 0.148-0.045 0.131-0.081 0.167-0.256 0.085-0.383-0.864-1.336-2.087-1.323-2.613-1.129zM15.244 1.919c-0.040-0.013-0.409-0.144-0.913-0.068-0.468 0.068-1.139 0.333-1.696 1.201-0.081 0.131-0.045 0.301 0.085 0.383 0.045 0.032 0.099 0.045 0.148 0.045 0.089 0 0.18-0.045 0.233-0.125 0.823-1.287 1.903-0.927 1.952-0.909 0.144 0.053 0.301-0.023 0.356-0.167s-0.021-0.307-0.165-0.36zM28.043 2.679l1.355-1.539v2.217c0 0.153 0.125 0.279 0.279 0.279s0.279-0.125 0.279-0.279v-2.951c0-0.117-0.072-0.22-0.18-0.261s-0.229-0.009-0.305 0.076l-1.84 2.092c-0.104 0.117-0.089 0.292 0.027 0.392 0.108 0.104 0.283 0.091 0.387-0.027zM2.356 3.641c0.153 0 0.279-0.125 0.279-0.279v-2.219l1.355 1.539c0.103 0.117 0.279 0.127 0.391 0.028 0.117-0.104 0.125-0.279 0.027-0.392l-1.84-2.096c-0.076-0.085-0.197-0.117-0.305-0.077-0.108 0.041-0.18 0.144-0.18 0.261v2.956c0 0.152 0.121 0.279 0.275 0.279zM21.996 3.916c-0.131-0.009-0.252 0.081-0.284 0.207-0.032 0.131 0.032 0.265 0.148 0.32 0.441 0.207 0.841 0.288 1.201 0.288 0.688 0 1.237-0.301 1.62-0.616 0.612-0.504 0.927-1.139 0.94-1.165 0.063-0.131 0.017-0.288-0.108-0.36-0.284-0.167-0.773-0.269-1.52 0.184-0.373 0.229-0.661 0.504-0.711 0.553-0.684 0.603-1.255 0.589-1.287 0.589zM23.656 3.74c0.004-0.004 0.009-0.009 0.013-0.013 0.212-0.212 0.809-0.701 1.277-0.724-0.135 0.193-0.337 0.455-0.612 0.684-0.405 0.333-0.837 0.495-1.296 0.485 0.191-0.099 0.401-0.243 0.617-0.432zM6.611 2.588c-0.125 0.072-0.171 0.231-0.107 0.36 0.013 0.027 0.328 0.661 0.94 1.165 0.383 0.315 0.927 0.616 1.62 0.616 0.364 0 0.765-0.081 1.201-0.288 0.121-0.059 0.18-0.189 0.148-0.32-0.032-0.129-0.149-0.215-0.284-0.211-0.023 0-0.599 0.017-1.283-0.585-0.049-0.048-0.337-0.323-0.711-0.552-0.747-0.451-1.241-0.347-1.525-0.185zM8.473 3.74c0.212 0.189 0.423 0.328 0.616 0.432-0.972 0.009-1.615-0.733-1.908-1.169 0.468 0.023 1.067 0.513 1.277 0.724 0.007 0.004 0.011 0.009 0.015 0.013zM30.021 26.345c-0.279-0.233-0.585-0.369-0.868-0.445 0.108-0.081 0.212-0.176 0.301-0.279 0.688-0.809 0.693-2.001 0.009-2.776-0.104-0.117-0.279-0.125-0.392-0.023-0.117 0.104-0.125 0.279-0.023 0.392 0.5 0.567 0.491 1.444-0.017 2.047-0.413 0.485-1.201 0.603-1.435 0.629-0.707 0.076-1.499 0.239-1.925 1.205-0.068 0.148-0.108 0.315-0.117 0.495-0.099-0.032-0.207-0.049-0.315-0.049-0.563 0-1.021 0.459-1.021 1.021 0 0.387 0.216 0.724 0.535 0.895-0.095 0.085-0.184 0.18-0.265 0.288-0.945-1.273-2.456-2.073-4.12-2.073-0.239 0-0.477 0.017-0.707 0.049 1.368-0.419 2.64-1.071 3.801-1.935v0c1.499-1.12 2.744-2.583 3.599-4.224 0.9-1.728 1.355-3.595 1.355-5.537 0-0.013 0-0.023 0-0.036 0-0.004 0-0.004 0-0.009s0-0.009 0-0.013c-0.009-1.579-0.36-3-0.859-4.224 0.184 0.036 0.36 0.049 0.517 0.049 1.165 0 1.677-0.801 1.732-0.895v0c0.252-0.423 0.292-0.936 0.148-1.399 0.004-0.013 0.004-0.032 0.004-0.049v-5.071c0-0.153-0.125-0.279-0.279-0.279s-0.279 0.125-0.279 0.279v4.26c-0.472-0.409-1.156-0.455-1.44-0.455-0.549 0.004-0.891-0.081-1.143-0.513-0.212-0.364-0.089-0.743 0.121-0.959 0.265-0.269 0.643-0.305 1.012-0.104 0.135 0.072 0.305 0.027 0.377-0.108s0.027-0.305-0.108-0.377c-0.585-0.324-1.241-0.243-1.677 0.197-0.432 0.441-0.513 1.093-0.207 1.624 0.4 0.688 1.008 0.787 1.605 0.787 0.009 0 0.013 0 0.023 0 0.18 0 0.76 0.027 1.093 0.341 0.432 0.409 0.544 1.052 0.261 1.529 0 0-0.004 0.004-0.004 0.009-0.023 0.040-0.557 0.949-2.051 0.472-0.449-0.953-0.972-1.764-1.457-2.411l-0.221 0.169 0.22-0.171-0.089-0.117c-0.959-1.605 0.148-3.316 0.724-4.040l0.324-0.369c0.099-0.117 0.089-0.292-0.027-0.392-0.112-0.095-0.275-0.089-0.377 0.013v0c-0.009 0.009-0.059 0.059-0.135 0.144-0.5 0.508-2.452 2.308-4.345 1.368l-0.053-0.036-0.027-0.017c-1.696-0.913-3.369-1.44-4.967-1.575-0.207-0.472-0.481-0.832-0.828-0.832-0.351 0-0.625 0.364-0.837 0.845-2.236 0.099-5.016 1.543-5.133 1.601-1.904 0.96-3.865-0.849-4.365-1.357-0.076-0.085-0.131-0.135-0.135-0.144v0c-0.104-0.104-0.265-0.108-0.377-0.013-0.117 0.099-0.125 0.275-0.027 0.392v0 0 0l0.347 0.392c0.201 0.251 0.457 0.615 0.673 1.051 0.54 1.093 0.549 2.087 0.032 2.96-0.644 0.801-1.165 1.643-1.565 2.529-1.507 0.491-2.047-0.428-2.069-0.468 0-0.004-0.004-0.004-0.004-0.009-0.284-0.477-0.172-1.12 0.26-1.529 0.333-0.315 0.913-0.341 1.093-0.341h0.004c0.603 0 1.224-0.095 1.624-0.787 0.307-0.532 0.225-1.189-0.207-1.625-0.436-0.445-1.093-0.521-1.677-0.197-0.136 0.072-0.185 0.243-0.108 0.377 0.072 0.135 0.243 0.184 0.377 0.108 0.373-0.203 0.751-0.167 1.012 0.104 0.212 0.216 0.329 0.593 0.121 0.957-0.247 0.428-0.584 0.513-1.124 0.513-0.004 0-0.009 0-0.017 0-0.248 0-0.823 0.036-1.283 0.333v-4.063c0-0.153-0.125-0.279-0.279-0.279s-0.279 0.125-0.279 0.279v4.679c-0.307 0.548-0.324 1.219-0.009 1.759 0.031 0.059 0.224 0.383 0.656 0.625 0.248 0.139 0.603 0.269 1.076 0.269 0.171 0 0.36-0.017 0.563-0.059-0.485 1.304-0.729 2.708-0.737 4.237 0 0.004 0 0.004 0 0.009v0.004c0 0.013 0 0.027 0 0.036 0 2.763 0.972 5.475 2.735 7.639 1.561 1.916 3.684 3.337 6.037 4.063-0.248-0.036-0.5-0.053-0.751-0.053-1.651 0-3.149 0.787-4.093 2.043-0.076-0.099-0.161-0.193-0.256-0.275 0.297-0.18 0.5-0.504 0.5-0.877 0-0.563-0.459-1.021-1.021-1.021-0.104 0-0.203 0.017-0.297 0.045-0.013-0.176-0.053-0.341-0.117-0.491-0.432-0.967-1.219-1.129-1.925-1.205-0.233-0.027-1.021-0.144-1.435-0.629-0.521-0.589-0.531-1.467-0.032-2.033 0.104-0.117 0.089-0.292-0.023-0.392-0.117-0.104-0.292-0.089-0.392 0.023-0.679 0.773-0.675 1.965 0.009 2.776 0.089 0.108 0.193 0.197 0.301 0.279-0.284 0.076-0.589 0.216-0.868 0.445-0.661 0.544-0.999 1.453-1.008 2.691-0.023 0.112 0.027 0.229 0.125 0.292 0.045 0.027 0.095 0.040 0.144 0.040 0.017 0 0.040-0.004 0.059-0.009h0.004c0.009 0 0.013-0.004 0.023-0.009 0.013-0.004 0.032-0.009 0.045-0.017 0.004 0 0.004-0.004 0.009-0.004 0.045-0.027 0.085-0.063 0.112-0.108 0.108-0.14 0.553-0.315 0.923-0.392 1.444-0.315 1.745-1.291 1.7-1.759-0.013-0.153-0.148-0.265-0.301-0.252s-0.265 0.148-0.252 0.301c0 0.004 0.004 0.085-0.023 0.207-0.068 0.279-0.315 0.76-1.241 0.963-0.004 0-0.004 0-0.009 0-0.108 0.023-0.432 0.099-0.733 0.239 0.081-0.801 0.337-1.385 0.773-1.749 0.671-0.557 1.556-0.4 1.565-0.396 0.032 0.004 0.059 0.004 0.085 0 0.148 0.032 0.275 0.049 0.369 0.059 0.743 0.081 1.196 0.243 1.48 0.877 0.22 0.5-0.063 1.075-0.445 1.363-0.193 0.148-0.711 0.441-1.291-0.036-0.117-0.099-0.292-0.081-0.392 0.036-0.099 0.117-0.081 0.292 0.036 0.392 0.261 0.216 0.553 0.341 0.855 0.377-0.387 0.315-0.648 0.711-0.765 0.917-0.377 0.652-0.684 1.003-1.192 1.008v-1.948c0-0.153-0.125-0.279-0.279-0.279s-0.279 0.125-0.279 0.279v2.259c0 0.112 0.068 0.207 0.161 0.252 0.049 0.036 0.108 0.063 0.171 0.063h6.477c0.099 0 0.18-0.049 0.233-0.125 0.036-0.036 0.068-0.081 0.081-0.135 0.256-0.995 1.152-1.687 2.177-1.687 0.917 0 1.732 0.557 2.079 1.391h-0.592c-0.243-0.599-0.828-0.999-1.489-0.999-0.724 0-1.363 0.491-1.556 1.188-0.040 0.148 0.049 0.301 0.193 0.341 0.148 0.040 0.301-0.049 0.341-0.193 0.125-0.459 0.544-0.779 1.017-0.779 0.351 0 0.665 0.171 0.859 0.441h-0.163c-0.153 0-0.279 0.125-0.279 0.279s0.125 0.279 0.279 0.279h0.563c0.009-0.001 0.023 0.003 0.032 0.003 0.013 0 0.027 0 0.036-0.004h1.116c0.153 0 0.279-0.125 0.279-0.279 0-0.013 0-0.027-0.004-0.040 0.004-0.036 0.004-0.076-0.004-0.117-0.328-1.219-1.444-2.069-2.708-2.069-1.224 0-2.299 0.792-2.672 1.948h-1.453c0.117-0.373 0.275-0.72 0.472-1.044 0.013-0.017 0.023-0.036 0.036-0.053 0.823-1.291 2.263-2.119 3.86-2.119 0.945 0 1.853 0.288 2.623 0.828 0.023 0.013 0.045 0.027 0.068 0.032 0.117 0.14 0.233 0.288 0.347 0.441 0.027 0.036 0.049 0.072 0.076 0.108-0.027 0.571 0.284 1.169 0.927 1.781 0.023 0.068 0.045 0.125 0.059 0.171v0.059c0 0.153 0.125 0.279 0.279 0.279 0.131 0 0.233-0.085 0.265-0.207v0c0-0.004 0.040-0.14 0.121-0.364 0.58-0.567 0.868-1.12 0.864-1.656 0.036-0.053 0.076-0.112 0.117-0.167 0.125-0.171 0.256-0.337 0.392-0.495 0.765-0.531 1.66-0.809 2.596-0.809 2.016 0 3.779 1.313 4.364 3.216h-1.453c-0.369-1.156-1.444-1.948-2.672-1.948-1.264 0-2.375 0.851-2.708 2.069-0.013 0.045-0.013 0.089 0 0.135 0 0.009 0 0.013 0 0.023 0 0.153 0.125 0.279 0.279 0.279h2.439c0.153 0 0.279-0.125 0.279-0.279s-0.125-0.279-0.279-0.279h-0.887c0.193-0.269 0.508-0.441 0.859-0.441 0.481 0 0.9 0.324 1.021 0.792 0.032 0.125 0.144 0.207 0.269 0.207 0.023 0 0.045-0.004 0.068-0.009 0.148-0.036 0.239-0.189 0.203-0.337-0.184-0.711-0.823-1.211-1.561-1.211-0.657 0-1.241 0.4-1.489 0.999h-0.563c0.341-0.832 1.16-1.391 2.079-1.391 1.025 0 1.921 0.693 2.177 1.687 0.004 0.023 0.017 0.045 0.027 0.068 0.036 0.112 0.14 0.193 0.265 0.193h6.6c0.153 0 0.279-0.125 0.279-0.279 0-0.004 0-0.013 0-0.017s0-0.013 0-0.017v-0.053c0.004-0.027 0.004-0.053 0.004-0.081 0-0.004 0-0.009-0.004-0.013v-2.109c0-0.153-0.125-0.279-0.279-0.279s-0.279 0.125-0.279 0.279v1.889c-0.468-0.036-0.76-0.383-1.12-1.003-0.117-0.197-0.36-0.571-0.72-0.877 0.248-0.053 0.485-0.171 0.707-0.356 0.117-0.099 0.135-0.275 0.036-0.392s-0.275-0.135-0.392-0.036c-0.576 0.477-1.093 0.184-1.291 0.036-0.383-0.288-0.665-0.868-0.445-1.363 0.284-0.635 0.737-0.801 1.48-0.877 0.095-0.009 0.22-0.027 0.369-0.059 0.027 0.004 0.059 0.004 0.089 0 0.009 0 0.887-0.161 1.561 0.396 0.441 0.364 0.701 0.949 0.779 1.755-0.305-0.144-0.635-0.22-0.737-0.243-0.004 0-0.004 0-0.009 0-0.923-0.203-1.175-0.679-1.241-0.959-0.027-0.117-0.027-0.197-0.023-0.207 0.013-0.153-0.099-0.288-0.252-0.301s-0.288 0.099-0.301 0.252c-0.045 0.472 0.256 1.444 1.705 1.759 0.373 0.081 0.845 0.265 0.931 0.405 0 0 0 0.004 0.004 0.004 0.013 0.017 0.027 0.036 0.040 0.049 0.004 0.004 0.009 0.004 0.013 0.009 0.013 0.009 0.027 0.023 0.040 0.027 0.004 0.004 0.013 0.009 0.017 0.009 0.013 0.009 0.027 0.013 0.040 0.017 0.004 0 0.013 0.004 0.017 0.004 0.017 0.004 0.040 0.009 0.063 0.009v0c0.017 0 0.032 0 0.049-0.004 0.004 0 0.009 0 0.013-0.004 0.013-0.004 0.027-0.009 0.045-0.013h0.004c0.013-0.004 0.023-0.013 0.036-0.017l0.004-0.004c0.009-0.004 0.017-0.013 0.023-0.017 0.004-0.004 0.013-0.009 0.017-0.017 0.004-0.004 0.013-0.013 0.017-0.017 0.004-0.009 0.013-0.013 0.017-0.023s0.009-0.013 0.013-0.023 0.009-0.013 0.013-0.023 0.004-0.017 0.009-0.027c0.004-0.009 0.004-0.017 0.009-0.027 0-0.009 0.004-0.017 0.004-0.023 0-0.009 0.004-0.017 0.004-0.032v-0.011c-0.001-1.272-0.343-2.195-1.013-2.748zM6.679 31.433h-2.928c0.248-0.252 0.423-0.553 0.557-0.787 0.117-0.203 0.549-0.877 1.16-1.052 0.72-0.212 1.395 0.036 1.728 0.607-0.22 0.381-0.396 0.796-0.517 1.232zM6.755 29.017c-0.256 0-0.464-0.207-0.464-0.464s0.207-0.464 0.464-0.464c0.256 0 0.464 0.207 0.464 0.464s-0.212 0.464-0.464 0.464zM23.247 25.504v0l0.040 0.049zM23.256 25.225c-2.627-0.305-4.525 0.823-5.659 1.821-0.491 0.432-0.877 0.877-1.169 1.255-0.053-0.036-0.104-0.072-0.148-0.095v-0.792c2.128-2.137 4.243-2.776 5.645-2.933 0.931-0.104 1.683-0.017 2.132 0.068-0.257 0.24-0.523 0.464-0.801 0.676zM26.553 21.303c-0.269 0.517-0.58 1.012-0.923 1.489-0.356-0.112-0.801-0.216-1.336-0.265 1.192-1.512 1.948-3.316 2.191-5.219 0.387-0.045 0.923-0.212 1.332-0.477-0.108 1.561-0.531 3.064-1.264 4.472zM24.66 16.283l0.324-0.013c0.108 0.481 0.472 0.868 0.949 0.999-0.252 1.925-1.052 3.743-2.331 5.227-0.616 0-1.332 0.072-2.141 0.248 1.889-1.539 3.121-3.856 3.199-6.46zM19.373 23.389c-0.18 0.072-0.305 0.131-0.369 0.157-0.747 0.297-1.548 0.491-2.384 0.553l7.463-7.463c-0.224 3.005-2.096 5.552-4.709 6.752zM27.844 15.981c-0.009 0.252-0.697 0.661-1.304 0.76-0.085 0.013-0.171 0.023-0.252 0.023-0.108 0-0.212-0.023-0.305-0.063-0.284-0.121-0.481-0.4-0.481-0.724s0.197-0.603 0.481-0.724c0.095-0.040 0.197-0.063 0.305-0.063 0.081 0 0.167 0.009 0.252 0.023 0.607 0.099 1.291 0.508 1.304 0.756 0 0.003 0 0.007 0 0.012zM25.24 8.864l0.117 0.157c1.021 1.363 2.217 3.473 2.447 6.1-0.405-0.261-0.936-0.428-1.319-0.472-0.288-2.276-1.3-4.332-2.799-5.92 0.063-0.131 0.099-0.279 0.099-0.432 0-0.207-0.063-0.4-0.167-0.557l1.277-1.457c-0.241 0.925-0.124 1.803 0.344 2.581zM21.511 5.711l0.059 0.040 0.031 0.019c0.445 0.225 0.923 0.337 1.417 0.337 0.521 0 1.067-0.125 1.615-0.377l-1.44 1.641c-0.131-0.063-0.275-0.095-0.432-0.095-0.203 0-0.387 0.059-0.544 0.157-1.417-1.035-3.095-1.723-4.921-1.948-0.045-0.328-0.135-0.796-0.269-1.255 1.444 0.161 2.951 0.657 4.485 1.48zM23.229 8.297c0 0.203-0.135 0.377-0.32 0.441-0.045 0.013-0.095 0.023-0.144 0.023-0.013 0-0.032 0-0.045 0-0.207-0.017-0.373-0.176-0.409-0.373-0.004-0.027-0.009-0.059-0.009-0.085 0-0.032 0.004-0.059 0.009-0.089 0.040-0.203 0.212-0.36 0.423-0.373 0.009 0 0.023 0 0.032 0s0.017 0 0.027 0c0.207 0.013 0.383 0.161 0.428 0.36 0.004 0.027 0.009 0.049 0.009 0.076-0.005 0.003 0 0.012 0 0.021zM17.317 6.052c1.673 0.22 3.221 0.859 4.531 1.804-0.068 0.135-0.104 0.284-0.104 0.445 0 0.203 0.059 0.387 0.161 0.549l-2.24 2.555c-0.104 0.117-0.089 0.292 0.027 0.392 0.053 0.045 0.117 0.068 0.184 0.068 0.076 0 0.153-0.032 0.212-0.095l2.236-2.551c0.135 0.068 0.284 0.104 0.445 0.104 0.207 0 0.396-0.063 0.553-0.167 1.395 1.493 2.335 3.409 2.613 5.533-0.481 0.135-0.855 0.531-0.953 1.025l-0.32 0.013c-0.068-2.056-0.864-4.017-2.253-5.543-0.104-0.112-0.279-0.121-0.392-0.017-0.112 0.104-0.121 0.279-0.017 0.392 1.224 1.34 1.952 3.041 2.092 4.84l-2.992-2.983c-0.108-0.108-0.284-0.108-0.392 0s-0.108 0.284 0 0.392l3.212 3.212-7.917 7.917-7.917-7.917 3.185-3.185c0.108-0.108 0.108-0.284 0-0.392s-0.284-0.108-0.392 0l-2.953 2.955c0.157-2.047 1.075-3.887 2.475-5.227l1.395 1.592c0.053 0.063 0.131 0.095 0.212 0.095 0.063 0 0.131-0.023 0.184-0.068 0.117-0.104 0.125-0.279 0.027-0.392l-1.4-1.596c1.26-1.052 2.839-1.732 4.571-1.863l-2.375 2.353c-0.108 0.108-0.108 0.284 0 0.392 0.053 0.053 0.125 0.081 0.197 0.081s0.14-0.027 0.197-0.081l2.609-2.583 2.533 2.533c0.108 0.108 0.284 0.108 0.392 0s0.108-0.284 0-0.392l-2.303-2.303c1.427 0.108 2.784 0.585 3.968 1.399 0.125 0.085 0.301 0.053 0.387-0.072s0.053-0.301-0.072-0.387c-1.368-0.94-2.96-1.463-4.624-1.512v-0.199c0.52-0.125 0.939-0.571 1.019-1.12zM9.189 9.395c0.157 0 0.305-0.036 0.436-0.099l0.4 0.459c-1.588 1.516-2.6 3.625-2.681 5.969l-0.225-0.013c-0.108-0.527-0.517-0.94-1.044-1.048 0.275-2.083 1.192-3.963 2.541-5.439 0.168 0.108 0.361 0.171 0.573 0.171zM8.725 8.379c0-0.023 0-0.040 0.004-0.063 0-0.013 0.004-0.023 0.004-0.036 0.040-0.197 0.212-0.351 0.419-0.364 0.009 0 0.017 0 0.023 0s0.004 0 0.009 0c0.212 0 0.392 0.144 0.445 0.341 0.009 0.040 0.017 0.081 0.017 0.121 0 0.032-0.004 0.063-0.009 0.095-0.040 0.197-0.212 0.351-0.419 0.364-0.013 0-0.023 0-0.036 0-0.059 0-0.117-0.013-0.167-0.032-0.164-0.063-0.291-0.233-0.291-0.427zM7.115 16.268l0.229 0.013c0.076 2.609 1.313 4.931 3.208 6.469-0.815-0.18-1.529-0.252-2.151-0.256-1.268-1.48-2.073-3.288-2.325-5.205 0.517-0.108 0.927-0.508 1.039-1.021zM7.92 16.637l7.463 7.463c-3.976-0.301-7.161-3.485-7.463-7.463zM15.24 5.436c0.121-0.841 0.535-1.965 0.751-2.056 0.248 0.095 0.629 1.26 0.747 2.051 0.023 0.159 0.036 0.303 0.036 0.42 0 0.049-0.004 0.095-0.013 0.14-0.068 0.364-0.387 0.643-0.773 0.643s-0.707-0.279-0.773-0.643c-0.009-0.045-0.013-0.095-0.013-0.14 0.004-0.123 0.017-0.261 0.040-0.415zM15.725 7.168v0.193c-2.007 0.063-3.841 0.815-5.281 2.020l-0.396-0.455c0.104-0.157 0.167-0.351 0.167-0.553 0-0.171-0.045-0.333-0.117-0.472 1.319-0.967 2.879-1.62 4.575-1.849 0.077 0.559 0.504 1.008 1.053 1.116zM8.856 6.107c0.495 0 0.972-0.112 1.421-0.337 0.027-0.013 2.596-1.349 4.673-1.529-0.135 0.455-0.225 0.927-0.269 1.251-1.848 0.229-3.553 0.944-4.98 2.005-0.152-0.089-0.324-0.139-0.512-0.139-0.157 0-0.305 0.036-0.436 0.099l-1.512-1.723c0.553 0.247 1.093 0.373 1.615 0.373zM6.611 8.891l0.023-0.032c0.468-0.773 0.585-1.656 0.351-2.583l1.349 1.543c-0.103 0.159-0.165 0.352-0.165 0.555 0 0.148 0.032 0.288 0.089 0.419-1.471 1.584-2.461 3.617-2.744 5.867-0.4 0.063-0.931 0.233-1.332 0.491 0.159-2.376 0.955-4.432 2.429-6.259zM4.16 15.972c0.009-0.261 0.733-0.621 1.304-0.737 0.125-0.027 0.243-0.040 0.341-0.040 0.076 0 0.144 0.009 0.216 0.032 0.328 0.095 0.571 0.396 0.571 0.756s-0.243 0.661-0.571 0.756c-0.068 0.017-0.14 0.032-0.216 0.032-0.104 0-0.22-0.013-0.341-0.040-0.571-0.121-1.296-0.481-1.304-0.743 0-0.012 0-0.012 0-0.016zM4.187 16.8c0.4 0.261 0.936 0.432 1.332 0.495 0.239 1.908 0.995 3.716 2.191 5.227-0.535 0.049-0.981 0.148-1.34 0.261-1.292-1.772-2.039-3.82-2.183-5.983zM6.769 23.304c-0.013-0.017-0.027-0.032-0.040-0.049 1.355-0.373 2.835-0.176 3.873 0.072 1.255 0.301 2.173 0.737 2.181 0.743l0.004-0.009c0.995 0.396 2.079 0.616 3.212 0.616 1.129 0 2.209-0.216 3.199-0.612v0c0 0 0.009-0.004 0.027-0.013 0.117-0.049 0.239-0.099 0.351-0.153 0.383-0.157 1.025-0.392 1.8-0.576 1.048-0.252 2.533-0.449 3.887-0.072-0.233 0.288-0.477 0.563-0.737 0.828-0.377-0.104-1.34-0.301-2.64-0.161-1.412 0.153-3.491 0.756-5.615 2.717v-0.491c0-0.153-0.125-0.279-0.279-0.279s-0.279 0.125-0.279 0.279v0.464c-2.109-1.939-4.179-2.537-5.583-2.691-1.332-0.144-2.308 0.072-2.663 0.171-0.236-0.243-0.475-0.508-0.699-0.783zM7.952 24.555c0.449-0.089 1.211-0.18 2.159-0.072 2.497 0.279 4.413 1.705 5.615 2.901v0.815c-0.040 0.023-0.085 0.049-0.135 0.085-0.292-0.373-0.675-0.809-1.156-1.232-1.133-1.003-3.041-2.137-5.677-1.821v0.004c-0.279-0.216-0.549-0.441-0.805-0.68zM14.939 28.964c-0.527-0.675-1.103-1.183-1.677-1.565l0.004-0.013c-0.013-0.004-0.027-0.009-0.040-0.009-0.959-0.625-1.921-0.9-2.695-1.012-0.364-0.189-0.724-0.4-1.071-0.629 1.696-0.049 3.235 0.527 4.593 1.719 0.468 0.409 0.837 0.832 1.116 1.196-0.087 0.093-0.164 0.197-0.231 0.315zM16.283 30.651c-0.068 0.081-0.14 0.161-0.22 0.243-0.017 0.017-0.040 0.040-0.063 0.059l-0.008 0.008v-0.009c-0.009-0.009-0.023-0.017-0.032-0.032-0.089-0.085-0.167-0.171-0.239-0.256-0.328-0.392-0.472-0.756-0.423-1.088 0.004-0.027 0.009-0.053 0.017-0.081 0.036-0.144 0.104-0.269 0.184-0.377 0.068-0.089 0.144-0.167 0.22-0.233 0.068-0.059 0.135-0.108 0.193-0.148 0.027-0.017 0.049-0.032 0.072-0.045 0 0 0.004 0 0.004-0.004h0.004c0.032 0.017 0.063 0.040 0.104 0.068 0.053 0.036 0.117 0.085 0.18 0.14 0.081 0.072 0.161 0.157 0.229 0.252 0.081 0.117 0.148 0.248 0.176 0.396 0 0.009 0.004 0.023 0.009 0.032 0.051 0.325-0.089 0.685-0.409 1.077zM17.381 28.621c-0.009 0.009-0.017 0.017-0.023 0.027-0.104 0.117-0.197 0.233-0.284 0.347-0.068-0.117-0.144-0.225-0.225-0.32 0.279-0.364 0.657-0.801 1.133-1.219 1.349-1.188 2.884-1.764 4.567-1.723-0.351 0.229-0.711 0.445-1.080 0.635-1.925 0.292-3.243 1.291-4.088 2.253zM25.231 28.091c0.256 0 0.464 0.207 0.464 0.464s-0.207 0.464-0.464 0.464-0.464-0.207-0.464-0.464c0.001-0.252 0.208-0.464 0.464-0.464zM26.635 29.535c0.612 0.18 1.044 0.851 1.16 1.052 0.144 0.252 0.337 0.585 0.621 0.845h-3.109c-0.117-0.423-0.284-0.823-0.495-1.192 0.343-0.611 1.107-0.916 1.823-0.705zM2.932 9.993c0 0.455 0.369 0.828 0.828 0.828s0.827-0.369 0.827-0.828c0-0.455-0.369-0.828-0.828-0.828s-0.827 0.373-0.827 0.828zM4.029 9.993c0 0.148-0.121 0.269-0.269 0.269s-0.269-0.121-0.269-0.269 0.121-0.269 0.269-0.269c0.148-0.001 0.269 0.121 0.269 0.269zM28.983 9.993c0-0.455-0.369-0.828-0.828-0.828-0.455 0-0.828 0.369-0.828 0.828 0 0.455 0.369 0.828 0.828 0.828s0.828-0.369 0.828-0.828zM27.885 9.993c0-0.148 0.121-0.269 0.269-0.269s0.269 0.121 0.269 0.269-0.121 0.269-0.269 0.269c-0.148 0.005-0.269-0.116-0.269-0.269zM29.779 12.053c-0.104-0.040-0.225-0.017-0.305 0.063-0.364 0.373-0.963 0.36-0.972 0.36-0.004 0-0.009 0-0.009 0-0.148 0-0.269 0.117-0.279 0.265-0.004 0.153 0.112 0.284 0.265 0.288 0.027 0 0.468 0.013 0.917-0.193v4.539c0 0.153 0.125 0.279 0.279 0.279s0.279-0.125 0.279-0.279v-5.065c-0.004-0.112-0.071-0.216-0.175-0.256zM2.307 17.655c0.153 0 0.279-0.125 0.279-0.279v-4.54c0.449 0.207 0.891 0.193 0.917 0.193 0.153-0.004 0.275-0.135 0.265-0.288-0.004-0.152-0.135-0.273-0.288-0.265-0.004 0-0.607 0.013-0.972-0.36-0.080-0.080-0.197-0.103-0.305-0.063-0.104 0.040-0.171 0.144-0.171 0.256v5.069c-0.005 0.155 0.121 0.276 0.275 0.276zM29.999 22.283c0-0.153-0.125-0.279-0.279-0.279h-1.8c-0.153 0-0.279 0.125-0.279 0.279s0.125 0.279 0.279 0.279h1.8c0.153 0.001 0.279-0.121 0.279-0.279zM28.132 23.349c0.153 0 0.279-0.125 0.279-0.279s-0.125-0.279-0.279-0.279h-0.693c-0.153 0-0.279 0.125-0.279 0.279s0.125 0.279 0.279 0.279zM28.807 23.863c0-0.153-0.125-0.279-0.279-0.279h-1.719c-0.153 0-0.279 0.125-0.279 0.279s0.125 0.279 0.279 0.279h1.719c0.153 0 0.279-0.121 0.279-0.279zM27.719 24.659c0-0.153-0.125-0.279-0.279-0.279h-1.345c-0.153 0-0.279 0.125-0.279 0.279s0.125 0.279 0.279 0.279h1.345c0.152 0 0.279-0.125 0.279-0.279zM25.221 25.176c-0.153 0-0.279 0.125-0.279 0.279s0.125 0.279 0.279 0.279h0.765c0.153 0 0.279-0.125 0.279-0.279s-0.125-0.279-0.279-0.279zM29.72 20.416h-1.003c-0.153 0-0.279 0.125-0.279 0.279s0.125 0.279 0.279 0.279h1.003c0.153 0 0.279-0.125 0.279-0.279 0-0.152-0.125-0.279-0.279-0.279zM29.72 21.212h-1.399c-0.153 0-0.279 0.125-0.279 0.279s0.125 0.279 0.279 0.279h1.399c0.153 0 0.279-0.125 0.279-0.279s-0.125-0.279-0.279-0.279zM29.72 18.828h-0.445c-0.153 0-0.279 0.125-0.279 0.279s0.125 0.279 0.279 0.279h0.445c0.153 0 0.279-0.125 0.279-0.279 0-0.152-0.125-0.279-0.279-0.279zM29.72 19.624h-0.684c-0.153 0-0.279 0.125-0.279 0.279s0.125 0.279 0.279 0.279h0.684c0.153 0 0.279-0.125 0.279-0.279 0-0.152-0.125-0.279-0.279-0.279zM2.297 18.015c0.155 0 0.279 0.125 0.279 0.279 0 0.155-0.125 0.279-0.279 0.279-0.155 0-0.279-0.125-0.279-0.279 0-0.155 0.124-0.279 0.279-0.279zM3.421 24.388c0.155 0 0.279 0.125 0.279 0.279 0 0.155-0.125 0.279-0.279 0.279-0.155 0-0.279-0.125-0.279-0.279s0.125-0.279 0.279-0.279zM5.212 25.185c0.155 0 0.279 0.125 0.279 0.279 0 0.155-0.125 0.279-0.279 0.279s-0.279-0.125-0.279-0.279c0-0.155 0.125-0.279 0.279-0.279zM2.271 22.571h1.8c0.153 0 0.279-0.125 0.279-0.279s-0.127-0.279-0.28-0.279h-1.8c-0.153 0-0.279 0.125-0.279 0.279 0 0.157 0.127 0.279 0.28 0.279zM4.551 22.805h-0.693c-0.153 0-0.279 0.125-0.279 0.279s0.125 0.279 0.279 0.279h0.693c0.153 0 0.279-0.125 0.279-0.279s-0.125-0.279-0.279-0.279zM5.181 23.597h-1.719c-0.153 0-0.279 0.125-0.279 0.279s0.125 0.279 0.279 0.279h1.719c0.153 0 0.279-0.125 0.279-0.279 0-0.157-0.127-0.279-0.279-0.279zM5.896 24.388h-1.345c-0.153 0-0.279 0.125-0.279 0.279s0.125 0.279 0.279 0.279h1.345c0.153 0 0.279-0.125 0.279-0.279 0-0.152-0.125-0.279-0.279-0.279zM5.725 25.464c0 0.153 0.125 0.279 0.279 0.279h0.765c0.153 0 0.279-0.125 0.279-0.279s-0.125-0.279-0.279-0.279h-0.765c-0.153 0-0.279 0.125-0.279 0.279zM2.271 20.983h1.003c0.153 0 0.279-0.125 0.279-0.279s-0.125-0.279-0.279-0.279h-1.003c-0.153 0-0.279 0.125-0.279 0.279-0.001 0.153 0.125 0.279 0.279 0.279zM2.271 21.78h1.399c0.153 0 0.279-0.125 0.279-0.279s-0.125-0.279-0.279-0.279h-1.399c-0.153 0-0.279 0.125-0.279 0.279s0.125 0.279 0.279 0.279zM2.271 19.395h0.445c0.153 0 0.279-0.125 0.279-0.279s-0.125-0.279-0.279-0.279h-0.445c-0.153 0-0.279 0.125-0.279 0.279s0.125 0.279 0.279 0.279zM2.271 20.187h0.684c0.153 0 0.279-0.125 0.279-0.279s-0.125-0.279-0.279-0.279h-0.684c-0.153 0-0.279 0.125-0.279 0.279-0.001 0.157 0.125 0.279 0.279 0.279zM15.995 30.956v0c0.004-0.004 0-0.004 0-0.009zM28.645 5.567c0.004 0 0.004 0 0 0 0.125 0 0.239-0.085 0.269-0.212 0.099-0.396 0.059-0.733-0.131-1.012-0.301-0.449-0.855-0.535-0.917-0.544-0.144-0.017-0.279 0.072-0.311 0.216-0.104 0.472-0.045 0.851 0.18 1.129 0.333 0.404 0.855 0.419 0.909 0.423zM28.331 4.657c0.053 0.085 0.085 0.184 0.085 0.301-0.081-0.032-0.171-0.081-0.233-0.161-0.072-0.089-0.108-0.207-0.108-0.356 0.089 0.045 0.188 0.117 0.256 0.216zM26.837 1.545c-0.301-0.449-0.855-0.535-0.917-0.544-0.144-0.017-0.279 0.072-0.311 0.216-0.104 0.472-0.045 0.851 0.18 1.129 0.324 0.405 0.845 0.419 0.904 0.419v0c0.125 0 0.239-0.085 0.269-0.212 0.104-0.388 0.063-0.729-0.125-1.008zM26.229 1.999c-0.072-0.089-0.108-0.207-0.108-0.356 0.095 0.045 0.193 0.117 0.256 0.216 0.053 0.085 0.085 0.184 0.085 0.301-0.080-0.031-0.171-0.080-0.233-0.161zM4.177 3.799c-0.063 0.009-0.612 0.095-0.917 0.544-0.184 0.279-0.229 0.616-0.131 1.012 0.032 0.121 0.144 0.212 0.271 0.212v0c0.059 0 0.58-0.013 0.904-0.419 0.224-0.279 0.283-0.661 0.18-1.129-0.028-0.144-0.163-0.237-0.307-0.22zM3.876 4.797c-0.063 0.081-0.153 0.131-0.239 0.161 0-0.117 0.032-0.22 0.085-0.301 0.068-0.099 0.167-0.171 0.256-0.216 0.001 0.149-0.035 0.267-0.103 0.356zM6.085 1c-0.063 0.009-0.612 0.095-0.919 0.545-0.184 0.279-0.229 0.616-0.129 1.012 0.031 0.121 0.144 0.211 0.269 0.211v0c0.059 0 0.58-0.013 0.904-0.419 0.225-0.279 0.284-0.661 0.18-1.129-0.031-0.143-0.161-0.237-0.305-0.22zM5.779 1.999c-0.063 0.081-0.152 0.131-0.237 0.163 0-0.117 0.032-0.22 0.085-0.301 0.067-0.099 0.165-0.171 0.256-0.216 0 0.148-0.032 0.265-0.104 0.355zM24.772 14.083c0.017 0.144 0.135 0.248 0.275 0.248 0.009 0 0.023 0 0.032 0 0.153-0.017 0.261-0.157 0.243-0.311-0.279-2.429-1.939-4.148-2.011-4.22-0.108-0.108-0.284-0.112-0.392-0.004s-0.112 0.284-0.004 0.392c0.017 0.016 1.601 1.659 1.857 3.895zM6.957 14.325c0.009 0 0.023 0 0.032 0 0.14 0 0.261-0.104 0.275-0.248 0.256-2.235 1.84-3.877 1.853-3.891 0.108-0.108 0.104-0.288-0.004-0.392-0.109-0.108-0.289-0.108-0.392 0.005-0.072 0.072-1.728 1.791-2.011 4.22-0.013 0.152 0.095 0.287 0.247 0.305z"></path>
</symbol>
<symbol id="icon-html5" viewBox="0 0 32 32">
<path fill="#e34f26" style="fill: var(--color17, #e34f26)" d="M2 0h28l-2.547 28.751-11.484 3.249-11.419-3.251zM11.375 13l-0.309-3.624 13.412 0.004 0.307-3.496-17.568-0.004 0.931 10.68h12.168l-0.435 4.568-3.88 1.072-3.94-1.080-0.251-2.813h-3.479l0.44 5.561 7.229 1.933 7.172-1.924 0.992-10.876z"></path>
</symbol>
<symbol id="icon-inkscape" viewBox="0 0 32 32">
<path d="M15.829 0.255c-0.993-0.015-1.952 0.371-2.657 1.072l-11.767 12.051c-4.457 4.453 2.885 4.081 5.539 5.767 1.229 0.803-3.94 1.828-2.885 2.885 1.028 1.057 6.2 2.028 7.229 3.057 1.028 1.055-2.085 2.169-1.057 3.224 1 1.057 3.399 0.057 3.827 2.456 0.313 1.771 4.4 0.888 6.229-0.628 1.139-0.972-1.972-0.972-0.944-2.028 2.572-2.599 4.856-1.167 5.799-3.568 0.516-1.284-3.884-2.2-2.712-3.028 2.801-1.969 13.083-2.969 8.34-7.709l-12.196-12.479c-0.747-0.695-1.727-1.076-2.744-1.072zM15.929 1.4c0.705 0.004 1.413 0.268 1.925 0.779l4.656 4.743c0.431 0.428 0.431 1.315 0.172 1.571l-2.312-1.883-0.457 2.769-1.913-1.029-3.115 1.971-1.028-4.14-1.656 3.597-4.143-0.029c-0.8 0-0.685-0.828 0.143-1.656 1.628-1.8 4.8-4.853 5.8-5.911 0.513-0.528 1.22-0.785 1.927-0.779zM28.936 23.101c-0.987 0.033-1.995 0.527-2.252 1.44 0 0.599 4.656 0.943 4.401-0.143-0.188-0.915-1.16-1.336-2.148-1.3zM8.475 25.695c-1.344 0.079-2.784 1.055-1.643 2.016 1.055 0.915 2.656-0.2 3.169-1.484-0.32-0.421-0.915-0.568-1.524-0.531zM26.113 25.797c-1.315 1.2 0.227 2.456 1.512 1.628 0.344-0.231-0.028-1.34-1.512-1.628z"></path>
</symbol>
<symbol id="icon-javascript" viewBox="0 0 32 32">
<path fill="#f7df1e" style="fill: var(--color18, #f7df1e)" d="M0 0h32v32h-32zM29.379 24.368c-0.233-1.46-1.184-2.687-4.004-3.831-0.981-0.46-2.072-0.78-2.396-1.52-0.121-0.44-0.14-0.68-0.061-0.94 0.2-0.861 1.22-1.12 2.020-0.88 0.52 0.16 1 0.56 1.301 1.2 1.379-0.901 1.379-0.901 2.34-1.5-0.36-0.56-0.539-0.801-0.781-1.040-0.84-0.94-1.959-1.42-3.779-1.379l-0.94 0.119c-0.901 0.22-1.76 0.7-2.28 1.34-1.52 1.721-1.081 4.721 0.759 5.961 1.82 1.36 4.481 1.659 4.821 2.94 0.32 1.56-1.16 2.060-2.621 1.88-1.081-0.24-1.68-0.781-2.34-1.781l-2.44 1.401c0.28 0.64 0.6 0.919 1.080 1.479 2.32 2.341 8.12 2.221 9.161-1.339 0.039-0.12 0.32-0.94 0.099-2.2zM17.401 14.708h-2.997c0 2.584-0.012 5.152-0.012 7.74 0 1.643 0.084 3.151-0.184 3.615-0.44 0.919-1.573 0.801-2.088 0.64-0.528-0.261-0.796-0.621-1.107-1.14-0.084-0.14-0.147-0.261-0.169-0.261l-2.433 1.5c0.407 0.84 1 1.563 1.765 2.023 1.14 0.68 2.672 0.9 4.276 0.54 1.044-0.301 1.944-0.921 2.415-1.881 0.68-1.24 0.536-2.76 0.529-4.461 0.016-2.739 0-5.479 0-8.239z"></path>
</symbol>
<symbol id="icon-laravel" viewBox="0 0 32 32">
<path fill="#ff2d20" style="fill: var(--color19, #ff2d20)" d="M31.525 7.24c0.012 0.043 0.019 0.087 0.019 0.132v6.867c0 0.18-0.097 0.347-0.252 0.435l-5.764 3.32v6.579c0 0.18-0.096 0.344-0.251 0.435l-12.036 6.927c-0.028 0.016-0.057 0.027-0.088 0.036-0.011 0.003-0.021 0.011-0.032 0.013-0.084 0.024-0.173 0.024-0.256 0-0.015-0.003-0.027-0.011-0.039-0.016-0.028-0.011-0.057-0.019-0.084-0.033l-12.031-6.927c-0.156-0.091-0.252-0.255-0.252-0.435v-20.607c0-0.044 0.007-0.088 0.019-0.131 0.004-0.016 0.013-0.028 0.019-0.043 0.008-0.027 0.019-0.053 0.031-0.077 0.005-0.017 0.020-0.029 0.031-0.044 0.016-0.021 0.028-0.041 0.044-0.060 0.016-0.013 0.033-0.024 0.049-0.036 0.019-0.016 0.036-0.032 0.055-0.045h0.001l6.017-3.463c0.153-0.089 0.345-0.089 0.5 0l6.019 3.463c0.020 0.013 0.036 0.028 0.055 0.044 0.016 0.012 0.033 0.024 0.049 0.036 0.017 0.019 0.028 0.039 0.044 0.060 0.011 0.015 0.027 0.028 0.033 0.044 0.015 0.025 0.023 0.051 0.032 0.077 0.004 0.015 0.015 0.028 0.017 0.043 0.013 0.041 0.019 0.085 0.019 0.131v12.869l5.013-2.885v-6.579c0-0.044 0.007-0.088 0.019-0.131 0.004-0.015 0.012-0.028 0.017-0.043 0.009-0.027 0.019-0.052 0.032-0.079 0.009-0.016 0.024-0.028 0.033-0.044 0.016-0.020 0.028-0.040 0.044-0.057 0.016-0.016 0.033-0.027 0.049-0.037 0.019-0.015 0.035-0.031 0.055-0.043h0.001l6.017-3.464c0.155-0.089 0.345-0.089 0.5 0l6.017 3.464c0.021 0.013 0.036 0.028 0.056 0.041 0.016 0.013 0.033 0.024 0.048 0.037 0.017 0.019 0.029 0.039 0.045 0.059 0.011 0.016 0.025 0.028 0.032 0.044 0.015 0.027 0.024 0.052 0.032 0.079 0.008 0.015 0.016 0.029 0.020 0.044zM30.539 13.949v-5.711l-5.013 2.885v5.711zM24.524 24.283v-5.716l-11.031 6.297v5.768zM1.46 4.832v19.451l11.031 6.349v-5.768l-5.768-3.264c-0.019-0.013-0.033-0.028-0.053-0.041-0.015-0.013-0.032-0.024-0.047-0.036l-0.001-0.003c-0.017-0.016-0.028-0.033-0.041-0.052-0.013-0.016-0.028-0.031-0.037-0.049h-0.003c-0.011-0.019-0.017-0.041-0.027-0.063-0.008-0.021-0.019-0.036-0.024-0.057-0.005-0.024-0.008-0.049-0.011-0.076-0.003-0.019-0.008-0.036-0.008-0.055v-13.449l-2.907-1.676zM6.975 1.080l-5.013 2.885 5.013 2.885 5.011-2.885zM9.583 19.087l2.909-1.675v-12.58l-5.016 2.887v12.58zM25.025 4.485l-5.013 2.885 5.013 2.884 5.012-2.885zM24.524 11.124l-5.015-2.885v5.711l5.015 2.885zM12.991 23.996l11.027-6.293-5.009-2.884-11.020 6.345z"></path>
</symbol>
<symbol id="icon-mongodb" viewBox="0 0 32 32">
<path fill="#47a248" style="fill: var(--color20, #47a248)" d="M22.907 12.691c-1.684-7.413-5.656-9.849-6.083-10.781-0.469-0.657-0.977-1.909-0.977-1.909-0.003 0.025-0.005 0.041-0.007 0.065v0.017h-0.001c-0.003 0.020-0.004 0.033-0.005 0.052v0.020h-0.003c0 0.013-0.003 0.024-0.003 0.035v0.035h-0.004c-0.001 0.011-0.001 0.024-0.004 0.033v0.028h-0.003c0 0.009 0 0.020-0.003 0.028v0.027h-0.003c0 0.013-0.001 0.029-0.003 0.043v0.003c-0.004 0.023-0.008 0.045-0.012 0.067v0.011h-0.003c-0.001 0.005-0.004 0.011-0.004 0.016v0.023h-0.004v0.029h-0.007v0.024h-0.007v0.028h-0.005v0.025h-0.005v0.023h-0.008v0.019h-0.005v0.024h-0.005v0.019h-0.007v0.017h-0.004v0.020h-0.005c-0.001 0.001-0.001 0.004-0.001 0.005v0.013h-0.004c-0.001 0.003-0.001 0.005-0.001 0.008v0.008h-0.003c-0.001 0.004-0.003 0.011-0.003 0.013-0.004 0.009-0.009 0.019-0.013 0.028v0.003c-0.003 0.003-0.005 0.007-0.007 0.009v0.011h-0.005v0.011h-0.007v0.011h-0.004v0.013h-0.008v0.019h-0.005v0.005h-0.005v0.011h-0.005v0.015h-0.005v0.011h-0.008v0.015h-0.005v0.011h-0.007v0.011h-0.004v0.013h-0.007v0.011h-0.005v0.008h-0.005v0.011h-0.008v0.012h-0.005v0.008h-0.007v0.011h-0.005v0.015h-0.007v0.005h-0.004v0.011h-0.008v0.005h-0.005v0.013h-0.005v0.005h-0.005v0.011h-0.007v0.008h-0.004l-0.003 0.005v0.005h-0.003c-0.001 0.003-0.003 0.003-0.003 0.005v0.001h-0.001c-0.001 0.004-0.003 0.007-0.005 0.009v0.004h-0.001c-0.007 0.008-0.011 0.016-0.016 0.024v0.001c-0.003 0.003-0.009 0.008-0.012 0.013v0.003h-0.001c-0.001 0.001-0.004 0.003-0.004 0.004v0.004h-0.003l-0.004 0.004v0.001h-0.001c0 0.001-0.003 0.003-0.004 0.005v0.005h-0.004l-0.003 0.003v0.003h-0.003c0 0.003-0.003 0.003-0.003 0.004v0.004h-0.005c0 0.001-0.001 0.003-0.003 0.004v0.008h-0.004v0.005h-0.005v0.008h-0.005v0.011h-0.007v-0.011h-0.007v0.005h-0.005v0.008h-0.007v0.011h-0.007v0.005h-0.005v0.008h-0.005v0.005h-0.005v0.011h-0.008v0.005h-0.005v0.008h-0.007v0.005h-0.005v0.007h-0.007v0.013h-0.003v0.005h-0.008v0.007h-0.005v0.003h-0.005v0.005h-0.007v0.013h-0.005v0.005h-0.007v0.005h-0.005v0.008h-0.007v0.005h-0.007v0.005h-0.005v0.005h-0.005v0.013h-0.005v0.007h-0.008v0.005h-0.005v0.005h-0.007v0.008h-0.005v0.005h-0.007v0.009h-0.005v0.005h-0.008v0.008h-0.003v0.005h-0.005v0.005h-0.007v0.005h-0.005v0.008h-0.007v0.005h-0.004c-0.001 0.001-0.001 0.003-0.001 0.003v0.003h-0.003l-0.005 0.005c0 0-0.003 0.003-0.005 0.004v0.008h-0.005v0.007h-0.005v0.005h-0.005v0.005h-0.004l-0.004 0.004v0.004h-0.003l-0.003 0.003v0.004h-0.003c-0.007 0.008-0.009 0.013-0.019 0.021-0.003 0.003-0.011 0.009-0.016 0.013-0.016 0.011-0.036 0.028-0.052 0.043-0.011 0.007-0.021 0.016-0.029 0.023v0.001h-0.001c-0.021 0.017-0.041 0.033-0.065 0.052v0.001c-0.032 0.027-0.063 0.052-0.099 0.083v-0.001h-0.003c-0.076 0.063-0.156 0.133-0.248 0.212v0.001h-0.001c-0.225 0.197-0.493 0.451-0.793 0.757l-0.025 0.025c-1.813 1.876-4.671 5.785-4.972 12.103-0.027 0.523-0.021 1.031 0.008 1.525v0.012c0.145 2.489 0.927 4.615 1.904 6.341v0.001c0.389 0.688 0.809 1.313 1.235 1.873v0.001c1.469 1.94 2.969 3.089 3.352 3.368 0.588 1.364 0.533 3.705 0.533 3.705l0.859 0.287c0 0-0.175-2.268 0.071-3.363 0.076-0.343 0.256-0.635 0.465-0.883 0.141-0.1 0.56-0.401 1.063-0.86 0.024-0.025 0.037-0.048 0.059-0.072 2.028-1.891 5.816-6.547 4.517-14.132z"></path>
</symbol>
<symbol id="icon-mysql" viewBox="0 0 32 32">
<path fill="#4479a1" style="fill: var(--color21, #4479a1)" d="M21.873 7.568c-0.153 0-0.257 0.019-0.365 0.044v0.017h0.019c0.072 0.139 0.195 0.24 0.285 0.364 0.072 0.143 0.133 0.285 0.205 0.427l0.019-0.020c0.125-0.088 0.187-0.229 0.187-0.444-0.053-0.063-0.061-0.125-0.107-0.187-0.053-0.089-0.168-0.133-0.243-0.201zM7.693 25.16h-1.236c-0.040-2.083-0.164-4.040-0.36-5.88h-0.011l-1.88 5.88h-0.94l-1.867-5.88h-0.013c-0.137 1.764-0.224 3.724-0.26 5.88h-1.127c0.073-2.621 0.256-5.080 0.547-7.373h1.533l1.78 5.419h0.011l1.796-5.419h1.46c0.323 2.687 0.512 5.147 0.567 7.373zM13.049 19.72c-0.504 2.727-1.168 4.711-1.989 5.947-0.643 0.955-1.347 1.431-2.111 1.431-0.204 0-0.453-0.061-0.755-0.184v-0.659c0.147 0.023 0.32 0.035 0.515 0.035 0.357 0 0.644-0.1 0.863-0.296 0.263-0.24 0.393-0.509 0.393-0.807 0-0.207-0.103-0.627-0.307-1.259l-1.352-4.208h1.213l0.969 3.147c0.219 0.715 0.311 1.213 0.273 1.497 0.533-1.419 0.904-2.969 1.113-4.644zM29.483 25.16h-3.507v-7.373h1.18v6.467h2.327zM25.056 25.34l-1.355-0.667c0.12-0.101 0.236-0.211 0.34-0.333 0.577-0.675 0.864-1.677 0.864-3.004 0-2.44-0.957-3.661-2.873-3.661-0.939 0-1.672 0.309-2.2 0.929-0.573 0.677-0.861 1.675-0.861 2.993 0 1.296 0.253 2.248 0.765 2.853 0.467 0.547 1.169 0.82 2.111 0.82 0.352 0 0.675-0.044 0.967-0.131l1.767 1.029zM20.667 23.684c-0.3-0.48-0.449-1.253-0.449-2.315 0-1.857 0.565-2.787 1.693-2.787 0.591 0 1.027 0.223 1.303 0.667 0.299 0.483 0.448 1.248 0.448 2.297 0 1.872-0.565 2.811-1.693 2.811-0.593 0-1.027-0.223-1.301-0.673zM18.456 23.117c0 0.627-0.229 1.141-0.688 1.541s-1.071 0.6-1.845 0.6c-0.724 0-1.419-0.229-2.097-0.687l0.316-0.635c0.584 0.293 1.111 0.437 1.587 0.437 0.443 0 0.791-0.097 1.044-0.293 0.251-0.196 0.4-0.472 0.4-0.82 0-0.44-0.307-0.813-0.864-1.127-0.517-0.284-1.551-0.876-1.551-0.876-0.563-0.409-0.843-0.848-0.843-1.569 0-0.6 0.209-1.080 0.627-1.447 0.42-0.371 0.96-0.553 1.627-0.553 0.683 0 1.307 0.181 1.867 0.547l-0.284 0.635c-0.48-0.203-0.953-0.307-1.419-0.307-0.377 0-0.669 0.091-0.872 0.275-0.204 0.181-0.331 0.413-0.331 0.699 0 0.437 0.312 0.813 0.888 1.133 0.524 0.287 1.583 0.893 1.583 0.893 0.577 0.407 0.864 0.84 0.856 1.553zM30.965 15.315c-0.713-0.019-1.267 0.053-1.729 0.251-0.133 0.053-0.347 0.053-0.365 0.223 0.073 0.071 0.084 0.187 0.147 0.285 0.107 0.179 0.291 0.417 0.461 0.543 0.187 0.147 0.373 0.288 0.569 0.413 0.347 0.213 0.74 0.34 1.080 0.555 0.193 0.125 0.391 0.284 0.587 0.417 0.097 0.067 0.16 0.187 0.285 0.229v-0.027c-0.061-0.080-0.080-0.196-0.14-0.285-0.089-0.089-0.179-0.169-0.267-0.257-0.259-0.347-0.58-0.649-0.927-0.9-0.285-0.195-0.909-0.467-1.027-0.793l-0.017-0.019c0.195-0.017 0.427-0.088 0.613-0.141 0.303-0.080 0.58-0.063 0.893-0.141 0.141-0.036 0.284-0.080 0.427-0.125v-0.080c-0.16-0.16-0.28-0.377-0.445-0.527-0.453-0.393-0.956-0.776-1.472-1.097-0.28-0.179-0.635-0.293-0.929-0.445-0.107-0.053-0.285-0.080-0.347-0.169-0.16-0.195-0.253-0.453-0.367-0.685-0.256-0.491-0.507-1.033-0.729-1.551-0.16-0.349-0.257-0.697-0.453-1.017-0.92-1.516-1.916-2.435-3.448-3.333-0.329-0.187-0.724-0.267-1.141-0.365-0.223-0.011-0.445-0.027-0.667-0.036-0.147-0.063-0.288-0.232-0.413-0.313-0.507-0.32-1.819-1.013-2.192-0.096-0.24 0.579 0.356 1.149 0.563 1.443 0.153 0.204 0.347 0.437 0.453 0.667 0.063 0.155 0.080 0.313 0.143 0.475 0.141 0.392 0.276 0.829 0.463 1.196 0.097 0.187 0.204 0.383 0.329 0.551 0.072 0.097 0.195 0.143 0.223 0.303-0.125 0.181-0.133 0.445-0.205 0.667-0.32 1.009-0.195 2.257 0.259 3 0.143 0.221 0.483 0.712 0.937 0.524 0.4-0.16 0.312-0.667 0.427-1.113 0.027-0.107 0.009-0.177 0.064-0.249v0.020c0.125 0.251 0.251 0.489 0.365 0.74 0.275 0.437 0.755 0.891 1.156 1.193 0.213 0.16 0.383 0.437 0.649 0.536v-0.027h-0.020c-0.057-0.077-0.133-0.115-0.205-0.177-0.16-0.16-0.34-0.356-0.467-0.533-0.373-0.503-0.703-1.053-0.996-1.624-0.147-0.28-0.269-0.581-0.387-0.857-0.053-0.107-0.053-0.267-0.143-0.32-0.133 0.195-0.329 0.364-0.427 0.604-0.169 0.384-0.187 0.856-0.251 1.347-0.036 0.009-0.019 0-0.036 0.019-0.285-0.069-0.383-0.365-0.489-0.613-0.267-0.633-0.311-1.651-0.080-2.38 0.063-0.187 0.329-0.776 0.223-0.955-0.056-0.169-0.232-0.267-0.329-0.404-0.116-0.165-0.24-0.38-0.32-0.569-0.213-0.499-0.32-1.051-0.552-1.549-0.107-0.231-0.293-0.472-0.445-0.684-0.169-0.24-0.356-0.409-0.491-0.693-0.044-0.097-0.107-0.259-0.036-0.365 0.019-0.072 0.056-0.1 0.125-0.12 0.117-0.096 0.447 0.029 0.563 0.083 0.329 0.133 0.607 0.259 0.883 0.445 0.125 0.088 0.26 0.257 0.42 0.301h0.187c0.285 0.063 0.607 0.019 0.873 0.097 0.473 0.152 0.9 0.373 1.283 0.613 1.168 0.741 2.128 1.793 2.78 3.048 0.107 0.205 0.153 0.393 0.251 0.607 0.187 0.44 0.417 0.884 0.607 1.309 0.187 0.42 0.367 0.848 0.635 1.196 0.133 0.187 0.669 0.284 0.909 0.381 0.177 0.080 0.453 0.153 0.613 0.251 0.307 0.187 0.605 0.4 0.893 0.605 0.147 0.101 0.591 0.324 0.617 0.504z"></path>
</symbol>
<symbol id="icon-node-dot-js" viewBox="0 0 32 32">
<path fill="#393" style="fill: var(--color22, #393)" d="M15.997 32c-0.428 0-0.855-0.112-1.229-0.329l-3.915-2.316c-0.584-0.327-0.299-0.443-0.107-0.511 0.78-0.271 0.937-0.333 1.771-0.805 0.087-0.049 0.201-0.031 0.291 0.023l3.008 1.785c0.109 0.060 0.263 0.060 0.363 0l11.727-6.768c0.109-0.063 0.179-0.188 0.179-0.317v-13.533c0-0.132-0.071-0.256-0.183-0.323l-11.721-6.763c-0.108-0.063-0.252-0.063-0.361 0l-11.719 6.764c-0.113 0.065-0.185 0.193-0.185 0.321v13.533c0 0.129 0.072 0.252 0.185 0.313l3.212 1.856c1.743 0.872 2.811-0.155 2.811-1.187v-13.361c0-0.189 0.152-0.337 0.341-0.337h1.487c0.185 0 0.34 0.149 0.34 0.337v13.361c0 2.327-1.267 3.66-3.472 3.66-0.677 0-1.212 0-2.701-0.735l-3.077-1.769c-0.76-0.439-1.229-1.26-1.229-2.139v-13.533c0-0.879 0.471-1.7 1.229-2.137l11.727-6.776c0.743-0.42 1.728-0.42 2.464 0l11.725 6.776c0.76 0.439 1.232 1.259 1.232 2.137v13.533c0 0.879-0.472 1.697-1.232 2.139l-11.725 6.771c-0.373 0.217-0.799 0.329-1.233 0.329zM25.465 18.657c0-2.533-1.712-3.208-5.316-3.684-3.641-0.481-4.012-0.731-4.012-1.583 0-0.704 0.313-1.644 3.011-1.644 2.409 0 3.297 0.519 3.663 2.143 0.032 0.153 0.172 0.265 0.329 0.265h1.521c0.095 0 0.184-0.041 0.248-0.108 0.064-0.072 0.099-0.164 0.089-0.261-0.236-2.797-2.095-4.101-5.851-4.101-3.344 0-5.339 1.411-5.339 3.777 0 2.567 1.984 3.276 5.193 3.593 3.84 0.376 4.137 0.937 4.137 1.692 0 1.311-1.052 1.869-3.523 1.869-3.103 0-3.785-0.779-4.015-2.323-0.027-0.165-0.168-0.287-0.337-0.287h-1.516c-0.188 0-0.339 0.149-0.339 0.337 0 1.976 1.075 4.331 6.207 4.331 3.717 0.001 5.848-1.461 5.848-4.017z"></path>
</symbol>
<symbol id="icon-npm" viewBox="0 0 32 32">
<path fill="#cb3837" style="fill: var(--color23, #cb3837)" d="M0 9.779v10.667h8.888v1.776h7.112v-1.776h16v-10.667zM8.888 18.664h-1.776v-5.333h-1.78v5.333h-3.552v-7.108h7.108zM14.221 18.664v1.781h-3.553v-8.889h7.112v7.109h-3.559zM30.223 18.664h-1.773v-5.333h-1.781v5.333h-1.78v-5.333h-1.773v5.333h-3.561v-7.108h10.669zM14.22 13.333h1.78v3.556h-1.78z"></path>
</symbol>
<symbol id="icon-php" viewBox="0 0 32 32">
<path fill="#777bb4" style="fill: var(--color24, #777bb4)" d="M9.347 13.609h-1.259l-0.687 3.531h1.117c0.741 0 1.293-0.14 1.656-0.419 0.363-0.28 0.607-0.745 0.733-1.399 0.123-0.627 0.067-1.069-0.165-1.327-0.233-0.257-0.697-0.387-1.396-0.387zM16 7.584c-8.836 0-16 3.768-16 8.416s7.164 8.417 16 8.417 16-3.769 16-8.417-7.164-8.416-16-8.416zM11.653 17.519c-0.348 0.333-0.767 0.584-1.223 0.735-0.448 0.144-1.020 0.219-1.713 0.219h-1.575l-0.436 2.241h-1.837l1.64-8.435h3.533c1.063 0 1.837 0.279 2.325 0.837 0.488 0.557 0.635 1.336 0.44 2.336-0.082 0.425-0.223 0.803-0.416 1.148l0.010-0.019c-0.191 0.34-0.44 0.653-0.748 0.937zM17.019 18.472l0.724-3.732c0.084-0.424 0.052-0.715-0.091-0.868-0.143-0.155-0.448-0.232-0.916-0.232h-1.456l-0.939 4.833h-1.824l1.64-8.436h1.823l-0.436 2.243h1.624c1.023 0 1.727 0.179 2.115 0.535s0.504 0.933 0.351 1.732l-0.763 3.925zM27.148 15.452c-0.080 0.425-0.221 0.803-0.416 1.148l0.010-0.018c-0.191 0.34-0.44 0.653-0.748 0.937-0.338 0.323-0.746 0.574-1.2 0.728l-0.023 0.007c-0.448 0.144-1.020 0.219-1.715 0.219h-1.573l-0.436 2.243h-1.837l1.64-8.435h3.532c1.063 0 1.837 0.279 2.325 0.837 0.488 0.556 0.636 1.335 0.441 2.335zM23.688 13.609h-1.257l-0.688 3.531h1.117c0.743 0 1.295-0.14 1.656-0.419 0.363-0.28 0.607-0.745 0.735-1.399 0.123-0.627 0.065-1.069-0.167-1.327s-0.699-0.387-1.396-0.387z"></path>
</symbol>
<symbol id="icon-postman" viewBox="0 0 32 32">
<path fill="#ff6c37" style="fill: var(--color25, #ff6c37)" d="M18.036 0.132c-8.763-1.124-16.78 5.068-17.904 13.832-1.124 8.763 5.067 16.779 13.831 17.904 8.764 1.124 16.783-5.068 17.904-13.832 1.125-8.763-5.065-16.779-13.831-17.904zM21.331 10.112c-0.309 0.004-0.588 0.131-0.791 0.333v0l-5.937 5.937-1.267-1.267c5.852-5.835 6.907-5.891 7.995-5.004zM14.847 16.593l5.92-5.92c0.151-0.158 0.363-0.256 0.598-0.256 0.457 0 0.827 0.37 0.827 0.827 0 0.254-0.114 0.481-0.294 0.633l-0.001 0.001-6.265 5.5zM15.287 17.519l-1.467 0.317c-0.005 0.001-0.011 0.002-0.018 0.002-0.031 0-0.058-0.018-0.072-0.044l-0-0c-0.007-0.012-0.011-0.025-0.011-0.040 0-0.022 0.009-0.043 0.024-0.057v0l0.86-0.86zM11.549 16.907l1.563-1.563 1.172 1.171-2.639 0.568c-0.007 0.002-0.016 0.003-0.025 0.003-0.039 0-0.072-0.022-0.088-0.055l-0-0.001c-0.010-0.015-0.015-0.033-0.015-0.052 0-0.029 0.013-0.054 0.032-0.072l0-0zM6.688 24.984c-0.052-0.005-0.092-0.048-0.092-0.101 0-0.003 0-0.007 0-0.010l-0 0c0.003-0.024 0.013-0.045 0.029-0.061v0h0.003l1.261-1.261 1.629 1.629zM9.921 23.309c-0.098 0.052-0.164 0.153-0.164 0.27 0 0.025 0.003 0.050 0.009 0.073l-0-0.002 0.271 1.153c0.003 0.012 0.005 0.026 0.005 0.040 0 0.092-0.075 0.167-0.167 0.167-0.047 0-0.089-0.019-0.119-0.050l-0-0h-0.004l-1.637-1.639 5.016-5.011 2.427-0.524 1.165 1.165c-1.673 1.469-3.961 2.935-6.8 4.357zM16.96 18.739h-0.003l-1.119-1.119 6.265-5.5c0.058-0.052 0.11-0.107 0.157-0.167l0.002-0.003c-0.197 1.793-2.705 4.327-5.303 6.788zM21.836 10.125l-0.004-0.003c-0.437-0.439-0.707-1.045-0.707-1.714 0-1.342 1.088-2.429 2.429-2.429 0.594 0 1.138 0.213 1.561 0.567l-0.004-0.003-2.147 2.151c-0.029 0.029-0.047 0.069-0.047 0.113s0.018 0.084 0.047 0.113v0l1.663 1.663c-0.314 0.159-0.685 0.253-1.077 0.253-0.669 0-1.275-0.271-1.713-0.71v0zM25.273 10.125c-0.107 0.106-0.226 0.202-0.353 0.285l-0.009 0.005h-0.001l-1.609-1.609 2.044-2.044c0.881 0.96 0.849 2.443-0.072 3.363zM25.14 8.067c-0.048 0.035-0.079 0.091-0.079 0.154 0 0.020 0.003 0.039 0.008 0.056l-0-0.001c0.036 0.072 0.057 0.156 0.057 0.246 0 0.135-0.048 0.259-0.129 0.355l0.001-0.001c-0.025 0.032-0.040 0.072-0.040 0.116 0 0.059 0.028 0.112 0.071 0.146l0 0c0.031 0.024 0.069 0.039 0.112 0.040h0c0.057-0.001 0.107-0.026 0.141-0.066l0-0c0.133-0.159 0.213-0.365 0.213-0.589 0-0.15-0.036-0.292-0.1-0.417l0.002 0.005c-0.034-0.048-0.089-0.079-0.151-0.079-0.040 0-0.078 0.013-0.108 0.035l0.001-0z"></path>
</symbol>
<symbol id="icon-react" viewBox="0 0 32 32">
<path fill="#61dafb" style="fill: var(--color26, #61dafb)" d="M16 13.148c-1.575 0-2.852 1.277-2.852 2.852s1.277 2.852 2.852 2.852v0c1.575 0 2.852-1.277 2.852-2.852s-1.277-2.852-2.852-2.852v0zM8.011 21.673l-0.629-0.16c-4.691-1.185-7.381-3.197-7.381-5.519s2.691-4.333 7.381-5.519l0.629-0.159 0.177 0.624c0.545 1.86 1.163 3.443 1.899 4.957l-0.082-0.186 0.135 0.284-0.135 0.284c-0.656 1.329-1.275 2.912-1.761 4.551l-0.056 0.22zM7.089 11.933c-3.565 1.001-5.753 2.533-5.753 4.061 0 1.527 2.188 3.059 5.753 4.061 0.512-1.62 1.046-2.965 1.662-4.263l-0.086 0.202c-0.531-1.098-1.066-2.443-1.511-3.828l-0.065-0.234zM23.989 21.673l-0.177-0.625c-0.544-1.859-1.162-3.441-1.9-4.954l0.081 0.184-0.135-0.284 0.135-0.284c0.656-1.329 1.275-2.911 1.762-4.55l0.056-0.221 0.177-0.624 0.631 0.159c4.689 1.185 7.38 3.197 7.38 5.52s-2.691 4.333-7.38 5.519zM23.335 15.995c0.64 1.385 1.169 2.747 1.576 4.061 3.567-1.003 5.753-2.535 5.753-4.061 0-1.528-2.188-3.059-5.753-4.061-0.511 1.619-1.045 2.963-1.662 4.262l0.086-0.2zM7.080 11.927l-0.177-0.623c-1.319-4.648-0.919-7.979 1.097-9.141 1.977-1.141 5.152 0.207 8.479 3.621l0.453 0.465-0.453 0.465c-1.146 1.19-2.207 2.482-3.162 3.853l-0.068 0.103-0.18 0.257-0.313 0.027c-1.875 0.151-3.596 0.439-5.264 0.86l0.218-0.047zM9.608 3.087c-0.357 0-0.673 0.077-0.94 0.231-1.325 0.764-1.56 3.42-0.647 7.004 1.21-0.285 2.681-0.521 4.18-0.658l0.131-0.010c0.894-1.264 1.792-2.37 2.756-3.414l-0.020 0.022c-2.080-2.025-4.049-3.175-5.46-3.175zM22.393 30.236c-0.001 0-0.001 0 0 0-1.9 0-4.34-1.431-6.872-4.031l-0.453-0.465 0.453-0.465c1.146-1.19 2.206-2.482 3.16-3.854l0.068-0.103 0.18-0.257 0.312-0.027c1.875-0.15 3.597-0.438 5.267-0.858l-0.218 0.046 0.629-0.159 0.179 0.624c1.316 4.645 0.917 7.977-1.099 9.139-0.449 0.259-0.988 0.411-1.562 0.411-0.016 0-0.031-0-0.047-0l0.002 0zM16.932 25.728c2.080 2.025 4.049 3.175 5.46 3.175h0.001c0.356 0 0.673-0.077 0.939-0.231 1.325-0.764 1.561-3.421 0.647-7.005-1.212 0.286-2.682 0.522-4.182 0.658l-0.13 0.010c-0.893 1.265-1.791 2.371-2.755 3.416l0.020-0.022zM24.92 11.927l-0.629-0.159c-1.453-0.376-3.175-0.664-4.939-0.806l-0.111-0.007-0.312-0.027-0.18-0.257c-1.021-1.474-2.082-2.766-3.237-3.966l0.009 0.010-0.453-0.465 0.453-0.465c3.325-3.413 6.499-4.761 8.479-3.621 2.016 1.163 2.416 4.493 1.099 9.14zM19.667 9.653c1.523 0.139 2.969 0.364 4.312 0.668 0.915-3.584 0.679-6.24-0.647-7.004-1.317-0.761-3.793 0.405-6.4 2.944 0.943 1.022 1.841 2.128 2.666 3.289l0.069 0.103zM9.608 30.236c-0.014 0-0.030 0-0.046 0-0.574 0-1.113-0.152-1.577-0.419l0.015 0.008c-2.016-1.161-2.416-4.492-1.097-9.139l0.176-0.624 0.629 0.159c1.54 0.388 3.239 0.661 5.047 0.812l0.313 0.027 0.179 0.257c1.022 1.475 2.083 2.767 3.239 3.967l-0.010-0.010 0.453 0.465-0.453 0.465c-2.531 2.6-4.971 4.031-6.868 4.031zM8.021 21.667c-0.915 3.584-0.679 6.241 0.647 7.005 1.316 0.751 3.791-0.407 6.4-2.944-0.943-1.022-1.841-2.129-2.667-3.29l-0.069-0.103c-1.629-0.146-3.099-0.382-4.534-0.711l0.224 0.043zM16 22.504c-1.097 0-2.225-0.048-3.355-0.141l-0.313-0.027-0.18-0.257c-0.544-0.768-1.139-1.691-1.697-2.639l-0.103-0.19c-0.452-0.758-0.971-1.732-1.45-2.728l-0.105-0.243-0.133-0.284 0.133-0.284c0.584-1.239 1.102-2.212 1.658-3.161l-0.103 0.191c0.552-0.955 1.159-1.907 1.8-2.829l0.18-0.257 0.313-0.027c1.005-0.090 2.174-0.142 3.355-0.142s2.35 0.052 3.505 0.153l-0.15-0.011 0.312 0.027 0.179 0.257c1.177 1.666 2.294 3.567 3.252 5.56l0.104 0.24 0.135 0.284-0.135 0.284c-1.058 2.232-2.176 4.133-3.439 5.925l0.083-0.125-0.179 0.257-0.312 0.027c-1.129 0.093-2.259 0.141-3.356 0.141zM13.071 21.059c1.973 0.148 3.885 0.148 5.86 0 1.004-1.445 1.978-3.104 2.827-4.836l0.101-0.228c-0.947-1.958-1.922-3.617-3.012-5.19l0.083 0.126c-0.877-0.071-1.898-0.111-2.929-0.111s-2.052 0.040-3.063 0.119l0.134-0.008c-1.008 1.447-1.983 3.106-2.83 4.84l-0.099 0.224c0.951 1.96 1.926 3.619 3.014 5.193l-0.085-0.13z"></path>
</symbol>
<symbol id="icon-roots" viewBox="0 0 32 32">
<path fill="#525ddc" style="fill: var(--color27, #525ddc)" d="M13.713 10.633v-5.245c0-0.18-0.145-0.325-0.325-0.327-0.183 0.001-0.327 0.147-0.327 0.327 0.009 3.365-1.321 6.595-3.7 8.976l-7.517 7.543c-0.101 0.101-0.127 0.259-0.060 0.387 0.349 0.676 0.745 1.327 1.185 1.947 0.055 0.079 0.141 0.128 0.237 0.137h0.028c0.087 0 0.171-0.035 0.231-0.097l7.887-7.917c1.517-1.519 2.368-3.581 2.361-5.729zM23.997 1.039c-0.101-0.057-0.225-0.057-0.324 0-0.101 0.060-0.164 0.167-0.164 0.284v14.557c0 2.163 0.84 4.197 2.365 5.728l2.66 2.676c0.061 0.061 0.144 0.097 0.233 0.097l0.028-0.004c0.093-0.008 0.183-0.059 0.239-0.135 1.931-2.717 2.968-5.968 2.964-9.301-0.009-5.727-3.057-11.016-8.001-13.901zM8.489 5.388v-4.065c0-0.115-0.060-0.224-0.159-0.284-0.101-0.060-0.227-0.060-0.328 0-4.947 2.885-7.992 8.176-8.003 13.901 0 0.456 0.024 0.945 0.076 1.493 0.013 0.127 0.096 0.236 0.213 0.28 0.036 0.013 0.076 0.019 0.112 0.020 0.085-0.001 0.168-0.036 0.229-0.097l5.497-5.517c1.519-1.52 2.367-3.58 2.361-5.728zM22.641 24.855c-2.379-2.379-3.712-5.609-3.704-8.973v-5.248c0.001-0.181-0.145-0.329-0.325-0.331-0.181 0.003-0.327 0.149-0.327 0.331 0 3.391-1.315 6.58-3.701 8.976l-7.885 7.916c-0.129 0.128-0.131 0.336-0.003 0.465 0.013 0.015 0.027 0.027 0.041 0.035 2.697 1.94 5.94 2.984 9.263 2.98 3.323 0.004 6.564-1.040 9.263-2.98 0.079-0.056 0.127-0.141 0.131-0.24 0.012-0.093-0.021-0.192-0.089-0.26z"></path>
</symbol>
<symbol id="icon-shopify" viewBox="0 0 32 32">
<path fill="#7ab55c" style="fill: var(--color28, #7ab55c)" d="M20.449 31.972l9.621-2.081c0 0-3.472-23.484-3.5-23.64-0.024-0.155-0.152-0.256-0.281-0.256s-2.572-0.181-2.572-0.181-1.7-1.699-1.919-1.881c-0.060-0.049-0.1-0.076-0.161-0.099l-1.219 28.139zM15.613 15.073c0 0-1.080-0.565-2.365-0.565-1.929 0-2.005 1.208-2.005 1.521 0 1.643 4.32 2.287 4.32 6.172 0 3.060-1.92 5.013-4.541 5.013-3.139 0-4.72-1.953-4.72-1.953l0.861-2.781c0 0 1.66 1.421 3.040 1.421 0.9 0 1.3-0.727 1.3-1.243 0-2.159-3.539-2.259-3.539-5.812-0.045-2.983 2.095-5.888 6.436-5.888 1.676 0 2.5 0.481 2.5 0.481l-1.26 3.62zM14.893 1.107c0.181 0 0.361 0.051 0.54 0.18-1.312 0.62-2.752 2.185-3.344 5.323-0.875 0.284-1.724 0.54-2.519 0.771 0.692-2.38 2.364-6.26 5.323-6.26zM16.54 5.039v0.18c-1.005 0.309-2.111 0.645-3.192 0.981 0.621-2.369 1.777-3.527 2.78-3.961 0.257 0.668 0.412 1.568 0.412 2.8zM17.259 2.060c0.925 0.099 1.521 1.156 1.905 2.34-0.465 0.152-0.98 0.308-1.544 0.488v-0.336c0-1.003-0.128-1.828-0.361-2.495zM21.248 3.779c-0.027 0-0.080 0.028-0.104 0.028s-0.385 0.1-0.952 0.28c-0.564-1.644-1.568-3.16-3.344-3.16h-0.153c-0.515-0.648-1.136-0.927-1.675-0.927-4.141 0-6.12 5.169-6.74 7.795-1.592 0.487-2.751 0.848-2.88 0.899-0.9 0.284-0.925 0.309-1.029 1.16-0.1 0.616-2.44 18.751-2.44 18.751l18.081 3.396z"></path>
</symbol>
<symbol id="icon-squarespace" viewBox="0 0 32 32">
<path d="M30.207 11.625c-2.403-2.401-6.301-2.401-8.752 0l-9.801 9.8c-0.6 0.6-0.6 1.6 0 2.2 0.6 0.599 1.6 0.599 2.2 0l9.801-9.801c1.199-1.199 3.149-1.199 4.352 0 1.2 1.2 1.2 3.152 0 4.352l-9.652 9.652c1.2 1.199 3.149 1.199 4.351 0l7.452-7.452c2.448-2.451 2.448-6.351 0.049-8.751zM26.907 14.875c-0.601-0.6-1.601-0.6-2.2 0l-9.805 9.852c-1.2 1.199-3.148 1.199-4.349 0-0.6-0.6-1.6-0.6-2.2 0s-0.6 1.6 0 2.199c2.401 2.401 6.301 2.401 8.752 0l9.801-9.8c0.599-0.649 0.599-1.652 0.001-2.251zM23.655 5.075c-2.401-2.401-6.301-2.401-8.752 0l-9.801 9.801c-0.6 0.599-0.6 1.599 0 2.199s1.6 0.6 2.2 0l9.86-9.801c1.2-1.199 3.161-1.199 4.36 0 0.601 0.6 1.601 0.6 2.2 0 0.561-0.649 0.561-1.599-0.039-2.199zM20.355 8.324c-0.6-0.6-1.6-0.6-2.2 0l-9.801 9.852c-1.199 1.2-3.151 1.2-4.353 0-1.2-1.199-1.2-3.151 0-4.352l9.652-9.652c-1.2-1.2-3.149-1.2-4.351 0l-7.501 7.453c-2.4 2.4-2.4 6.3 0 8.751 2.401 2.401 6.3 2.401 8.752 0l9.8-9.801c0.601-0.651 0.601-1.651 0-2.251z"></path>
</symbol>
<symbol id="icon-tailwindcss" viewBox="0 0 32 32">
<path fill="#38b2ac" style="fill: var(--color29, #38b2ac)" d="M16.001 6.4c-4.267 0-6.933 2.133-8 6.4 1.6-2.133 3.467-2.933 5.6-2.4 1.217 0.304 2.087 1.187 3.051 2.165 1.569 1.592 3.384 3.435 7.349 3.435 4.267 0 6.933-2.133 8-6.4-1.6 2.133-3.467 2.933-5.6 2.4-1.217-0.304-2.087-1.187-3.051-2.165-1.568-1.592-3.383-3.435-7.349-3.435zM8.001 16c-4.267 0-6.933 2.133-8 6.4 1.6-2.133 3.467-2.933 5.6-2.4 1.217 0.304 2.087 1.187 3.051 2.165 1.569 1.592 3.384 3.435 7.349 3.435 4.267 0 6.933-2.133 8-6.4-1.6 2.133-3.467 2.933-5.6 2.4-1.217-0.304-2.087-1.187-3.051-2.165-1.568-1.592-3.383-3.435-7.349-3.435z"></path>
</symbol>
<symbol id="icon-visualstudiocode" viewBox="0 0 32 32">
<path fill="#007acc" style="fill: var(--color30, #007acc)" d="M30.867 3.449l-6.587-3.169c-0.253-0.124-0.55-0.197-0.864-0.197-0.55 0-1.049 0.223-1.409 0.584v0l-12.613 11.507-5.493-4.171c-0.221-0.169-0.501-0.271-0.805-0.271-0.346 0-0.661 0.132-0.897 0.348l-1.762 1.602c-0.269 0.245-0.436 0.596-0.436 0.987s0.167 0.741 0.434 0.984l0.001 0.001 4.764 4.347-4.764 4.347c-0.268 0.245-0.435 0.596-0.435 0.985s0.168 0.742 0.435 0.986l0.001 0.001 1.764 1.601c0.236 0.215 0.551 0.347 0.896 0.347 0.304 0 0.584-0.102 0.808-0.273l-0.003 0.002 5.493-4.171 12.613 11.507c0.36 0.361 0.858 0.584 1.408 0.584 0.314 0 0.611-0.073 0.876-0.203l-0.012 0.005 6.589-3.169c0.675-0.331 1.131-1.013 1.131-1.801 0-0.001 0-0.001 0-0.002v0-21.495c0-0 0-0 0-0 0-0.789-0.457-1.472-1.122-1.797l-0.012-0.005zM24.005 23.264l-9.571-7.264 9.571-7.264z"></path>
</symbol>
<symbol id="icon-wordpress" viewBox="0 0 32 32">
<path fill="#21759b" style="fill: var(--color31, #21759b)" d="M28.625 9.1c1.12 2.049 1.757 4.4 1.757 6.9 0 5.305-2.875 9.941-7.151 12.433l4.393-12.703c0.82-2.053 1.093-3.695 1.093-5.152 0-0.54-0.035-1.040-0.093-1.48zM17.984 9.239c0.863-0.040 1.643-0.14 1.643-0.14 0.776-0.1 0.685-1.24-0.089-1.199 0 0-2.34 0.18-3.84 0.18-1.419 0-3.8-0.2-3.8-0.2-0.78-0.040-0.881 1.14-0.1 1.18 0 0 0.72 0.081 1.5 0.12l2.24 6.14-3.16 9.44-5.239-15.56c0.865-0.040 1.645-0.133 1.645-0.133 0.78-0.1 0.688-1.24-0.087-1.195 0 0-2.328 0.184-3.832 0.184-0.267 0-0.584-0.011-0.92-0.020 2.603-3.836 7.035-6.416 12.055-6.416 3.745 0 7.153 1.429 9.715 3.777-0.061-0.004-0.121-0.012-0.188-0.012-1.413 0-2.416 1.231-2.416 2.552 0 1.187 0.684 2.191 1.413 3.375 0.548 0.96 1.187 2.191 1.187 3.969 0 1.22-0.472 2.659-1.095 4.639l-1.433 4.78-5.2-15.48zM16 30.379c-1.412 0-2.775-0.204-4.064-0.583l4.316-12.541 4.42 12.116c0.032 0.071 0.067 0.135 0.104 0.199-1.493 0.524-3.1 0.812-4.776 0.812zM1.615 16c0-2.085 0.448-4.067 1.247-5.853l6.859 18.799c-4.795-2.332-8.104-7.251-8.105-12.945zM16 0c-8.82 0-16 7.18-16 16s7.18 16 16 16 16-7.18 16-16-7.18-16-16-16z"></path>
</symbol>
<symbol id="icon-wpengine" viewBox="0 0 32 32">
<path fill="#40bac8" style="fill: var(--color32, #40bac8)" d="M10.8 32h10.4v-7.8l-2.6-2.401h-5.2l-2.6 2.401zM24.2 10.8l-2.401 2.6v5.2l2.401 2.6h7.8v-10.4zM21.2 0h-10.4v7.8l2.6 2.401h5.2l2.6-2.401zM32 32v-7.8l-2.401-2.401h-7.8v10.201zM2.4 0l-2.4 2.4v7.8h10.2v-10.2zM21.8 0v7.8l2.4 2.4h7.8v-10.2zM16 17.4c-0.8 0-1.4-0.6-1.4-1.4s0.6-1.4 1.4-1.4 1.4 0.6 1.4 1.4-0.6 1.4-1.4 1.4zM10.2 24.2l-2.4-2.4h-7.8v10.2h7.8l2.401-2.401zM10.2 10.8h-10.2v10.4h7.8l2.401-2.6z"></path>
</symbol>
<symbol id="icon-arrow-right" viewBox="0 0 32 32">
<path d="M31 16l-15-15v9h-16v12h16v9z"></path>
</symbol>
<symbol id="icon-certificate" viewBox="0 0 24 28">
<path d="M21.5 14l2.156 2.109c0.297 0.281 0.406 0.703 0.313 1.094-0.109 0.391-0.422 0.703-0.812 0.797l-2.938 0.75 0.828 2.906c0.109 0.391 0 0.812-0.297 1.094-0.281 0.297-0.703 0.406-1.094 0.297l-2.906-0.828-0.75 2.938c-0.094 0.391-0.406 0.703-0.797 0.812-0.094 0.016-0.203 0.031-0.297 0.031-0.297 0-0.594-0.125-0.797-0.344l-2.109-2.156-2.109 2.156c-0.281 0.297-0.703 0.406-1.094 0.313-0.406-0.109-0.703-0.422-0.797-0.812l-0.75-2.938-2.906 0.828c-0.391 0.109-0.812 0-1.094-0.297-0.297-0.281-0.406-0.703-0.297-1.094l0.828-2.906-2.938-0.75c-0.391-0.094-0.703-0.406-0.812-0.797-0.094-0.391 0.016-0.812 0.313-1.094l2.156-2.109-2.156-2.109c-0.297-0.281-0.406-0.703-0.313-1.094 0.109-0.391 0.422-0.703 0.812-0.797l2.938-0.75-0.828-2.906c-0.109-0.391 0-0.812 0.297-1.094 0.281-0.297 0.703-0.406 1.094-0.297l2.906 0.828 0.75-2.938c0.094-0.391 0.406-0.703 0.797-0.797 0.391-0.109 0.812 0 1.094 0.297l2.109 2.172 2.109-2.172c0.281-0.297 0.688-0.406 1.094-0.297 0.391 0.094 0.703 0.406 0.797 0.797l0.75 2.938 2.906-0.828c0.391-0.109 0.812 0 1.094 0.297 0.297 0.281 0.406 0.703 0.297 1.094l-0.828 2.906 2.938 0.75c0.391 0.094 0.703 0.406 0.812 0.797 0.094 0.391-0.016 0.812-0.313 1.094z"></path>
</symbol>
<symbol id="icon-starburst" viewBox="0 0 24 24">
<path d="M19.064 10.109l1.179-2.387c0.074-0.149 0.068-0.327-0.015-0.471-0.083-0.145-0.234-0.238-0.401-0.249l-2.656-0.172-0.172-2.656c-0.011-0.167-0.104-0.317-0.249-0.401s-0.322-0.090-0.472-0.015l-2.385 1.18-1.477-2.215c-0.186-0.278-0.646-0.278-0.832 0l-1.477 2.215-2.385-1.18c-0.151-0.075-0.327-0.069-0.472 0.015-0.145 0.083-0.238 0.234-0.249 0.401l-0.171 2.656-2.657 0.171c-0.167 0.011-0.318 0.104-0.401 0.249-0.084 0.145-0.089 0.322-0.015 0.472l1.179 2.386-2.214 1.477c-0.139 0.093-0.223 0.249-0.223 0.416s0.083 0.323 0.223 0.416l2.215 1.477-1.18 2.386c-0.074 0.15-0.068 0.327 0.015 0.472 0.083 0.144 0.234 0.238 0.401 0.248l2.656 0.171 0.171 2.657c0.011 0.167 0.104 0.317 0.249 0.401 0.144 0.083 0.32 0.088 0.472 0.015l2.386-1.179 1.477 2.214c0.093 0.139 0.249 0.223 0.416 0.223s0.323-0.083 0.416-0.223l1.477-2.214 2.386 1.179c0.15 0.073 0.327 0.068 0.472-0.015s0.238-0.234 0.249-0.401l0.171-2.656 2.656-0.172c0.167-0.011 0.317-0.104 0.401-0.249 0.083-0.145 0.089-0.322 0.015-0.472l-1.179-2.385 2.214-1.478c0.139-0.093 0.223-0.249 0.223-0.416s-0.083-0.323-0.223-0.416l-2.214-1.475z"></path>
</symbol>
<symbol id="icon-code" viewBox="0 0 40 32">
<path d="M26 23l3 3 10-10-10-10-3 3 7 7z"></path>
<path d="M14 9l-3-3-10 10 10 10 3-3-7-7z"></path>
<path d="M21.916 4.704l2.171 0.592-6 22.001-2.171-0.592 6-22.001z"></path>
</symbol>
</defs>
</svg>
